<svg xmlns="http://www.w3.org/2000/svg" viewBox="0 0 104.42 93.48"><defs><style>.cls-1{fill:#fff;}</style></defs><title>nuboso-niebla-nocheAsset 51</title><g id="Layer_2" data-name="Layer 2"><g id="piscina2"><path class="cls-1" d="M30.22,88H68.69v5.5H30.22Zm74.2-30.22A19.26,19.26,0,0,1,85.18,77H82.43v-5.5h2.75a13.74,13.74,0,1,0,0-27.47H71.44V41.27a24.73,24.73,0,0,0-49.33-2.51,19.26,19.26,0,0,1,16.36,19V60.5H33V57.76A13.74,13.74,0,1,0,19.23,71.49H22V77H19.23A19.23,19.23,0,0,1,16.6,38.72,30.19,30.19,0,0,1,57.85,13.18,24.8,24.8,0,0,1,73.54.85L76.86,0,77,3.42A19.14,19.14,0,0,0,96.17,22a19.55,19.55,0,0,0,4.78-.62l3.31-.85.13,3.62c0,.2,0,.4,0,.6A24.74,24.74,0,0,1,96.9,42.54,19.19,19.19,0,0,1,104.42,57.76ZM85.18,38.52a19.26,19.26,0,0,1,6.6,1.19,19.18,19.18,0,0,0,7-12.32,24.74,24.74,0,0,1-2.57.14A24.58,24.58,0,0,1,71.86,7.24a19.31,19.31,0,0,0-9.1,8.44A30.22,30.22,0,0,1,76.81,38.52Zm-55,33H79.68V66H30.22Zm0,11h44V77h-44Zm-27.47,11h22V88h-22Z"/></g></g></svg>