<svg xmlns="http://www.w3.org/2000/svg" viewBox="0 0 104.42 82.43"><defs><style>.cls-1{fill:#fff;}</style></defs><title>nuboso-nieblaAsset 26</title><g id="Layer_2" data-name="Layer 2"><g id="piscina2"><path class="cls-1" d="M104.42,46.71A19.26,19.26,0,0,1,85.18,66H82.43v-5.5h2.75a13.74,13.74,0,0,0,0-27.48H71.44V30.23a24.73,24.73,0,0,0-49.33-2.51,19.25,19.25,0,0,1,16.36,19v2.75H33V46.71A13.74,13.74,0,1,0,19.23,60.45H22V66H19.23A19.23,19.23,0,0,1,16.6,27.68a30.22,30.22,0,0,1,60.21-.2h8.37A19.26,19.26,0,0,1,104.42,46.71ZM76.94,55H27.48v5.49H76.94Zm-5.5,11h-44v5.49h44ZM22,76.94H0v5.49H22Zm44,0H27.48v5.49H66Z"/></g></g></svg>