<svg xmlns="http://www.w3.org/2000/svg" viewBox="0 0 104.42 82.43"><defs><style>.cls-1{fill:#fff;}</style></defs><title>nuboso-nieveAsset 25</title><g id="Layer_2" data-name="Layer 2"><g id="piscina2"><path class="cls-1" d="M104.42,46.71A19.26,19.26,0,0,1,85.18,66H82.43v-5.5h2.75a13.74,13.74,0,0,0,0-27.48H71.44V30.23a24.73,24.73,0,0,0-49.33-2.51,19.25,19.25,0,0,1,16.36,19v2.75H33V46.71A13.74,13.74,0,1,0,19.23,60.45H22V66H19.23A19.23,19.23,0,0,1,16.6,27.68a30.22,30.22,0,0,1,60.21-.2h8.37A19.26,19.26,0,0,1,104.42,46.71Zm-35.37,23L66.3,74.51,60,70.89A11,11,0,0,1,55,73.83v8.6h-5.5v-8.6a11,11,0,0,1-5.09-2.94l-6.26,3.62-2.74-4.76,6.26-3.62a10.86,10.86,0,0,1-.41-2.93,11,11,0,0,1,.41-2.94l-6.26-3.61,2.74-4.76,6.26,3.61a11,11,0,0,1,5.09-2.93V46.71H55v5.86A11,11,0,0,1,60,55.5l6.26-3.61,2.75,4.76-6.26,3.61a11,11,0,0,1,.41,2.94,10.86,10.86,0,0,1-.41,2.93ZM57.7,63.2a5.5,5.5,0,1,0-5.49,5.49A5.5,5.5,0,0,0,57.7,63.2Z"/></g></g></svg>