<svg xmlns="http://www.w3.org/2000/svg" viewBox="0 0 104.42 93.48"><defs><style>.cls-1{fill:#fff;}</style></defs><title>nuboso-nieve-nocheAsset 50</title><g id="Layer_2" data-name="Layer 2"><g id="piscina2"><path class="cls-1" d="M96.9,42.54a24.74,24.74,0,0,0,7.52-17.76c0-.2,0-.39,0-.59l-.11-3.63-3.33.85a19.55,19.55,0,0,1-4.78.62A19.14,19.14,0,0,1,77,3.42L76.86,0,73.54.85A24.84,24.84,0,0,0,57.85,13.17,30.21,30.21,0,0,0,16.6,38.72,19.23,19.23,0,0,0,19.23,77H22v-5.5H19.23A13.74,13.74,0,1,1,33,57.76V60.5h5.5V57.76a19.26,19.26,0,0,0-16.36-19,24.73,24.73,0,0,1,49.33,2.51V44H85.18a13.74,13.74,0,1,1,0,27.47H82.43V77h2.75A19.21,19.21,0,0,0,96.9,42.54Zm-20.09-4a30.27,30.27,0,0,0-14-22.85,19.27,19.27,0,0,1,9.09-8.43A24.58,24.58,0,0,0,96.17,27.53a24.74,24.74,0,0,0,2.57-.14,19.21,19.21,0,0,1-6.95,12.32,19.36,19.36,0,0,0-6.61-1.19ZM52.21,68.75a5.5,5.5,0,1,0,5.49,5.49A5.5,5.5,0,0,0,52.21,68.75Zm10.58,8.43,6.26,3.61L66.3,85.55,60,81.94A11,11,0,0,1,55,84.87v8.61h-5.5V84.87a10.94,10.94,0,0,1-5.08-2.94l-6.27,3.62-2.74-4.76,6.25-3.61a11,11,0,0,1,0-5.88l-6.25-3.61,2.74-4.76,6.27,3.62a11.11,11.11,0,0,1,5.08-2.94V55.73H55v7.88A11.13,11.13,0,0,1,60,66.55l6.27-3.62,2.75,4.76L62.79,71.3a10.75,10.75,0,0,1,0,5.88Z"/></g></g></svg>