<svg xmlns="http://www.w3.org/2000/svg" viewBox="0 0 104.42 83.37"><defs><style>.cls-1{fill:#fff;}</style></defs><title>nuboso-lluviaAsset 19</title><g id="Layer_2" data-name="Layer 2"><g id="piscina2"><path class="cls-1" d="M104.42,46.71A19.26,19.26,0,0,1,85.18,66H82.43v-5.5h2.75a13.74,13.74,0,0,0,0-27.48H71.44V30.23a24.73,24.73,0,0,0-49.33-2.51,19.25,19.25,0,0,1,16.36,19v2.75H33V46.71A13.74,13.74,0,1,0,19.23,60.45H22V66H19.23A19.23,19.23,0,0,1,16.6,27.68a30.22,30.22,0,0,1,60.21-.2h8.37A19.26,19.26,0,0,1,104.42,46.71ZM42.16,56.47,37.24,54,32,64.43,37,66.88Zm0,16.49L37.24,70.5,32,80.91,37,83.37ZM58.64,56.47,53.73,54,48.52,64.43l4.92,2.45Zm0,16.49L53.73,70.5,48.52,80.91l4.92,2.46ZM75.13,56.47,70.21,54,65,64.43l4.91,2.45Zm0,16.49L70.21,70.5,65,80.92l4.91,2.45Z"/></g></g></svg>