<svg xmlns="http://www.w3.org/2000/svg" viewBox="0 0 104.42 82.43"><defs><style>.cls-1{fill:#fff;}</style></defs><title>nuboso-escarchaAsset 24</title><g id="Layer_2" data-name="Layer 2"><g id="piscina2"><path class="cls-1" d="M35.72,60.45a2.72,2.72,0,0,1-1.94-.81,2.3,2.3,0,0,1-.35-.41,3.62,3.62,0,0,1-.25-.48,2.29,2.29,0,0,1-.15-.51A2.48,2.48,0,0,1,33,57.7a2.77,2.77,0,0,1,.81-1.94,2.83,2.83,0,0,1,3.88,0,2.72,2.72,0,0,1,.34.42,2.68,2.68,0,0,1,.26.47,3.28,3.28,0,0,1,.15.51,2.46,2.46,0,0,1,0,1.08,3,3,0,0,1-.15.51,2.77,2.77,0,0,1-.26.48,2.25,2.25,0,0,1-.34.41A2.73,2.73,0,0,1,35.72,60.45Zm17-.06a2.38,2.38,0,0,0,.52-.15,4.23,4.23,0,0,0,.47-.25,2.79,2.79,0,0,0,.42-.35,2.25,2.25,0,0,0,.34-.41,2.73,2.73,0,0,0,.25-.48,3,3,0,0,0,.16-.51A3.29,3.29,0,0,0,55,57.7a2.76,2.76,0,0,0-.8-1.94,2.72,2.72,0,0,0-.42-.34,3.1,3.1,0,0,0-.47-.26,2.38,2.38,0,0,0-.52-.15,2.77,2.77,0,0,0-2.48.75,3.47,3.47,0,0,0-.34.42,2.64,2.64,0,0,0-.25.47,3.33,3.33,0,0,0-.16.51,2.94,2.94,0,0,0,0,1.08,3,3,0,0,0,.16.51,2.74,2.74,0,0,0,2.53,1.7A2.48,2.48,0,0,0,52.74,60.39ZM45.91,70.63a2.75,2.75,0,0,0,.8-1.94,3.07,3.07,0,0,0-.05-.53,3.13,3.13,0,0,0-.16-.52,3,3,0,0,0-.25-.47,3.47,3.47,0,0,0-.34-.42,2.86,2.86,0,0,0-3.89,0,2.72,2.72,0,0,0-.34.42,3.1,3.1,0,0,0-.26.47,2.38,2.38,0,0,0-.15.52,2.33,2.33,0,0,0-.06.53A2.81,2.81,0,0,0,42.44,71a3,3,0,0,0,.47.25,3.13,3.13,0,0,0,.52.16,3.07,3.07,0,0,0,.53,0A2.76,2.76,0,0,0,45.91,70.63Zm24.72-11a2.3,2.3,0,0,0,.35-.41,3.62,3.62,0,0,0,.25-.48,3,3,0,0,0,.16-.51,3.29,3.29,0,0,0,0-.54A2.75,2.75,0,0,0,68.16,55a2.38,2.38,0,0,0-.52.15,3.1,3.1,0,0,0-.47.26,2.58,2.58,0,0,0-.76.76,2.12,2.12,0,0,0-.25.47A2.56,2.56,0,0,0,66,58.24a2.32,2.32,0,0,0,.16.51,2.19,2.19,0,0,0,.25.48,2.25,2.25,0,0,0,.34.41,2.79,2.79,0,0,0,.42.35,4.23,4.23,0,0,0,.47.25,2.38,2.38,0,0,0,.52.15,2.33,2.33,0,0,0,.53.06A2.72,2.72,0,0,0,70.63,59.64Zm-8.24,11a2.76,2.76,0,0,0,.81-1.94,2.33,2.33,0,0,0-.06-.53,2.38,2.38,0,0,0-.15-.52,4.23,4.23,0,0,0-.25-.47,3.54,3.54,0,0,0-.35-.42,2.84,2.84,0,0,0-3.88,0,3.54,3.54,0,0,0-.35.42,4.23,4.23,0,0,0-.25.47,3.13,3.13,0,0,0-.16.52,3.07,3.07,0,0,0,0,.53,2.73,2.73,0,0,0,.81,1.94,2.3,2.3,0,0,0,.41.35,3.62,3.62,0,0,0,.48.25,3,3,0,0,0,.51.16,3.29,3.29,0,0,0,.54,0A2.73,2.73,0,0,0,62.39,70.63ZM36.26,82.38a3.33,3.33,0,0,0,.51-.16,2.64,2.64,0,0,0,.47-.25,3.47,3.47,0,0,0,.42-.34,2.74,2.74,0,0,0,0-3.89,2.72,2.72,0,0,0-.42-.34,2.12,2.12,0,0,0-.47-.25,2.5,2.5,0,0,0-.51-.16,2.8,2.8,0,0,0-1.08,0,2.32,2.32,0,0,0-.51.16,2.19,2.19,0,0,0-.48.25,2.25,2.25,0,0,0-.41.34,2.74,2.74,0,0,0,0,3.89,2.76,2.76,0,0,0,1.94.8A3.29,3.29,0,0,0,36.26,82.38Zm17.89-.75a2.76,2.76,0,0,0,0-3.89,2.72,2.72,0,0,0-.42-.34,2.37,2.37,0,0,0-.47-.25,2.4,2.4,0,0,0-.52-.16,2.75,2.75,0,0,0-1.07,0,2.4,2.4,0,0,0-.52.16,2.37,2.37,0,0,0-.47.25,2.72,2.72,0,0,0-.42.34,2.76,2.76,0,0,0,0,3.89,3.47,3.47,0,0,0,.42.34,3,3,0,0,0,.47.25,3.13,3.13,0,0,0,.52.16,3.17,3.17,0,0,0,.53.05A2.77,2.77,0,0,0,54.15,81.63Zm16.49,0a2.76,2.76,0,0,0,0-3.89,2.72,2.72,0,0,0-.42-.34,2.19,2.19,0,0,0-.48-.25,2.16,2.16,0,0,0-.51-.16,2.8,2.8,0,0,0-1.08,0,2.5,2.5,0,0,0-.51.16,2.37,2.37,0,0,0-.47.25,2.72,2.72,0,0,0-.42.34,2.74,2.74,0,0,0,0,3.89,3.47,3.47,0,0,0,.42.34,3,3,0,0,0,.47.25,3.33,3.33,0,0,0,.51.16,3.29,3.29,0,0,0,.54.05A2.81,2.81,0,0,0,70.64,81.63ZM85.18,27.48H76.81a30.22,30.22,0,0,0-60.21.2A19.23,19.23,0,0,0,19.23,66H22v-5.5H19.23A13.74,13.74,0,1,1,33,46.71v2.75h5.5V46.71a19.25,19.25,0,0,0-16.36-19,24.73,24.73,0,0,1,49.33,2.51V33H85.18a13.74,13.74,0,0,1,0,27.48H82.43V66h2.75a19.24,19.24,0,1,0,0-38.47Z"/></g></g></svg>