<svg xmlns="http://www.w3.org/2000/svg" viewBox="0 0 104.42 93.48"><defs><style>.cls-1{fill:#fff;}</style></defs><title>nuboso-tormenta-nocheAsset 45</title><g id="Layer_2" data-name="Layer 2"><g id="piscina2"><path class="cls-1" d="M96.9,42.53a24.7,24.7,0,0,0,7.52-17.75c0-.2,0-.4,0-.6l-.13-3.62-3.31.85a19.55,19.55,0,0,1-4.78.62A19.14,19.14,0,0,1,77,3.42L76.86,0,73.54.85A24.84,24.84,0,0,0,57.85,13.17,30.21,30.21,0,0,0,16.6,38.72,19.23,19.23,0,0,0,19.23,77H22v-5.5H19.23A13.74,13.74,0,1,1,33,57.76V60.5h5.5V57.76a19.25,19.25,0,0,0-16.36-19,24.73,24.73,0,0,1,49.33,2.51V44H85.18a13.74,13.74,0,1,1,0,27.47H82.43V77h2.75A19.21,19.21,0,0,0,96.9,42.53Z"/><path class="cls-1" d="M76.81,38.52a30.26,30.26,0,0,0-14-22.85,19.27,19.27,0,0,1,9.09-8.43A24.58,24.58,0,0,0,96.17,27.53a24.74,24.74,0,0,0,2.57-.14,19.18,19.18,0,0,1-7,12.32,19.26,19.26,0,0,0-6.6-1.19Z"/><rect class="cls-1" x="32.97" y="66" width="5.5" height="27.48"/><rect class="cls-1" x="49.46" y="66" width="5.5" height="16.49"/><rect class="cls-1" x="65.95" y="66" width="5.5" height="27.48"/></g></g></svg>