<svg xmlns="http://www.w3.org/2000/svg" viewBox="0 0 104.42 93.42"><defs><style>.cls-1{fill:#fff;}</style></defs><title>nuboso-tormenta-granizoAsset 22</title><g id="Layer_2" data-name="Layer 2"><g id="piscina2"><path class="cls-1" d="M35.72,93.42a2.76,2.76,0,0,1-1.94-.8,2.72,2.72,0,0,1-.34-.42,3.1,3.1,0,0,1-.26-.47,2.38,2.38,0,0,1-.15-.52,2.33,2.33,0,0,1-.06-.53,2.76,2.76,0,0,1,.81-1.94,2.79,2.79,0,0,1,.42-.35,2.64,2.64,0,0,1,.47-.25,3.13,3.13,0,0,1,.52-.16,2.84,2.84,0,0,1,2.06.41,2.3,2.3,0,0,1,.41.35,2.7,2.7,0,0,1,.81,1.94,3.07,3.07,0,0,1,0,.53,3.13,3.13,0,0,1-.16.52,3,3,0,0,1-.25.47,2.79,2.79,0,0,1-.35.42,2.25,2.25,0,0,1-.41.34,2.19,2.19,0,0,1-.48.25,2.16,2.16,0,0,1-.51.16A2.47,2.47,0,0,1,35.72,93.42Zm34.92-.8A2.72,2.72,0,0,0,71,92.2a3,3,0,0,0,.25-.47,3.13,3.13,0,0,0,.16-.52,3.07,3.07,0,0,0,0-.53,3.29,3.29,0,0,0,0-.54,3,3,0,0,0-.16-.51,2.73,2.73,0,0,0-.25-.48,2.25,2.25,0,0,0-.34-.41A2.77,2.77,0,0,0,68.16,88a3.13,3.13,0,0,0-.52.16,3,3,0,0,0-.47.25,2.79,2.79,0,0,0-.42.35,2.25,2.25,0,0,0-.34.41,2.73,2.73,0,0,0-.25.48,3,3,0,0,0-.16.51,2.47,2.47,0,0,0,0,.54,2.32,2.32,0,0,0,0,.53,3.13,3.13,0,0,0,.16.52,3,3,0,0,0,.25.47,2.58,2.58,0,0,0,.76.76,2.37,2.37,0,0,0,.47.25,2.4,2.4,0,0,0,.52.16,2.32,2.32,0,0,0,.53,0A2.77,2.77,0,0,0,70.64,92.62ZM52.75,87.88a3.33,3.33,0,0,0,.51-.16,2.34,2.34,0,0,0,.47-.25,2.37,2.37,0,0,0,.42-.35A2.74,2.74,0,0,0,55,85.18a2.48,2.48,0,0,0-.06-.54,3.28,3.28,0,0,0-.15-.51,3.1,3.1,0,0,0-.26-.47,2.72,2.72,0,0,0-.34-.42,2.31,2.31,0,0,0-.42-.34,1.92,1.92,0,0,0-.47-.25,2.5,2.5,0,0,0-.51-.16,2.8,2.8,0,0,0-1.08,0,2.32,2.32,0,0,0-.51.16,2.19,2.19,0,0,0-.48.25,2.25,2.25,0,0,0-.41.34,2.79,2.79,0,0,0-.35.42,3,3,0,0,0-.25.47,3.33,3.33,0,0,0-.16.51,3.29,3.29,0,0,0,0,.54,2.72,2.72,0,0,0,.81,1.94,2.3,2.3,0,0,0,.41.35,2.73,2.73,0,0,0,.48.25,3,3,0,0,0,.51.16,2.94,2.94,0,0,0,1.08,0ZM38.47,55H33V82.43h5.5ZM55,55h-5.5v22H55Zm16.48,0H66V82.43h5.49ZM85.18,27.48H76.81a30.22,30.22,0,0,0-60.21.2A19.23,19.23,0,0,0,19.24,66H22v-5.5H19.24A13.74,13.74,0,1,1,33,46.71v2.75h5.5V46.71a19.25,19.25,0,0,0-16.36-19,24.73,24.73,0,0,1,49.33,2.51V33H85.18a13.74,13.74,0,0,1,0,27.48H82.43V66h2.75a19.24,19.24,0,1,0,0-38.47Z"/></g></g></svg>