<svg xmlns="http://www.w3.org/2000/svg" viewBox="0 0 104.42 94.2"><defs><style>.cls-1{fill:#fff;}</style></defs><title>nuboso-tormenta-nocheAsset 42</title><g id="Layer_2" data-name="Layer 2"><g id="piscina2"><path class="cls-1" d="M96.9,42.53a24.7,24.7,0,0,0,7.52-17.75c0-.2,0-.4,0-.6l-.13-3.62-3.31.85a19.55,19.55,0,0,1-4.78.62A19.14,19.14,0,0,1,77,3.42L76.86,0,73.54.85A24.84,24.84,0,0,0,57.85,13.17,30.21,30.21,0,0,0,16.6,38.72,19.23,19.23,0,0,0,19.23,77H22v-5.5H19.23A13.74,13.74,0,1,1,33,57.76V60.5h5.5V57.76a19.25,19.25,0,0,0-16.36-19,24.73,24.73,0,0,1,49.33,2.51V44H85.18a13.74,13.74,0,1,1,0,27.47H82.43V77h2.75A19.21,19.21,0,0,0,96.9,42.53Zm-20.09-4a30.27,30.27,0,0,0-14-22.85,19.27,19.27,0,0,1,9.09-8.43A24.58,24.58,0,0,0,96.17,27.53a24.74,24.74,0,0,0,2.57-.14,19.21,19.21,0,0,1-6.95,12.32,19.36,19.36,0,0,0-6.61-1.19Zm-15.29,33h-11L55.68,56l-5.21-1.74L42.9,77h11L48.73,92.47l5.21,1.73Z"/></g></g></svg>