<svg xmlns="http://www.w3.org/2000/svg" viewBox="0 0 104.42 93.47"><defs><style>.cls-1{fill:#fff;}</style></defs><title>nuboso-escarcha-nocheAsset 49</title><g id="Layer_2" data-name="Layer 2"><g id="piscina2"><path class="cls-1" d="M96.9,42.54a24.74,24.74,0,0,0,7.52-17.76c0-.2,0-.4,0-.6l-.13-3.62-3.31.85a19.55,19.55,0,0,1-4.78.62A19.14,19.14,0,0,1,77,3.42L76.86,0,73.54.85A24.84,24.84,0,0,0,57.85,13.17,30.21,30.21,0,0,0,16.6,38.72,19.23,19.23,0,0,0,19.23,77H22v-5.5H19.23A13.74,13.74,0,1,1,33,57.76V60.5h5.5V57.76a19.26,19.26,0,0,0-16.36-19,24.73,24.73,0,0,1,49.33,2.51V44H85.18a13.74,13.74,0,1,1,0,27.47H82.43V77h2.75A19.21,19.21,0,0,0,96.9,42.54Zm-20.09-4a30.27,30.27,0,0,0-14-22.85,19.27,19.27,0,0,1,9.09-8.43A24.58,24.58,0,0,0,96.17,27.53a24.74,24.74,0,0,0,2.57-.14,19.21,19.21,0,0,1-6.95,12.32,19.36,19.36,0,0,0-6.61-1.19ZM37.67,70.69a2.76,2.76,0,0,0,.8-1.94,2.81,2.81,0,0,0-.8-2,3.47,3.47,0,0,0-.42-.34,3,3,0,0,0-.47-.25,3.13,3.13,0,0,0-.52-.16,2.75,2.75,0,0,0-1.07,0,3.13,3.13,0,0,0-.52.16,3,3,0,0,0-.47.25,3.47,3.47,0,0,0-.42.34,2.81,2.81,0,0,0-.8,2,2.32,2.32,0,0,0,.05.53,3.13,3.13,0,0,0,.16.52,3,3,0,0,0,.25.47,3.47,3.47,0,0,0,.34.42,2.74,2.74,0,0,0,3.89,0Zm16.48,0A2.77,2.77,0,0,0,55,68.75a2.48,2.48,0,0,0-.06-.54,2.29,2.29,0,0,0-.15-.51,3.62,3.62,0,0,0-.25-.48,2.78,2.78,0,0,0-2.83-1.17,3.33,3.33,0,0,0-.51.16,2.34,2.34,0,0,0-.47.25,2.73,2.73,0,0,0-1.23,2.29,2.33,2.33,0,0,0,.06.53,2.41,2.41,0,0,0,.41,1,2.72,2.72,0,0,0,.34.42,2.73,2.73,0,0,0,3.88,0ZM44.5,82.43a2.41,2.41,0,0,0,1-.41,2.72,2.72,0,0,0,.42-.34,2.76,2.76,0,0,0,.8-1.94,2.73,2.73,0,0,0-.8-1.94,2.79,2.79,0,0,0-.42-.35A3,3,0,0,0,45,77.2,3.13,3.13,0,0,0,44.5,77a2.75,2.75,0,0,0-1.07,0,3,3,0,0,0-.51.16,2.73,2.73,0,0,0-.48.25,3.42,3.42,0,0,0-.76.76,2.73,2.73,0,0,0-.25.48,3,3,0,0,0-.16.51,3.29,3.29,0,0,0-.05.54,3.07,3.07,0,0,0,.05.53,3.13,3.13,0,0,0,.16.52,3,3,0,0,0,.25.47,2.79,2.79,0,0,0,.35.42,2.25,2.25,0,0,0,.41.34,2.77,2.77,0,0,0,.48.26,2.74,2.74,0,0,0,.51.15,2.48,2.48,0,0,0,.54.06A2.33,2.33,0,0,0,44.5,82.43ZM70.64,70.69a2.76,2.76,0,0,0,.8-1.94,2.47,2.47,0,0,0,0-.54,3,3,0,0,0-.15-.51,2.77,2.77,0,0,0-.26-.48,2.72,2.72,0,0,0-.34-.42,2.76,2.76,0,0,0-2.48-.75,3,3,0,0,0-.51.16,2.54,2.54,0,0,0-.89.59,2.77,2.77,0,0,0-.81,2,3.07,3.07,0,0,0,0,.53,3.13,3.13,0,0,0,.16.52,4.23,4.23,0,0,0,.25.47,2.79,2.79,0,0,0,.35.42,2.73,2.73,0,0,0,3.88,0Zm-8.24,11a2.72,2.72,0,0,0,.34-.42,3,3,0,0,0,.25-.47,3.13,3.13,0,0,0,.16-.52,2.32,2.32,0,0,0,.05-.53,2.47,2.47,0,0,0-.05-.54,3,3,0,0,0-.16-.51,2.73,2.73,0,0,0-.25-.48,2.25,2.25,0,0,0-.34-.41,2.79,2.79,0,0,0-.42-.35,3,3,0,0,0-.47-.25A3.13,3.13,0,0,0,61,77a2.78,2.78,0,0,0-2.48.76,2.25,2.25,0,0,0-.34.41,2.73,2.73,0,0,0-.25.48,3,3,0,0,0-.16.51,3.29,3.29,0,0,0,0,.54,3.07,3.07,0,0,0,0,.53,3.13,3.13,0,0,0,.16.52,3,3,0,0,0,.25.47,2.58,2.58,0,0,0,.76.76,2.41,2.41,0,0,0,1,.41,2.48,2.48,0,0,0,.54.06A2.77,2.77,0,0,0,62.4,81.68ZM36.26,93.42a2.41,2.41,0,0,0,1-.41,2.72,2.72,0,0,0,.42-.34,2.83,2.83,0,0,0,.34-.42,2.34,2.34,0,0,0,.25-.47,3.33,3.33,0,0,0,.16-.51,2.94,2.94,0,0,0,0-1.08,3,3,0,0,0-.16-.51A2.73,2.73,0,0,0,38,89.2a3.47,3.47,0,0,0-.34-.42,2.87,2.87,0,0,0-3.89,0,3.47,3.47,0,0,0-.34.42,2.73,2.73,0,0,0-.25.48,3,3,0,0,0-.16.51,2.94,2.94,0,0,0,0,1.08,3.33,3.33,0,0,0,.16.51,2.34,2.34,0,0,0,.25.47,2.83,2.83,0,0,0,.34.42,2.77,2.77,0,0,0,1.95.8A2.32,2.32,0,0,0,36.26,93.42Zm16.49,0a3,3,0,0,0,.51-.15,2.77,2.77,0,0,0,.48-.26,2.71,2.71,0,0,0,.75-.76,2.37,2.37,0,0,0,.26-.47,3.33,3.33,0,0,0,.16-.51,2.94,2.94,0,0,0,0-1.08,3,3,0,0,0-.16-.51,2.77,2.77,0,0,0-.26-.48,2.24,2.24,0,0,0-.34-.42,2.74,2.74,0,0,0-.41-.34,3.62,3.62,0,0,0-.48-.25,3,3,0,0,0-.51-.16,2.8,2.8,0,0,0-1.08,0,3.33,3.33,0,0,0-.51.16,3,3,0,0,0-.47.25,2.83,2.83,0,0,0-.42.34,2.72,2.72,0,0,0-.34.42,2.77,2.77,0,0,0-.26.48,2.29,2.29,0,0,0-.15.51,2.83,2.83,0,0,0,.15,1.59,2.37,2.37,0,0,0,.26.47,2.31,2.31,0,0,0,.34.42,2.76,2.76,0,0,0,1.94.8A2.47,2.47,0,0,0,52.75,93.42Zm17.89-.75a2.31,2.31,0,0,0,.34-.42,2.37,2.37,0,0,0,.26-.47,3.28,3.28,0,0,0,.15-.51,2.46,2.46,0,0,0,0-1.08,3,3,0,0,0-.15-.51A2.77,2.77,0,0,0,71,89.2a2.72,2.72,0,0,0-.34-.42,2.83,2.83,0,0,0-.42-.34,3.5,3.5,0,0,0-.47-.25,3.33,3.33,0,0,0-.51-.16,2.8,2.8,0,0,0-1.08,0,3,3,0,0,0-.51.16,3.62,3.62,0,0,0-.48.25,2.58,2.58,0,0,0-.76.76,2.73,2.73,0,0,0-.25.48,3,3,0,0,0-.16.51,2.94,2.94,0,0,0,0,1.08,3.33,3.33,0,0,0,.16.51,2.34,2.34,0,0,0,.25.47,3.47,3.47,0,0,0,.34.42,2.76,2.76,0,0,0,3.89,0Z"/></g></g></svg>