<svg xmlns="http://www.w3.org/2000/svg" viewBox="0 0 104.42 104.47"><defs><style>.cls-1{fill:#fff;}</style></defs><title>nuboso-tormenta-granizo-nocheAsset 47</title><g id="Layer_2" data-name="Layer 2"><g id="piscina2"><path class="cls-1" d="M96.9,42.53a24.7,24.7,0,0,0,7.52-17.75c0-.2,0-.4,0-.6l-.12-3.62-3.32.85a19.55,19.55,0,0,1-4.78.62A19.14,19.14,0,0,1,77,3.42L76.86,0,73.54.85A24.84,24.84,0,0,0,57.85,13.17,30.21,30.21,0,0,0,16.6,38.72,19.23,19.23,0,0,0,19.24,77H22v-5.5H19.24A13.74,13.74,0,1,1,33,57.76V60.5h5.5V57.76a19.25,19.25,0,0,0-16.36-19,24.73,24.73,0,0,1,49.33,2.51V44H85.18a13.74,13.74,0,1,1,0,27.47H82.43V77h2.75A19.21,19.21,0,0,0,96.9,42.53Zm-20.09-4a30.26,30.26,0,0,0-14-22.85,19.27,19.27,0,0,1,9.09-8.43A24.58,24.58,0,0,0,96.17,27.53a24.74,24.74,0,0,0,2.57-.14,19.21,19.21,0,0,1-6.95,12.32,19.36,19.36,0,0,0-6.61-1.19ZM35.72,104.47A2.75,2.75,0,0,1,33,101.72a2.73,2.73,0,0,1,.81-1.94,2.25,2.25,0,0,1,.41-.34,2.77,2.77,0,0,1,.48-.26,3,3,0,0,1,.51-.15,2.8,2.8,0,0,1,1.08,0,3.28,3.28,0,0,1,.51.15,3.1,3.1,0,0,1,.47.26,2.72,2.72,0,0,1,.42.34,2.74,2.74,0,0,1,0,3.89,3.47,3.47,0,0,1-.42.34,3,3,0,0,1-.47.25,3.13,3.13,0,0,1-.52.16A3.07,3.07,0,0,1,35.72,104.47Zm33,0a2.74,2.74,0,0,1-1.94-4.69,2.72,2.72,0,0,1,.42-.34,2.37,2.37,0,0,1,.47-.26,3.28,3.28,0,0,1,.51-.15,2.8,2.8,0,0,1,1.08,0,3,3,0,0,1,.51.15,2.77,2.77,0,0,1,.48.26,2.25,2.25,0,0,1,.41.34,2.74,2.74,0,0,1,0,3.89,2.54,2.54,0,0,1-.89.59,3,3,0,0,1-.51.16A3.29,3.29,0,0,1,68.69,104.47ZM52.21,99a3.29,3.29,0,0,1-.54,0,3.13,3.13,0,0,1-.52-.16,3,3,0,0,1-.47-.25,3.47,3.47,0,0,1-.42-.34,2.75,2.75,0,0,1,2.48-4.64,3.13,3.13,0,0,1,.52.16,3,3,0,0,1,.47.25,3.47,3.47,0,0,1,.42.34,2.76,2.76,0,0,1,.8,1.94,2.47,2.47,0,0,1-.05.54,3.13,3.13,0,0,1-.16.52,3,3,0,0,1-.25.47,3.47,3.47,0,0,1-.34.42A2.78,2.78,0,0,1,52.21,99ZM38.47,93.48H33V66h5.5ZM55,88h-5.5V66H55Zm16.48,5.5H66V66h5.49Z"/></g></g></svg>