<svg xmlns="http://www.w3.org/2000/svg" viewBox="0 0 115.41 104.42"><defs><style>.cls-1{fill:#fff;}</style></defs><title>poco-nuboso-tormentaAsset 33</title><g id="Layer_2" data-name="Layer 2"><g id="piscina2"><path class="cls-1" d="M94.48,55.36,90,52.22a19.24,19.24,0,0,0-30.4-23.51L55.4,25.14A24.73,24.73,0,0,1,94.48,55.36ZM76.94,0h-5.5V11h5.5Zm38.47,38.47h-11V44h11ZM105.28,14l-3.89-3.89L93.62,17.9l3.89,3.89ZM85.18,49.46H76.81a30.22,30.22,0,0,0-60.21.2,19.23,19.23,0,0,0,2.64,38.27H22v-5.5H19.24A13.74,13.74,0,1,1,33,68.69v2.75h5.5V68.69a19.25,19.25,0,0,0-16.36-19,24.73,24.73,0,0,1,49.33,2.51V55H85.18a13.74,13.74,0,1,1,0,27.47H82.43v5.5h2.75a19.24,19.24,0,1,0,0-38.47ZM38.47,76.94H33v27.48h5.5Zm16.49,0h-5.5V93.42H55Zm16.48,0H66v27.48h5.49Z"/></g></g></svg>