<svg xmlns="http://www.w3.org/2000/svg" viewBox="0 0 115.41 87.93"><defs><style>.cls-1{fill:#fff;}</style></defs><title>poco-nubosoAsset 29</title><g id="Layer_2" data-name="Layer 2"><g id="piscina2"><path class="cls-1" d="M96,52.82A24.72,24.72,0,0,0,56.75,23.7a30.21,30.21,0,0,0-40.15,26,19.23,19.23,0,0,0,2.63,38.27h66A19.22,19.22,0,0,0,96,52.82ZM74.19,22A19.23,19.23,0,0,1,91.08,50.4a18.89,18.89,0,0,0-5.9-.94H76.81A30.3,30.3,0,0,0,62.14,26.23,19.24,19.24,0,0,1,74.19,22Zm11,60.45H19.23A13.74,13.74,0,1,1,33,68.69v2.75h5.5V68.69a19.25,19.25,0,0,0-16.36-19,24.73,24.73,0,0,1,49.33,2.51V55H85.18a13.74,13.74,0,1,1,0,27.47Z"/><rect class="cls-1" x="71.44" width="5.5" height="10.99"/><rect class="cls-1" x="104.42" y="38.47" width="10.99" height="5.5"/><rect class="cls-1" x="93.95" y="13.21" width="10.99" height="5.5" transform="translate(17.84 74.99) rotate(-45)"/></g></g></svg>