<svg xmlns="http://www.w3.org/2000/svg" viewBox="0 0 115.41 104.42"><defs><style>.cls-1{fill:#fff;}</style></defs><title>poco-nuboso-nieveAsset 38</title><g id="Layer_2" data-name="Layer 2"><g id="piscina2"><path class="cls-1" d="M76.94,11h-5.5V0h5.5Zm27.48,27.48V44h11V38.47ZM105.28,14l-3.89-3.89L93.62,17.9l3.88,3.89Zm-.86,54.67A19.26,19.26,0,0,1,85.18,87.93H82.43v-5.5h2.75a13.74,13.74,0,1,0,0-27.47H71.44V52.21A24.73,24.73,0,0,0,22.11,49.7a19.25,19.25,0,0,1,16.36,19v2.75H33V68.69A13.74,13.74,0,1,0,19.23,82.43H22v5.5H19.23A19.23,19.23,0,0,1,16.6,49.66a30.21,30.21,0,0,1,40.15-26A24.72,24.72,0,0,1,96,52.82,19.23,19.23,0,0,1,104.42,68.69ZM85.18,49.46a18.89,18.89,0,0,1,5.9.94A19.23,19.23,0,0,0,62.14,26.23,30.3,30.3,0,0,1,76.81,49.46ZM69.05,91.73,66.3,96.49,60,92.88A11,11,0,0,1,55,95.81v8.61h-5.5V95.81a11,11,0,0,1-5.09-2.93l-6.26,3.61-2.74-4.76,6.26-3.61a11,11,0,0,1-.41-2.94,10.86,10.86,0,0,1,.41-2.93l-6.26-3.62,2.74-4.76,6.26,3.61a11,11,0,0,1,5.09-2.93V68.69H55v5.86A11,11,0,0,1,60,77.48l6.26-3.61,2.75,4.76-6.26,3.61a10.75,10.75,0,0,1,0,5.88ZM57.7,85.18a5.5,5.5,0,1,0-5.49,5.5A5.49,5.49,0,0,0,57.7,85.18Z"/></g></g></svg>