<svg xmlns="http://www.w3.org/2000/svg" viewBox="0 0 115.41 115.41"><defs><style>.cls-1{fill:#fff;}</style></defs><title>poco-nuboso-tormenta-granizo-fuerteAsset 35</title><g id="Layer_2" data-name="Layer 2"><g id="piscina2"><path class="cls-1" d="M76.94,11h-5.5V0h5.5Zm27.48,27.48V44h11V38.47ZM105.28,14l-3.89-3.89L93.62,17.9l3.89,3.89Zm-.86,54.67A19.26,19.26,0,0,1,85.18,87.93H82.43v-5.5h2.75a13.74,13.74,0,1,0,0-27.47H71.44V52.21A24.73,24.73,0,0,0,22.11,49.7a19.25,19.25,0,0,1,16.36,19v2.75H33V68.69A13.74,13.74,0,1,0,19.24,82.43H22v5.5H19.24A19.23,19.23,0,0,1,16.6,49.66a30.21,30.21,0,0,1,40.15-26A24.72,24.72,0,0,1,96,52.82,19.23,19.23,0,0,1,104.42,68.69ZM85.18,49.46a18.89,18.89,0,0,1,5.9.94A19.23,19.23,0,0,0,62.14,26.23,30.28,30.28,0,0,1,76.81,49.46Zm-48.92,65.9a3,3,0,0,0,.51-.16,5.39,5.39,0,0,0,.48-.25,2.86,2.86,0,0,0,.42-.36,2.66,2.66,0,0,0,.34-.4,2.73,2.73,0,0,0,.25-.48,3.33,3.33,0,0,0,.16-.51,3.39,3.39,0,0,0,0-.54,3.19,3.19,0,0,0,0-.54,3.33,3.33,0,0,0-.16-.51,3.13,3.13,0,0,0-.25-.48,4.46,4.46,0,0,0-.34-.42,2.65,2.65,0,0,0-.42-.33,2.81,2.81,0,0,0-1-.42,3.2,3.2,0,0,0-1.07,0,2.62,2.62,0,0,0-1,.42,2.65,2.65,0,0,0-.42.33,2.82,2.82,0,0,0-.81,2,2.55,2.55,0,0,0,.06.54,2.46,2.46,0,0,0,.15.51,2.77,2.77,0,0,0,.26.48,2.18,2.18,0,0,0,.34.4,2.86,2.86,0,0,0,.42.36c.15.09.31.17.47.25a3.13,3.13,0,0,0,.52.16,4.53,4.53,0,0,0,.53,0A4.93,4.93,0,0,0,36.26,115.36Zm33,0a2.76,2.76,0,0,0,.51-.16,5.39,5.39,0,0,0,.48-.25,2.86,2.86,0,0,0,.42-.36,2.66,2.66,0,0,0,.34-.4,2.73,2.73,0,0,0,.25-.48,3.33,3.33,0,0,0,.16-.51,2.53,2.53,0,0,0,0-.54,2.41,2.41,0,0,0,0-.54,3.33,3.33,0,0,0-.16-.51,3.13,3.13,0,0,0-.25-.48,4.46,4.46,0,0,0-.34-.42,2.65,2.65,0,0,0-.42-.33,2.81,2.81,0,0,0-1-.42,3.2,3.2,0,0,0-1.07,0,2.62,2.62,0,0,0-1,.42,2.65,2.65,0,0,0-.42.33,2.81,2.81,0,0,0-.8,2,3.39,3.39,0,0,0,0,.54,3.33,3.33,0,0,0,.16.51,2.73,2.73,0,0,0,.25.48,2.66,2.66,0,0,0,.34.4,2.86,2.86,0,0,0,.42.36c.15.09.31.17.47.25a3.13,3.13,0,0,0,.52.16,4.75,4.75,0,0,0,.53,0A4.93,4.93,0,0,0,69.23,115.36Zm-16.49-5.5a2.4,2.4,0,0,0,.52-.16,4.23,4.23,0,0,0,.47-.25,3.47,3.47,0,0,0,.42-.34,3.29,3.29,0,0,0,.34-.42,2.19,2.19,0,0,0,.25-.48,2.32,2.32,0,0,0,.16-.51,2.39,2.39,0,0,0,.06-.53,2.57,2.57,0,0,0-.06-.55,2.24,2.24,0,0,0-.16-.5,2.52,2.52,0,0,0-.25-.49,2.18,2.18,0,0,0-.34-.4,2.3,2.3,0,0,0-.42-.35,4.31,4.31,0,0,0-.47-.26,3.13,3.13,0,0,0-.52-.16,2.76,2.76,0,0,0-2.47.77,2.23,2.23,0,0,0-.35.4,3.32,3.32,0,0,0-.41,1,3.41,3.41,0,0,0,0,.55,3.17,3.17,0,0,0,0,.53,3,3,0,0,0,.16.51,2.73,2.73,0,0,0,.25.48,3.39,3.39,0,0,0,.35.42,2.73,2.73,0,0,0,1.94.8A2.32,2.32,0,0,0,52.74,109.86ZM38.47,76.94H33v27.48h5.5Zm16.49,0h-5.5v22H55Zm16.48,0H66v27.48h5.49Z"/></g></g></svg>