<svg xmlns="http://www.w3.org/2000/svg" viewBox="0 0 115.41 104.42"><defs><style>.cls-1{fill:#fff;}</style></defs><title>poco-nuboso-nieblaAsset 39</title><g id="Layer_2" data-name="Layer 2"><g id="piscina2"><path class="cls-1" d="M76.94,11h-5.5V0h5.5Zm27.48,27.48V44h11V38.47ZM105.28,14l-3.89-3.89L93.62,17.9l3.88,3.89Zm-.86,54.67A19.26,19.26,0,0,1,85.18,87.93H82.43v-5.5h2.75a13.74,13.74,0,1,0,0-27.47H71.44V52.21A24.73,24.73,0,0,0,22.11,49.7a19.25,19.25,0,0,1,16.36,19v2.75H33V68.69A13.74,13.74,0,1,0,19.23,82.43H22v5.5H19.23A19.23,19.23,0,0,1,16.6,49.66a30.21,30.21,0,0,1,40.15-26A24.72,24.72,0,0,1,96,52.82,19.23,19.23,0,0,1,104.42,68.69ZM85.18,49.46a18.89,18.89,0,0,1,5.9.94A19.23,19.23,0,0,0,62.14,26.23,30.3,30.3,0,0,1,76.81,49.46ZM76.94,76.94H27.48v5.49H76.94Zm-5.5,11h-44v5.49h44ZM22,98.92H0v5.5H22Zm44,0H27.48v5.5H66Z"/></g></g></svg>