<svg xmlns="http://www.w3.org/2000/svg" viewBox="0 0 115.41 105.35"><defs><style>.cls-1{fill:#fff;}</style></defs><title>poco-nuboso-lluviaAsset 32</title><g id="Layer_2" data-name="Layer 2"><g id="piscina2"><rect class="cls-1" x="71.44" width="5.5" height="10.99"/><rect class="cls-1" x="104.41" y="38.47" width="10.99" height="5.5"/><rect class="cls-1" x="93.95" y="13.21" width="10.99" height="5.5" transform="translate(17.84 74.99) rotate(-45)"/><path class="cls-1" d="M96,52.82A24.72,24.72,0,0,0,56.75,23.7a30.21,30.21,0,0,0-40.15,26,19.23,19.23,0,0,0,2.63,38.27H22v-5.5H19.23A13.74,13.74,0,1,1,33,68.69v2.75h5.5V68.69a19.25,19.25,0,0,0-16.36-19,24.73,24.73,0,0,1,49.33,2.51V55H85.18a13.74,13.74,0,1,1,0,27.47H82.43v5.5h2.75A19.22,19.22,0,0,0,96,52.82ZM76.81,49.46A30.3,30.3,0,0,0,62.14,26.23,19.23,19.23,0,0,1,91.08,50.4a18.89,18.89,0,0,0-5.9-.94Z"/><rect class="cls-1" x="31.28" y="79.69" width="11.64" height="5.5" transform="translate(-53.22 78.74) rotate(-63.43)"/><rect class="cls-1" x="31.27" y="96.17" width="11.64" height="5.5" transform="translate(-67.97 87.85) rotate(-63.43)"/><rect class="cls-1" x="47.76" y="79.69" width="11.64" height="5.5" transform="translate(-44.11 93.48) rotate(-63.43)"/><rect class="cls-1" x="47.76" y="96.17" width="11.64" height="5.5" transform="translate(-58.86 102.6) rotate(-63.43)"/><rect class="cls-1" x="64.25" y="79.69" width="11.64" height="5.5" transform="translate(-35 108.23) rotate(-63.43)"/><rect class="cls-1" x="64.25" y="96.17" width="11.64" height="5.5" transform="translate(-49.75 117.34) rotate(-63.43)"/></g></g></svg>