<svg xmlns="http://www.w3.org/2000/svg" viewBox="0 0 109.91 109.91"><defs><style>.cls-1{fill:#fff;}</style></defs><title>soleadoAsset 28</title><g id="Layer_2" data-name="Layer 2"><g id="piscina2"><path class="cls-1" d="M57.7,16.49H52.21V0H57.7Zm-28,9.32L18,14.15,14.15,18,25.81,29.7ZM16.49,52.21H0V57.7H16.49ZM29.7,84.1l-3.89-3.89L14.15,91.87,18,95.76Zm28,9.32H52.21v16.49H57.7Zm38.06-1.55L84.1,80.21,80.21,84.1,91.87,95.76Zm14.15-39.66H93.42V57.7h16.49ZM95.76,18l-3.89-3.89L80.21,25.81,84.1,29.7ZM82.43,55A27.48,27.48,0,1,0,55,82.43,27.5,27.5,0,0,0,82.43,55Zm-5.49,0A22,22,0,1,1,55,33,22,22,0,0,1,76.94,55Z"/></g></g></svg>