<svg xmlns="http://www.w3.org/2000/svg" viewBox="0 0 57.75 45.16"><defs><style>.cls-1{fill:#99b6cb;}</style></defs><title>vientoAsset 14</title><g id="Layer_2" data-name="Layer 2"><g id="Layer_1-2" data-name="Layer 1"><path class="cls-1" d="M49.5,8.21a8.21,8.21,0,1,1,0,16.42H2.23a2.05,2.05,0,1,1,0-4.1H49.5a4.11,4.11,0,1,0-4.12-4.11,2.07,2.07,0,0,1-4.13,0A8.24,8.24,0,0,1,49.5,8.21M28.88,0a8.24,8.24,0,0,0-8.26,8.21,2.07,2.07,0,0,0,4.13,0,4.13,4.13,0,1,1,4.13,4.11H2.06a2.05,2.05,0,1,0,0,4.1H28.88A8.21,8.21,0,1,0,28.88,0m0,28.74H2.06a2.06,2.06,0,1,0,0,4.11H28.88A4.11,4.11,0,1,1,24.75,37a2.07,2.07,0,0,0-4.13,0,8.25,8.25,0,1,0,8.26-8.21"/></g></g></svg>