<svg xmlns="http://www.w3.org/2000/svg" viewBox="0 0 1920 704.01"><defs><style>.cls-1{isolation:isolate;}.cls-2{fill:#00587c;opacity:0;mix-blend-mode:multiply;}.cls-3{fill:none;stroke:#fff;}.cls-3,.cls-4{stroke-width:3px;}.cls-4,.cls-5{fill:#d6001c;}.cls-4{stroke:#99b6cb;}.cls-5{font-size:25px;font-family:Lato-Black, Lato;letter-spacing:0.07em;}</style></defs><title>gAsset 69</title><g class="cls-1"><g id="Layer_2" data-name="Layer 2"><g id="piscina4"><path class="cls-2" d="M853.77,263.59,365.91,702.51H1918.5V419.3Z"/><path class="cls-3" d="M853.77,263.59,365.91,702.51H1918.5V419.3Z"/><path class="cls-4" d="M984,503a12.5,12.5,0,1,0-12.5-12.5A12.52,12.52,0,0,0,984,503"/><text class="cls-5" transform="translate(854.07 546.63)">SWIMMING POOL 4</text></g><g id="piscina3"><path class="cls-2" d="M814.15,206.93,125.52,702.51H1.5V123.17l100.58-25.6Z"/><path class="cls-3" d="M814.15,206.93,125.52,702.51H1.5V123.17l100.58-25.6Z"/><path class="cls-4" d="M344,310.51A12.5,12.5,0,1,0,331.5,298a12.52,12.52,0,0,0,12.5,12.5"/><text class="cls-5" transform="translate(216.07 354.13)">SWIMMING POOL 3</text></g><g id="piscina2"><polygon class="cls-2" points="868 244.01 1082 72.01 1920 132.01 1920 402.01 868 244.01"/><path class="cls-3" d="M871.61,243,1082.48,73.55l836,59.85V400.27Z"/><path class="cls-4" d="M1176,182.51a12.5,12.5,0,1,0-12.5-12.5,12.52,12.52,0,0,0,12.5,12.5"/><text class="cls-5" transform="translate(1046.06 226.13)">SWIMMING POOL 2</text></g><g id="piscina1"><path class="cls-2" d="M839.6,190.43,1073.92,15.18,904.59,1.5l-560.36,28L127.55,85.6Z"/><path class="cls-3" d="M839.6,190.43,1073.92,15.18,904.59,1.5l-560.36,28L127.55,85.6Z"/><path class="cls-4" d="M724.59,85.24a12.5,12.5,0,1,0-12.5-12.5,12.52,12.52,0,0,0,12.5,12.5"/><text class="cls-5" transform="translate(594 128.86)">SWIMMING POOL 1</text></g></g></g></svg>
