<svg xmlns="http://www.w3.org/2000/svg" viewBox="0 0 38.9 177.34"><defs><style>.cls-1{fill:#fff;}</style></defs><title>termometroAsset 66</title><g id="Layer_2" data-name="Layer 2"><g id="Layer_1-2" data-name="Layer 1"><path class="cls-1" d="M19.45,177.34C8.72,177.34,0,168.12,0,156.78a20.76,20.76,0,0,1,8.3-16.84V11.72C8.3,5.26,13.3,0,19.45,0S30.6,5.26,30.6,11.72V139.94a20.76,20.76,0,0,1,8.3,16.84C38.9,168.12,30.17,177.34,19.45,177.34Zm0-172.44a6.57,6.57,0,0,0-6.26,6.82V142.58l-1.13.72A16,16,0,0,0,4.9,156.78c0,8.64,6.52,15.66,14.55,15.66S34,165.42,34,156.78a16,16,0,0,0-7.16-13.48l-1.13-.72V11.72A6.57,6.57,0,0,0,19.45,4.9Zm0,162.22a9.65,9.65,0,0,1,0-19.3,9.65,9.65,0,0,1,0,19.3Zm0-14.4a4.76,4.76,0,0,0,0,9.5,4.76,4.76,0,0,0,0-9.5Z"/></g></g></svg>