<svg xmlns="http://www.w3.org/2000/svg" viewBox="0 0 49.14 49.5"><defs><style>.cls-1{fill:#f90022;}</style></defs><title>360 barco sin sombraRecurso 11</title><g id="Capa_2" data-name="Capa 2"><g id="Layer_1" data-name="Layer 1"><path class="cls-1" d="M45.39,33.09A22.25,22.25,0,1,1,24.75,2.5c6,0,10.49,1.42,14,4.54l-4-.64-.39,2.47,8.9,1.42.77-9L41.56,1.1l-.41,4.76C37.07,1.83,31.89,0,24.75,0a24.75,24.75,0,1,0,23,34Z"/><path class="cls-1" d="M13.44,16.23a5.68,5.68,0,0,1,1.81.28,4.28,4.28,0,0,1,1.37.79,3.65,3.65,0,0,1,.88,1.19A3.58,3.58,0,0,1,17.8,20a4.35,4.35,0,0,1-.15,1.21,3.16,3.16,0,0,1-.45.92,2.83,2.83,0,0,1-.72.66,4.56,4.56,0,0,1-1,.45,3.76,3.76,0,0,1,1.94,1.25,3.35,3.35,0,0,1,.64,2.11,4.29,4.29,0,0,1-.4,1.91,4,4,0,0,1-1.08,1.39,4.61,4.61,0,0,1-1.57.86,6.24,6.24,0,0,1-1.9.29,6.39,6.39,0,0,1-1.9-.25A4.13,4.13,0,0,1,9.83,30a4.57,4.57,0,0,1-1-1.2,8,8,0,0,1-.72-1.64l1.09-.45a1.46,1.46,0,0,1,.57-.12,1,1,0,0,1,.47.11.74.74,0,0,1,.31.32c.12.23.25.46.4.69a2.46,2.46,0,0,0,.51.6,2.21,2.21,0,0,0,.71.43,2.53,2.53,0,0,0,1,.17,2.67,2.67,0,0,0,1.1-.21,2.23,2.23,0,0,0,1.41-2.08,4,4,0,0,0-.11-.95,1.34,1.34,0,0,0-.46-.72,2.45,2.45,0,0,0-1-.47,7.51,7.51,0,0,0-1.76-.17V22.56a5.81,5.81,0,0,0,1.51-.16,2.68,2.68,0,0,0,1-.45,1.49,1.49,0,0,0,.49-.68,2.75,2.75,0,0,0,.14-.88,2,2,0,0,0-.56-1.56,2.13,2.13,0,0,0-1.53-.52,2.28,2.28,0,0,0-1.46.46A2.45,2.45,0,0,0,11,20a1.09,1.09,0,0,1-.33.54.86.86,0,0,1-.55.17l-.34,0-1.3-.23a5.62,5.62,0,0,1,.58-1.83,4.44,4.44,0,0,1,1.08-1.3,4.14,4.14,0,0,1,1.48-.79A5.74,5.74,0,0,1,13.44,16.23Z"/><path class="cls-1" d="M25.49,21.82a4.84,4.84,0,0,1,1.6.27,3.78,3.78,0,0,1,1.36.82,4.05,4.05,0,0,1,.95,1.35,4.62,4.62,0,0,1,.36,1.89A4.79,4.79,0,0,1,29.39,28a4.55,4.55,0,0,1-1,1.55,4.71,4.71,0,0,1-1.61,1,5.63,5.63,0,0,1-2.09.38,5.47,5.47,0,0,1-2.08-.37,4.49,4.49,0,0,1-1.57-1A4.42,4.42,0,0,1,20,28a5.91,5.91,0,0,1-.35-2.07,5.78,5.78,0,0,1,.42-2.1,9.23,9.23,0,0,1,1.28-2.23L24.81,17a1.42,1.42,0,0,1,.53-.41,1.8,1.8,0,0,1,.79-.17h2.2L24,21.64l-.26.32a3.76,3.76,0,0,0-.25.31,4.26,4.26,0,0,1,.91-.33A4.32,4.32,0,0,1,25.49,21.82ZM22,26.31a3.48,3.48,0,0,0,.17,1.1,2.27,2.27,0,0,0,.49.84,2.06,2.06,0,0,0,.8.54,3.12,3.12,0,0,0,2.2,0,2.47,2.47,0,0,0,.85-.56,2.71,2.71,0,0,0,.75-1.9,3.06,3.06,0,0,0-.19-1.12,2.29,2.29,0,0,0-.54-.84,2.25,2.25,0,0,0-.84-.52,3.1,3.1,0,0,0-1.08-.18,2.83,2.83,0,0,0-1.07.2,2.39,2.39,0,0,0-1.35,1.39A2.84,2.84,0,0,0,22,26.31Z"/><path class="cls-1" d="M41.49,23.62a12,12,0,0,1-.4,3.29A7,7,0,0,1,40,29.21a4.44,4.44,0,0,1-1.69,1.35,5,5,0,0,1-2.11.45,4.87,4.87,0,0,1-2.09-.45,4.34,4.34,0,0,1-1.68-1.35,6.94,6.94,0,0,1-1.11-2.3,12,12,0,0,1-.4-3.29,11.85,11.85,0,0,1,.4-3.29A6.85,6.85,0,0,1,32.4,18a4.46,4.46,0,0,1,1.68-1.36,5,5,0,0,1,2.09-.44,5.14,5.14,0,0,1,2.11.44A4.57,4.57,0,0,1,40,18a6.86,6.86,0,0,1,1.12,2.3A11.85,11.85,0,0,1,41.49,23.62Zm-2.55,0a12.45,12.45,0,0,0-.23-2.6,5.32,5.32,0,0,0-.61-1.64,2.34,2.34,0,0,0-.89-.86,2.37,2.37,0,0,0-1-.24,2.31,2.31,0,0,0-1,.24,2.25,2.25,0,0,0-.88.86,5.33,5.33,0,0,0-.6,1.64,12.45,12.45,0,0,0-.23,2.6,12.45,12.45,0,0,0,.23,2.6,5.33,5.33,0,0,0,.6,1.64,2.15,2.15,0,0,0,.88.85,2.2,2.2,0,0,0,1,.25,2.21,2.21,0,0,0,1.93-1.1,5.32,5.32,0,0,0,.61-1.64A12.45,12.45,0,0,0,38.94,23.62Z"/><path class="cls-1" d="M45.89,16.21a3.73,3.73,0,0,1,1.32.22,3,3,0,0,1,1,.62,2.94,2.94,0,0,1,.67,1,3.65,3.65,0,0,1,.23,1.32,3.71,3.71,0,0,1-.23,1.33,2.75,2.75,0,0,1-.67,1,2.94,2.94,0,0,1-1,.64,3.73,3.73,0,0,1-1.32.22,3.81,3.81,0,0,1-1.34-.22,2.89,2.89,0,0,1-1-.64,2.75,2.75,0,0,1-.67-1,3.5,3.5,0,0,1-.24-1.33A3.45,3.45,0,0,1,42.84,18a2.94,2.94,0,0,1,.67-1,3,3,0,0,1,1-.62A3.81,3.81,0,0,1,45.89,16.21Zm0,4.91a1.17,1.17,0,0,0,1-.43,2.2,2.2,0,0,0,.32-1.31,2.2,2.2,0,0,0-.32-1.31,1.19,1.19,0,0,0-1-.42,1.21,1.21,0,0,0-1,.42,2.12,2.12,0,0,0-.33,1.31,2.12,2.12,0,0,0,.33,1.31A1.19,1.19,0,0,0,45.89,21.12Z"/></g></g></svg>