<svg xmlns="http://www.w3.org/2000/svg" viewBox="0 0 40 40"><defs><style>.cls-1{fill:#9bb4ca;}</style></defs><title>3Recurso 4</title><g id="Capa_2" data-name="Capa 2"><g id="Layer_1" data-name="Layer 1"><path class="cls-1" d="M20,2.74A17.27,17.27,0,1,1,2.74,20,17.28,17.28,0,0,1,20,2.74M20,40A20,20,0,1,0,0,20,20,20,0,0,0,20,40"/><path class="cls-1" d="M17.32,28.57a1.37,1.37,0,1,0,1.93-1.94L14,21.37H29.22a1.37,1.37,0,0,0,0-2.74H14l5.26-5.26a1.38,1.38,0,0,0-1-2.34,1.33,1.33,0,0,0-1,.41L9.72,19a1.37,1.37,0,0,0-.4,1,1.35,1.35,0,0,0,.4,1Z"/></g></g></svg>