<svg xmlns="http://www.w3.org/2000/svg" viewBox="0 0 75.98 46.32"><defs><style>.cls-1{fill:#00587c;}</style></defs><title>barco azuloscuroRecurso 34</title><g id="Capa_2" data-name="Capa 2"><g id="Layer_1" data-name="Layer 1"><path class="cls-1" d="M62.21,39.91a9.61,9.61,0,0,1-12.94-.23,3.67,3.67,0,0,0-4.67,0,9.65,9.65,0,0,1-13.22,0,3.65,3.65,0,0,0-4.66,0,10.12,10.12,0,0,1-6.61,2.62,10.12,10.12,0,0,1-6.61-2.62,3.67,3.67,0,0,0-4.67,0,11.92,11.92,0,0,1-1.44,1.07L9.11,25.59h61ZM18,17.85H47.69l.33,0,2.87,3.74H17.62ZM18.68,12H43.52L45,13.83H18.47Zm4.47-8h14A4.64,4.64,0,0,1,41.92,8H23.15ZM73.76,42.3a10.11,10.11,0,0,1-6.5-2.52l8.49-15.3a1.83,1.83,0,0,0-.1-1.95,2.28,2.28,0,0,0-1.89-1H56.31L46.51,8.81l-.11-.13V8.35C46.4,3.75,42.25,0,37.15,0H16.52A2.12,2.12,0,0,0,14.3,2a2.12,2.12,0,0,0,2.22,2h2.17V8h-2a2.15,2.15,0,0,0-2.21,1.81l-1.3,11.81H9.09a4.27,4.27,0,0,0-4.41,3.62l-.87,7.68H2.23a2,2,0,1,0,0,4H3.35l-.41,3.59v0a3.69,3.69,0,0,0,.25,1.74,7.73,7.73,0,0,1-1,.06,2,2,0,1,0,0,4,14.57,14.57,0,0,0,8.94-3.13,14.33,14.33,0,0,0,17.88,0,14.35,14.35,0,0,0,17.88,0,14.37,14.37,0,0,0,17.88,0,14.62,14.62,0,0,0,9,3.12,2,2,0,1,0,0-4"/></g></g></svg>