<svg version="1.1" id="Layer_1" xmlns="http://www.w3.org/2000/svg" xmlns:xlink="http://www.w3.org/1999/xlink" x="0px" y="0px"
	 viewBox="0 0 97 94.6" style="enable-background:new 0 0 97 94.6;" xml:space="preserve">
<style type="text/css">
	.botella-suelta{fill:#A0B5C9;}
</style>
<g id="Layer_botella_suelta">
	<g id="botella-flotando">
		<path id="botella-flotando-dato2" class="botella-suelta" d="M67.4,55.1c-0.1,0.1-0.2,0.1-0.2,0L51.1,39c0,0,0-0.1,0-0.1c0,0,0-0.1,0-0.1
			l3.7-3.7c0.1-0.1,0.2-0.1,0.2,0l16.1,16.1c0.1,0.1,0.1,0.2,0,0.2L67.4,55.1z M58.4,57.4L46.3,45.2c-0.2-0.2-0.3-0.3-0.5-0.4
			c-0.1-0.1-0.1-0.2-0.2-0.3c-0.1-0.1-0.1-0.2,0-0.2l3.7-3.7c0.1-0.1,0.2-0.1,0.2,0l14.3,14.3C61.7,55.1,59.8,56,58.4,57.4
			 M53.8,59.7c-2.2,0-3.2-0.9-4.5-2.1c-3-3.3-8.2-3.6-11.5-0.6c-0.2,0.2-0.4,0.4-0.6,0.6c-1.3,1.2-2.3,2.1-4.5,2.1
			c-0.8,0-1.5-0.1-2.2-0.4l12.4-12.4c0.5-0.5,1.2-0.5,1.7,0c0,0,0,0,0,0l12,12C55.8,59.5,54.7,59.7,53.8,59.7 M57.3,32.4L57.3,32.4
			c2.3-2.3,5.2-3.5,8.3-3.5c1.3,0,2.6,0.2,3.8,0.6c0.4,0.2,0.9,0,1.2-0.3l3.2-3.1l6.2,6.2l-3.2,3.1c-0.3,0.3-0.4,0.8-0.3,1.2
			c1.4,4.2,0.4,8.8-2.7,12l-0.1,0.1c-0.5,0.5-1.2,0.5-1.7,0L57.3,34.2c-0.2-0.2-0.3-0.5-0.3-0.8C57,33,57.1,32.7,57.3,32.4
			 M77.8,18.5l2.2,2.1l-4.2,4.2l-2.1-2.1L77.8,18.5z M83.8,24.5l-4.2,4.2l-2.1-2.1l4.2-4.2L83.8,24.5z M87.6,28.3l-4.3,4.1l-2.1-2.1
			l4.2-4.2L87.6,28.3z M95.9,59.8c-2.2,0-3.2-0.9-4.5-2.1c-3-3.3-8.2-3.6-11.5-0.6c-0.2,0.2-0.4,0.4-0.6,0.6c-1.3,1.1-2.3,2-4.5,2
			s-3.2-0.9-4.5-2.1c-0.3-0.3-0.7-0.7-1.1-1l3.6-3.5c0.4-0.4,0.7-1,0.7-1.6c0.7-0.1,1.4-0.5,1.9-1l0.1-0.1c3.6-3.6,4.9-8.8,3.5-13.7
			l2.6-2.6l0.8,0.8c0.5,0.5,1.2,0.5,1.7,0L90,29c0.5-0.5,0.5-1.2,0-1.7c0,0,0,0,0,0l-7.6-7.6l0,0l-3.8-3.8c-0.5-0.5-1.2-0.5-1.7,0
			c0,0,0,0,0,0L71,21.8c-0.5,0.5-0.5,1.2,0,1.7c0,0,0,0,0,0l1.1,1.1l-2.6,2.6c-4.9-1.4-10.1,0-13.7,3.5l-0.1,0.1
			c-0.5,0.5-0.9,1.2-1,1.9c-0.6,0-1.2,0.3-1.6,0.7l-3.7,3.7c-0.3,0.3-0.6,0.8-0.7,1.2c-0.5,0.1-0.9,0.3-1.2,0.7l-3.7,3.7
			c-0.4,0.4-0.7,1-0.7,1.6c-0.7,0.1-1.4,0.5-1.9,1L28.6,57.9l-0.3-0.3c-3-3.3-8.2-3.6-11.5-0.6c-0.2,0.2-0.4,0.4-0.6,0.6
			c-1.3,1.2-2.3,2.1-4.5,2.1s-3.2-0.9-4.5-2.1c-1.5-1.7-3.7-2.7-6.1-2.7C0.5,54.9,0,55.3-0.1,56s0.4,1.2,1.1,1.3c0.1,0,0.1,0,0.2,0
			c2.2,0,3.2,0.9,4.5,2.1c3,3.3,8.1,3.6,11.5,0.6c0.2-0.2,0.4-0.4,0.6-0.6c1.3-1.2,2.3-2.1,4.5-2.1s3.2,0.9,4.5,2.1
			c3,3.3,8.1,3.6,11.5,0.6c0.2-0.2,0.4-0.4,0.6-0.6c1.3-1.2,2.3-2.1,4.5-2.1s3.2,0.9,4.5,2.1c3,3.3,8.1,3.6,11.5,0.6
			c0.2-0.2,0.4-0.4,0.6-0.6c1.3-1.2,2.3-2.1,4.5-2.1c2.2,0,3.2,0.9,4.5,2.1c3,3.3,8.1,3.6,11.5,0.6c0.2-0.2,0.4-0.4,0.6-0.6
			c1.3-1.2,2.3-2.1,4.5-2.1s3.2,0.9,4.5,2.1c1.5,1.7,3.7,2.7,6,2.7c0.6,0.1,1.2-0.4,1.3-1.1c0.1-0.6-0.4-1.2-1.1-1.3
			C95.9,59.7,95.8,59.7,95.9,59.8 M43.8,73.5c-2.3,0-4.5,1-6,2.7c-1.3,1.2-2.3,2.1-4.5,2.1s-3.2-0.9-4.5-2.1
			c-3-3.3-8.1-3.6-11.5-0.6c-0.2,0.2-0.4,0.4-0.6,0.6c-0.9,1-2.1,1.7-3.4,2c-0.6,0.1-1,0.6-1,1.2c0,0.7,0.5,1.2,1.2,1.2
			c0.1,0,0.1,0,0.2,0c1.8-0.3,3.4-1.2,4.7-2.5c1.3-1.2,2.3-2.1,4.5-2.1s3.2,0.9,4.5,2.1c3,3.3,8.1,3.6,11.5,0.6
			c0.2-0.2,0.4-0.4,0.6-0.6c1.3-1.2,2.3-2.1,4.4-2.1c0.6,0,1.1-0.4,1.2-1c0.1-0.6-0.4-1.2-1-1.3C43.9,73.6,43.9,73.6,43.8,73.5
			 M90.7,87.4c-2.3,0-4.5,1-6.1,2.7c-1.3,1.2-2.3,2.1-4.5,2.1s-3.2-0.9-4.5-2.1c-3-3.3-8.1-3.6-11.5-0.6c-0.2,0.2-0.4,0.4-0.6,0.6
			c-0.9,1-2.1,1.7-3.5,2c-0.6,0.1-1.1,0.7-1,1.3c0.1,0.6,0.7,1.1,1.3,1l0,0c1.8-0.3,3.4-1.3,4.7-2.6c1.3-1.2,2.3-2.1,4.5-2.1
			s3.2,0.9,4.5,2.1c3,3.3,8.1,3.6,11.5,0.6c0.2-0.2,0.4-0.4,0.6-0.6c1.3-1.2,2.3-2.1,4.4-2.1c0.6,0,1.1-0.4,1.2-1
			c0.1-0.6-0.4-1.2-1-1.3C90.8,87.4,90.7,87.4,90.7,87.4 M20.7,12.7c3.7,0,6.8,3,6.8,6.8s-3,6.8-6.8,6.8s-6.8-3-6.8-6.8
			C13.9,15.7,16.9,12.7,20.7,12.7 M20.7,28.6c5,0,9.1-4.1,9.1-9.1s-4.1-9.1-9.1-9.1s-9.1,4.1-9.1,9.1c0,0,0,0,0,0
			C11.6,24.5,15.6,28.6,20.7,28.6 M20.7,7.3c0.7,0,1.2-0.5,1.2-1.2l0,0V1.2c0.1-0.6-0.4-1.2-1.1-1.3S19.6,0.3,19.5,1
			c0,0.1,0,0.1,0,0.2v4.9C19.5,6.7,20,7.2,20.7,7.3C20.7,7.2,20.7,7.2,20.7,7.3 M19.5,32.8v4.9c0.1,0.6,0.6,1.1,1.3,1.1
			c0.6-0.1,1-0.5,1.1-1.1v-4.9c-0.1-0.6-0.6-1.1-1.3-1.1C20,31.8,19.6,32.2,19.5,32.8 M32.9,19.4c0,0.6,0.5,1.2,1.2,1.2c0,0,0,0,0,0
			H39c0.6,0.1,1.2-0.4,1.3-1.1c0.1-0.6-0.4-1.2-1.1-1.3c-0.1,0-0.1,0-0.2,0h-4.9C33.4,18.3,32.9,18.8,32.9,19.4L32.9,19.4 M2.4,20.6
			h4.9C8,20.6,8.5,20,8.4,19.3c-0.1-0.6-0.5-1-1.1-1.1H2.4c-0.6,0.1-1.1,0.6-1.1,1.3C1.4,20.1,1.9,20.6,2.4,20.6 M10.4,10.8
			c0.5,0.5,1.2,0.5,1.7,0c0.5-0.5,0.5-1.2,0-1.7c0,0,0,0,0,0L8.6,5.7C8.2,5.3,7.5,5.3,7,5.7C6.5,6.2,6.5,6.9,7,7.4c0,0,0,0,0,0
			L10.4,10.8z M29.3,28.1c-0.5,0.5-0.5,1.2,0,1.7c0,0,0,0,0,0l3.5,3.5c0.4,0.5,1.2,0.5,1.7,0.1c0.5-0.4,0.5-1.2,0.1-1.7
			c0,0-0.1-0.1-0.1-0.1L31,28.1C30.5,27.6,29.8,27.6,29.3,28.1C29.3,28.1,29.3,28.1,29.3,28.1 M30.2,11.2c0.3,0,0.6-0.1,0.8-0.3
			l3.5-3.5c0.5-0.5,0.5-1.2,0-1.7c-0.5-0.5-1.2-0.5-1.7,0l-3.5,3.5c-0.5,0.5-0.5,1.2,0,1.7c0,0,0,0,0,0C29.5,11,29.8,11.2,30.2,11.2
			 M10.4,28.1L7,31.5c-0.5,0.5-0.5,1.2,0,1.7s1.2,0.5,1.7,0l3.5-3.5c0.5-0.5,0.5-1.2,0-1.7S10.9,27.6,10.4,28.1"/>
	</g>
</g>
</svg>
