<svg xmlns="http://www.w3.org/2000/svg" viewBox="0 0 68.34 68"><defs><style>.cls-1{fill:#fff;}.cls-2{fill:none;}</style></defs><title>crancAsset 1</title><g id="Layer_2" data-name="Layer 2"><g id="Capa_1" data-name="Capa 1"><path class="cls-1" d="M59.58,39.53H48.73l-2-3.54,5.6-5.6V23.22l.93-.94a11.85,11.85,0,0,0,0-16.75L50.4,2.7,47.57,5.53A11.9,11.9,0,0,0,45.66,8a12,12,0,0,0-3.11-.41h-4v4a11.85,11.85,0,0,0,9.74,11.65v5.49l-3.67,3.67-2.7-4.67H40V24H36v3.72H31.94V24h-4v3.72H26l-2.69,4.67-3.67-3.67V23.25A11.85,11.85,0,0,0,29.38,11.6v-4h-4A11.9,11.9,0,0,0,22.27,8a12.25,12.25,0,0,0-1.91-2.48L17.53,2.7,14.7,5.53a11.85,11.85,0,0,0,0,16.75l.94.94v7.17l5.6,5.6-2,3.54H8.34L1.87,46v8h4V47.66L10,43.53h9.19l4.51,7.85H15L8.53,57.89v8h4V59.54l4.14-4.16H51.26l4.13,4.16v6.32h4v-8l-6.47-6.51H44.23l4.5-7.85h9.19l4.14,4.13V54h4V46Zm-17-27.93a7.82,7.82,0,0,1,5.55,2.3,7.8,7.8,0,0,1,2.3-5.55,7.86,7.86,0,0,1,0,11.1A7.84,7.84,0,0,1,42.55,11.6Zm-25-3.25a7.85,7.85,0,0,1,2.3,5.55,7.82,7.82,0,0,1,5.55-2.3,7.85,7.85,0,0,1-7.85,7.85h0A7.86,7.86,0,0,1,17.53,8.35Zm22.08,43H28.31l-5.65-9.85,5.65-9.79H39.62l5.65,9.79Z"/><rect class="cls-2" width="68.34" height="68"/><rect class="cls-2" width="68.34" height="68"/></g></g></svg>