<svg xmlns="http://www.w3.org/2000/svg" viewBox="0 0 162.69 208.04"><defs><style>.cls-1{fill:#fff;}</style></defs><title>3Recurso 2</title><g id="Capa_2" data-name="Capa 2"><g id="Layer_1" data-name="Layer 1"><path class="cls-1" d="M112.18,199.18l-19.05.29A37.23,37.23,0,0,1,66,188.59L9.77,132.32a4.28,4.28,0,0,1,.09-6,10.67,10.67,0,0,1,13.83-1.16l34.77,25.08a4.26,4.26,0,0,0,4.46.29,4.43,4.43,0,0,0,2.39-3.85l1.36-90.9a8.12,8.12,0,0,1,8-7.91,7.53,7.53,0,0,1,7.67,7.69L81.8,91.08v.29l-.36,24.76a4.13,4.13,0,0,0,4.21,4.22A4.45,4.45,0,0,0,90,116l.37-25a8.14,8.14,0,0,1,8-7.71A7.71,7.71,0,0,1,106,91l-.19,11.91v.21l-.18,12.64a4.14,4.14,0,0,0,4.22,4.22,4.44,4.44,0,0,0,4.34-4.35l.19-12.78a8.13,8.13,0,0,1,8-7.77,7.7,7.7,0,0,1,7.68,7.67l-.22,12.67v0h0c0,.07,0,.05,0,0h0a4.13,4.13,0,0,0,4.23,4.08,4.45,4.45,0,0,0,4.33-4.35v-.73a8.14,8.14,0,0,1,8-7.72,7.83,7.83,0,0,1,7.68,7.48l-3,47.63a39.91,39.91,0,0,1-39,37.25m47.55-37,3-47.83A16.11,16.11,0,0,0,146.5,98.26a16.33,16.33,0,0,0-8,2.2,16.09,16.09,0,0,0-16.09-13.95,16.53,16.53,0,0,0-8,2.18A16.11,16.11,0,0,0,98.4,74.75a16.74,16.74,0,0,0-7.82,2.1l.32-21.47A15.83,15.83,0,0,0,74.7,39.26,17,17,0,0,0,58.1,55.87l-1.23,82.47-28-20.18a19.3,19.3,0,0,0-25,2.14,12.88,12.88,0,0,0-.27,18.17l56.26,56.26A45.49,45.49,0,0,0,93,208l19-.29a48.81,48.81,0,0,0,47.67-45.54"/><path class="cls-1" d="M110.3,68.76A38,38,0,0,0,102.17,28c-14.81-14.81-39.27-14.44-54.52.81a39.3,39.3,0,0,0-9.36,41,4.34,4.34,0,0,0,1,1.5,4.23,4.23,0,0,0,4.53.91,4.42,4.42,0,0,0,2.58-5.56,30.54,30.54,0,0,1,7.26-31.9C65.48,22.91,84.5,22.63,96,34.14a29.58,29.58,0,0,1,6.31,31.7,4.17,4.17,0,0,0,2.41,5.49,4.42,4.42,0,0,0,5.56-2.57"/><path class="cls-1" d="M122.22,82.83c13-22,9.78-49.59-7.76-67.13C93.08-5.68,57.75-5.16,35.72,16.88,17.65,34.94,13.63,62.66,26,84.27a3.84,3.84,0,0,0,.66.87,4.21,4.21,0,0,0,5.16.6,4.36,4.36,0,0,0,1.65-5.88c-10.43-18.28-7-41.73,8.25-57,18.65-18.64,48.54-19.08,66.63-1,14.84,14.83,17.54,38.19,6.56,56.8a4.17,4.17,0,0,0,1.47,5.83,4.38,4.38,0,0,0,5.88-1.65"/></g></g></svg>