<svg xmlns="http://www.w3.org/2000/svg" viewBox="0 0 115.33 119.65"><defs><style>.cls-1{fill:#d6001c;}</style></defs><title>dedo-rojoAsset 1</title><g id="Layer_2" data-name="Layer 2"><g id="Layer_1-2" data-name="Layer 1"><path class="cls-1" d="M79.52,113.36l-13.5.21a26.36,26.36,0,0,1-19.21-7.72L6.93,66A3,3,0,0,1,7,61.68a7.56,7.56,0,0,1,9.8-.82L41.44,78.63a3,3,0,0,0,3.16.21,3.16,3.16,0,0,0,1.7-2.73l1-64.43a5.76,5.76,0,0,1,5.66-5.61,5.33,5.33,0,0,1,5.44,5.45L58,36.73a1.47,1.47,0,0,0,0,.21l-.26,17.55a2.93,2.93,0,0,0,3,3A3.16,3.16,0,0,0,63.8,54.4l.26-17.7a5.78,5.78,0,0,1,5.66-5.47,5.47,5.47,0,0,1,5.44,5.44L75,45.12a.75.75,0,0,0,0,.15l-.13,9a2.93,2.93,0,0,0,3,3A3.15,3.15,0,0,0,81,54.14l.13-9.07a5.78,5.78,0,0,1,5.67-5.5A5.46,5.46,0,0,1,92.21,45l-.15,9s0,0,0,0h0c0,.06,0,0,0,0h0a2.93,2.93,0,0,0,3,2.89,3.16,3.16,0,0,0,3.08-3.08v-.52a5.76,5.76,0,0,1,5.66-5.47,5.55,5.55,0,0,1,5.45,5.3L107.16,87a28.28,28.28,0,0,1-27.64,26.4m33.71-26.2,2.1-33.91a11.43,11.43,0,0,0-11.48-11.43,11.58,11.58,0,0,0-5.64,1.56A11.42,11.42,0,0,0,86.8,33.49,11.81,11.81,0,0,0,81.16,35a11.42,11.42,0,0,0-11.4-9.87,11.76,11.76,0,0,0-5.55,1.49l.23-15.22A11.22,11.22,0,0,0,53,0,12,12,0,0,0,41.19,11.77l-.88,58.47L20.48,55.93A13.68,13.68,0,0,0,2.76,57.45a9.12,9.12,0,0,0-.19,12.88l39.88,39.88a32.22,32.22,0,0,0,23.48,9.43l13.51-.2a34.59,34.59,0,0,0,33.79-32.28"/></g></g></svg>