<svg version="1.1" id="Layer_1" xmlns="http://www.w3.org/2000/svg" xmlns:xlink="http://www.w3.org/1999/xlink" x="0px" y="0px"
	 viewBox="0 0 48.1 77" style="enable-background:new 0 0 48.1 77;" xml:space="preserve">
<style type="text/css">
	.icono-preg-color{fill:#FFFFFF;}
</style>
<g id="Layer_pregunta">
	<g id="pacifico-norte">
		<path id="icono-pregunta" class="icono-preg-color" d="M46.6,77H1.5v-3h20.1C17.2,64.9,2.3,34.6,2,34C-3.4,21.7,2.3,7.4,14.6,2
			c3-1.3,6.2-2,9.4-2c13.4,0.1,24.2,11.1,24,24.6c0,3.3-0.7,6.5-2,9.4c-0.3,0.6-15.1,30.9-19.6,40h20.2V77z M24,3
			C12.3,3.1,2.9,12.8,3,24.5c0,2.8,0.6,5.6,1.8,8.3c0.3,0.7,12.1,24.6,19.3,39.3C31.2,57.4,43,33.5,43.3,32.8
			C48,22,43.1,9.4,32.3,4.8C29.7,3.6,26.9,3,24,3z M20.9,38.8c0.1,0.3,0.3,0.6,0.5,0.8c0.2,0.2,0.5,0.4,0.8,0.5
			c0.3,0.1,0.7,0.2,1,0.2c0.3,0,0.7-0.1,1-0.2c0.3-0.1,0.6-0.3,0.8-0.5c0.2-0.2,0.4-0.5,0.5-0.8c0.1-0.3,0.2-0.7,0.2-1
			c0-0.3-0.1-0.7-0.2-1c-0.1-0.3-0.3-0.6-0.5-0.8c-0.2-0.2-0.5-0.4-0.8-0.5c-0.3-0.1-0.7-0.2-1-0.2c-0.3,0-0.7,0.1-1,0.2
			c-0.3,0.1-0.6,0.3-0.8,0.5c-0.2,0.2-0.4,0.5-0.5,0.8c-0.1,0.3-0.2,0.7-0.2,1C20.7,38.2,20.8,38.5,20.9,38.8 M18.6,19.5
			c0.2,0.3,0.5,0.5,0.9,0.5c0.2,0,0.4-0.1,0.6-0.2c0.2-0.1,0.5-0.3,0.8-0.5c0.4-0.2,0.8-0.4,1.2-0.5c0.5-0.2,1.1-0.2,1.6-0.2
			c0.4,0,0.8,0.1,1.2,0.2c0.4,0.1,0.7,0.3,1,0.5c0.3,0.2,0.5,0.5,0.6,0.8c0.2,0.3,0.2,0.7,0.2,1.1c0,0.6-0.1,1.1-0.4,1.6
			c-0.2,0.5-0.6,0.9-0.9,1.2c-0.4,0.4-0.8,0.7-1.2,1c-0.4,0.3-0.8,0.6-1.2,0.9c-0.4,0.3-0.7,0.6-0.9,1c-0.3,0.4-0.4,0.8-0.4,1.3v0.1
			c0,0,0,0.1,0,0.1l0.3,2.8h2.9l0.4-2.5c0.1-0.4,0.2-0.7,0.5-1c0.3-0.3,0.6-0.6,1-0.9l1.3-1c0.5-0.4,0.9-0.8,1.2-1.2
			c0.4-0.5,0.7-1.1,1-1.6c0.3-0.7,0.4-1.5,0.4-2.2c0-0.8-0.1-1.6-0.5-2.4c-0.3-0.7-0.8-1.3-1.4-1.8c-0.6-0.5-1.3-0.9-2.1-1.2
			c-0.9-0.3-1.8-0.4-2.7-0.4c-0.7,0-1.3,0.1-2,0.2c-1.2,0.2-2.2,0.7-3.2,1.3c-0.4,0.3-0.9,0.6-1.3,1L18.6,19.5z"/>
	</g>
</g>
</svg>
