<svg xmlns="http://www.w3.org/2000/svg" viewBox="0 0 348.21 187.32"><defs><style>.cls-1{fill:none;stroke:#fff;stroke-linecap:round;stroke-linejoin:round;stroke-width:1.7px;}.cls-2{fill:#fff;}</style></defs><title>icono-arrastreroAsset 4</title><g id="Layer_2" data-name="Layer 2"><g id="Layer_1-2" data-name="Layer 1"><path class="cls-1" d="M226.2,148.4a21.37,21.37,0,0,1-5.86,25.44,52.4,52.4,0,0,1-28.27,12.49M237.49,149s4.56,6.6-.53,19.76-15,17.21-15,17.21m26.5-36.07s3.73,6.52.07,20C245,182.77,237.36,186,237.36,186M259.17,151s4,6.48.92,19.46c-2.72,11.62-8.8,15.36-8.8,15.36m18.62-33.66s4.14,6.42,1.78,18.92c-1.95,10.33-6.46,14.62-6.46,14.62m15.63-31s4.35,6.69,1.84,17.74c-2.11,9.29-7.58,13.43-7.58,13.43M292.21,158s4.15,6.12,1.5,15.73a22.54,22.54,0,0,1-8.3,12.2m18.52-23.52s3.56,4.47.79,12.63a21.32,21.32,0,0,1-9,10.8M316,167.23s2.6,2.42-.28,9.14c-2.64,6.17-10,9.57-10,9.57m21.29-16s2.62,2.44-.33,7.72c-2.86,5.12-11.42,8.26-11.42,8.26m22.09-14.1a5.36,5.36,0,0,1,.34,7.16c-3.11,4-11.38,6.68-11.38,6.68m-121.89.65s12-.3,23-.3h87.44c11.94,0,32.49-1,32.49-7.82m-155.29-5s40.25,2.25,53.69,3.69c16.32,1.76,53.7,3.1,67.17,3.7,12,.53,34.43-.13,34.43-2.4M214,161.18s27.19-.16,43.13,2.56c21.65,3.71,48.48,8.11,60.54,10.39s29.68,1.82,29.68,4.08m0,0c0-6.79-16.16-6.62-28.28-10S299,158.36,272,152.6c-18.44-3.93-61-4.68-61-4.68m4,11.69c5.9-9.74-8.94-17.48-13.07-7.45-3.82,9.27,8.36,12.93,21.23,17.05,22.54,7.22,21.19,14.91-14.86,17-41.57,2.41-41.66-12.06-25.42-12.36C196.54,173.59,208.82,169.81,215,159.61Zm-33.56,14.3a59.36,59.36,0,0,1-24.29-3.21A64.61,64.61,0,0,1,143,163.13s7.71,11.46,19.53,16.73c9.07,4,24.51,5.87,24.51,5.87m23.61-37.92-39.89-11.16,35.64,26M142.13,120l11.18,5.39m17.44,11.25L158,128.41m-35.09,6,10.55,13.83m3,4.66L143,163.13m15.44-36.25a2.78,2.78,0,1,1-2.78-2.76A2.76,2.76,0,0,1,158.43,126.88Zm-20.75,23.65a2.78,2.78,0,1,1-2.78-2.75A2.77,2.77,0,0,1,137.68,150.53ZM142.13,120l-11.62-6.1,3.87-7.27L146,112.73Zm-19.25,14.35-14-3.4,2.76-11.22,14,3.39Zm-9.26-14.13,13.67-61.85V104.6l4.65,6.63M109.56,56.71V47.66s-13.32,1.49-17.78,1.62C73.66,49.83,19.32,47,19.32,47S.76,44.49.85,44.49l10.62,14m94,2.9c5.12,0,5,2.3,10.3,2.3m-10.3-7.62c5.12,0,5,2.3,10.3,2.3M33.32,34.2h5.62V29.12H33.32Zm5.61-1.55V.85m-10.7,0V34.2L3.5,44.86M49.64,34.78V23.93H44.29V34.7ZM47,23.93V15.32m5.76,19.55L28.23,34.2v6.32l24.49.08Zm32-16.74V25M63.92,44.49V28.67h0l11.19,8-2.63,8M89.57,25h-4.9L81.22,44.81l8.27.08Zm12,2.5-12,13.15m37.75,17.78L101.58,27.45H89.49"/><path class="cls-1" d="M45.42,62c-.65,1.88-2.44,3-5.39,2.6a6.32,6.32,0,0,1-5.28-4.25c.24.86-1,4.57-5.74,4.88-2.78.17-4.33-1.59-5.08-3.91-.61,3-3.65,7.36-8.25,5.87a3.15,3.15,0,0,1-2.17-3.78c.78-4.43,7.06-6.63,11.74-7.4,18.81-3,41.77,11.47,59,11.47,5.36,0,10.2-2.64,10.42-6.46.18-3-2.17-6.35-7.32-6-1.59.11-4.79.91-4.74,4.12,0,2.11,2.24,3.54,4.47,3.5,4.7-.07,4-4.61.29-3.86"/><path class="cls-2" d="M53.53,53.44a1.2,1.2,0,1,0,1.2-1.19,1.19,1.19,0,0,0-1.2,1.19"/><path class="cls-2" d="M29.64,50.55a1.2,1.2,0,1,0,1.2-1.19,1.2,1.2,0,0,0-1.2,1.19"/><path class="cls-2" d="M42.62,43.65a1.19,1.19,0,1,0,1.19-1.2,1.19,1.19,0,0,0-1.19,1.2"/><path class="cls-2" d="M23.4,50.55a1.19,1.19,0,1,0,1.19-1.19,1.19,1.19,0,0,0-1.19,1.19"/><polyline class="cls-1" points="55.78 48.44 55.78 40.64 25.35 40.64 25.35 47.07"/><polyline class="cls-1" points="93.2 48.78 93.2 44.89 61.71 44.89 61.71 48.52"/></g></g></svg>