<svg xmlns="http://www.w3.org/2000/svg" viewBox="0 0 194.87 175.17"><defs><style>.cls-1{fill:none;stroke:#fff;stroke-linecap:round;stroke-linejoin:round;stroke-width:1.7px;}.cls-2{fill:#31587a;}</style></defs><title>icono-tangoneroAsset 3</title><g id="Layer_2" data-name="Layer 2"><g id="Layer_1-2" data-name="Layer 1"><path class="cls-1" d="M135.66,127.86,164.6,70l28.85,57.91M164.61,41.43V70M30,70V41.43m83.59,9.94h-9.15c-2.26,0-.39-2.74-.39-4.2,0-.89-2.78-1.2-6.75-1.2s-6.75.31-6.75,1.2c0,1.46,1.86,4.2-.4,4.2H80.79m6.27-15.83h20M108.53,24H105.3l1.51,8h3.3ZM87.6,32H84.3l1.58-8H89M86,19.73h22.43M80.47,81.83h33.4m-33.4-4h33.4m-33.4-4H114M163.9,39.53l-1-2.78-49.4,14.62v4.37h3.22l47.85-14.31ZM35.26,37.81,86,19.73m22.43,0,50.69,18.08m-45.53-.47h-6.05L106.67,32h6.87Zm-26.83,0H80.79V32h6.83ZM97.17.85V16.54M86.25,40.32l3.48-20.59H88.38v-3H106v3H104.6l3.48,20.59ZM80.79,46V40.32h32.75V46m-12.28,0L97.17,27.23,93.08,46m20.46,0v9.77h-9.08V51.37m-14.58,0v4.37H80.79V46m23.67,9.77V64H89.88V55.74m14.58,14.33H89.88V64h14.58Zm0-9.78h13.65m-41.88,0H89.88m26.88-4.55h-12.3V70.07h9.48l4.17-9.78Zm-39.19,0H89.88V70.07H80.39l-4.16-9.78Z"/><path class="cls-1" d="M135.86,128.28l58,0m-15,34.48a30.67,30.67,0,0,1-14,3.28m26.29-17.61s-9,8.24-26.28,8.24m28.45-17.14a56.43,56.43,0,0,1-28.46,8.26m-14,15a30.67,30.67,0,0,0,14,3.28m-26.29-17.61s9.05,8.24,26.29,8.24m-28.45-17.14a56.37,56.37,0,0,0,28.45,8.26M165,138c-18.91,0-29.13-9.72-29.13-9.72s-1.15,18.76,6.51,26.42c2.75,2.75,10.5,9.12,11.69,12.38,1.13,3.05,1.1,6.91,10.75,6.91s9.71-3.86,10.83-6.91c1.2-3.26,8.94-9.63,11.69-12.38,8.29-8.28,6.51-26.42,6.51-26.42S183.65,138,164.73,138"/><path class="cls-1" d="M172.77,137.44s2,4-.05,14.68c-1.37,7.17-4.31,8.71-5.74,13.77s-.46,8.12-3.14,8.12m-8.91-37s-2.09,4.42,0,15.12c1.37,7.17,4.3,8.71,5.73,13.77s.47,8.12,3.15,8.12m.19-35.77,0,35.77m22.83-41.09A37.85,37.85,0,0,1,185,149.43c-3,9.31-8.34,10.53-11,14.79S172.51,174,163.77,174c-6.33,0-3.55-3.34-7.25-9.16s-5.83-6.65-7.72-12.73c-3.53-11.38-1.4-17.27-1.4-17.27m-6.61-3a43.36,43.36,0,0,0,1.81,17.63c3,9.31,8.34,10.53,11,14.79s1.54,9.79,10.29,9.79c6.32,0,3.54-3.34,7.24-9.16s5.84-6.65,7.72-12.73c3.53-11.38,1.08-16.41,1.08-16.41"/><rect class="cls-2" x="177.9" y="100.08" width="6.14" height="6.25"/><rect class="cls-1" x="177.9" y="100.08" width="6.14" height="6.25"/><rect class="cls-2" x="145.84" y="100.08" width="6.14" height="6.25"/><rect class="cls-1" x="145.84" y="100.08" width="6.14" height="6.25"/><path class="cls-2" d="M188.61,114.39a1.93,1.93,0,1,1-1.93-1.92,1.93,1.93,0,0,1,1.93,1.92"/><path class="cls-1" d="M188.61,114.39a1.93,1.93,0,1,1-1.93-1.92A1.93,1.93,0,0,1,188.61,114.39Z"/><path class="cls-2" d="M144.73,114.39a1.93,1.93,0,1,1-1.92-1.92,1.92,1.92,0,0,1,1.92,1.92"/><path class="cls-1" d="M144.73,114.39a1.93,1.93,0,1,1-1.92-1.92A1.92,1.92,0,0,1,144.73,114.39Z"/><polyline class="cls-1" points="1.03 128.17 29.8 70.56 58.48 128.17"/><path class="cls-1" d="M37.91,138.08s2,4,0,14.57c-1.36,7.1-4.27,8.62-5.69,13.64s-.46,8-3.11,8m-8.82-36.64s-2.07,4.38,0,15c1.35,7.1,4.26,8.62,5.68,13.64s.46,8,3.11,8m.19-35.41,0,35.41M51.8,133.64A37.58,37.58,0,0,1,50.06,150c-3,9.21-8.26,10.42-10.85,14.64s-1.53,9.69-10.19,9.69c-6.26,0-3.51-3.31-7.17-9.06s-5.78-6.59-7.65-12.61c-3.5-11.27-1.39-17.09-1.39-17.09m-6.54-3A42.94,42.94,0,0,0,8.06,150c3,9.21,8.26,10.42,10.84,14.64s1.53,9.69,10.19,9.69c6.26,0,3.51-3.31,7.17-9.06s5.79-6.59,7.65-12.61c3.5-11.27,1.07-16.24,1.07-16.24"/><path class="cls-1" d="M.89,128.6l58,0m-15,34.47a30.66,30.66,0,0,1-13.95,3.28m26.28-17.6s-9,8.23-26.28,8.23m28.45-17.14a56.32,56.32,0,0,1-28.45,8.27m-14,15a30.73,30.73,0,0,0,14,3.28M3.57,148.77s9,8.23,26.29,8.23M1.41,139.86a56.32,56.32,0,0,0,28.45,8.27m.18-9.8c-18.91,0-29.13-9.71-29.13-9.71S-.24,147.38,7.43,155c2.75,2.75,10.49,9.12,11.68,12.37,1.13,3.06,1.1,6.91,10.75,6.91s9.71-3.85,10.83-6.91c1.2-3.25,8.94-9.62,11.69-12.37,8.29-8.28,6.51-26.42,6.51-26.42s-10.21,9.71-29.12,9.71"/><rect class="cls-2" x="42.93" y="100.39" width="6.14" height="6.25"/><rect class="cls-1" x="42.93" y="100.39" width="6.14" height="6.25"/><rect class="cls-2" x="10.87" y="100.39" width="6.14" height="6.25"/><rect class="cls-1" x="10.87" y="100.39" width="6.14" height="6.25"/><path class="cls-2" d="M53.64,114.71a1.93,1.93,0,1,1-1.93-1.93,1.93,1.93,0,0,1,1.93,1.93"/><path class="cls-1" d="M53.64,114.71a1.93,1.93,0,1,1-1.93-1.93A1.93,1.93,0,0,1,53.64,114.71Z"/><path class="cls-2" d="M9.76,114.71a1.93,1.93,0,1,1-1.92-1.93,1.93,1.93,0,0,1,1.92,1.93"/><path class="cls-1" d="M9.76,114.71a1.93,1.93,0,1,1-1.92-1.93A1.93,1.93,0,0,1,9.76,114.71Z"/><polygon class="cls-1" points="30.39 39.65 31.34 36.94 80.39 51.22 80.39 55.48 77.19 55.48 29.69 41.51 30.39 39.65"/></g></g></svg>