<svg xmlns="http://www.w3.org/2000/svg" viewBox="0 0 296.54 185.06"><defs><style>.cls-1{fill:none;stroke:#fff;stroke-linecap:round;stroke-linejoin:round;stroke-width:1.7px;}.cls-2{fill:#31587a;}.cls-3{fill:#fff;}</style></defs><title>icono-palangraneroAsset 6</title><g id="Layer_2" data-name="Layer 2"><g id="Layer_1-2" data-name="Layer 1"><path class="cls-1" d="M255.33,106.72v68.53m13.1-70.53v68.53m-26.21-66.53v68.53M220,115.68v68.53m-26.21-68.53v68.53m-22.22-77.62v68.53m-26.21-70.4v68.53M134.25,94v68.53m24.21-55.85v68.53M134.25,94V76.69m48.43,10.45v87.19m48.43-69.93a78.24,78.24,0,0,0,24.22,2.32c13.1-.89,24.21-5.72,24.21-12.77M182.68,104.4c0,4.41,7.36,13.11,24.22,13.11s24.21-8.6,24.21-13.11m-48.43,0a78.24,78.24,0,0,1-24.22,2.32c-13.1-.89-24.21-5.72-24.21-12.77M231.11,173V87.14m48.43,76.74V76.69M120,48.64l14.21,28m153.36-5s-2.7,5-8.07,5m16.15,0a9.29,9.29,0,0,1-8.08-5m-16.14,0s-2.7,5-8.07,5m16.14,0a9.28,9.28,0,0,1-8.07-5m-16.14,0s-2.71,5-8.07,5m16.14,0a9.26,9.26,0,0,1-8.07-5m-8.07,5a9.29,9.29,0,0,1-8.08-5m0,0s-2.7,5-8.07,5a9.28,9.28,0,0,1-8.07-5m-32.29,0s-2.7,5-8.07,5m24.22-5s-2.71,5-8.08,5a9.28,9.28,0,0,1-8.07-5m32.29,0s-2.7,5-8.07,5a9.26,9.26,0,0,1-8.07-5m-24.22,5a9.26,9.26,0,0,1-8.07-5m0,0s-2.71,5-8.07,5a9.29,9.29,0,0,1-8.08-5m-32.28,0s-2.71,5-8.07,5m24.21-5s-2.7,5-8.07,5a9.26,9.26,0,0,1-8.07-5m32.28,0s-2.7,5-8.07,5a9.28,9.28,0,0,1-8.07-5M37.18,39.46,24.43,31.72M29.05,8.89V27.05m-4.7,7.48-8.82,16m8.9-3.47L54.37,29.24M24.43,31.72h4.62V27.05H24.43Zm48.42,8.75V21.9m2.46,26.74v-3c0-1.72,2.15-1.32,2.15-1.32M47.85,46.18V9.33M74,54.38h3.81l4.3-5.74H74Zm-2.63,4.89V54.38l-2.88-5L46.1,46.45l-1.93,3,3.68,7.4m70.26,19.83,1.1-16.08s-26.52,4.39-62,1.31c-14.41-1.26-32.89-6-36.81-6.79A80.92,80.92,0,0,0,.85,53.38L15.56,76.69M119.74,53l.3-4.34H102.6V53M33.46,66l.44-3L21.09,61.1l-.44,2.95m-6.81-4.7a87.94,87.94,0,0,0-9.65-.72M.85,53.38V49.84s5.51-1.18,19.59,1.53c4,.78,30,8,56.05,8,7.33,0,15.91-.09,23.5-.52m19.22,1.77.53-7.63H102.6l-3.72,9.4m-21.09-3v-5H71.35v4.89m1.5-24.05H58.3M68.56,49.37V.85m4.29,39.62H58.3m0-25.34v32M44.17,35.31l-6.34,19.9M24.43,31.72V52.29m93.68,24.4H15.56"/><path class="cls-2" d="M185.29,87.14a2.61,2.61,0,1,1-2.61-2.61,2.61,2.61,0,0,1,2.61,2.61"/><path class="cls-1" d="M185.29,87.14a2.61,2.61,0,1,1-2.61-2.61A2.61,2.61,0,0,1,185.29,87.14Z"/><path class="cls-2" d="M136.86,76.69a2.61,2.61,0,1,1-2.61-2.61,2.61,2.61,0,0,1,2.61,2.61"/><path class="cls-1" d="M136.86,76.69a2.61,2.61,0,1,1-2.61-2.61A2.61,2.61,0,0,1,136.86,76.69Z"/><path class="cls-2" d="M282.15,76.69a2.61,2.61,0,1,1-2.61-2.61,2.61,2.61,0,0,1,2.61,2.61"/><path class="cls-1" d="M282.15,76.69a2.61,2.61,0,1,1-2.61-2.61A2.61,2.61,0,0,1,282.15,76.69Z"/><path class="cls-2" d="M233.72,87.14a2.61,2.61,0,1,1-2.61-2.61,2.61,2.61,0,0,1,2.61,2.61"/><path class="cls-1" d="M233.72,87.14a2.61,2.61,0,1,1-2.61-2.61A2.61,2.61,0,0,1,233.72,87.14Z"/><path class="cls-2" d="M94,147a65.83,65.83,0,0,0,23.71,4.86c12.7,0,12.49-2.81,12.49-2.81s-2.82-3.32-15.24-2c-11,1.12-16.51,6.13-16.51,6.13Z"/><path class="cls-1" d="M94,147a65.83,65.83,0,0,0,23.71,4.86c12.7,0,12.49-2.81,12.49-2.81s-2.82-3.32-15.24-2c-11,1.12-16.51,6.13-16.51,6.13Z"/><path class="cls-2" d="M162.63,131a65.63,65.63,0,0,0,23.7,4.87c12.71,0,12.49-2.81,12.49-2.81S196,129.75,183.58,131c-11,1.13-16.51,6.14-16.51,6.14Z"/><path class="cls-1" d="M162.63,131a65.63,65.63,0,0,0,23.7,4.87c12.71,0,12.49-2.81,12.49-2.81S196,129.75,183.58,131c-11,1.13-16.51,6.14-16.51,6.14Z"/><path class="cls-2" d="M201.9,145.7a65.72,65.72,0,0,0,23.71,4.87c12.7,0,12.49-2.81,12.49-2.81s-2.82-3.33-15.24-2.06c-11,1.13-16.51,6.14-16.51,6.14Z"/><path class="cls-1" d="M201.9,145.7a65.72,65.72,0,0,0,23.71,4.87c12.7,0,12.49-2.81,12.49-2.81s-2.82-3.33-15.24-2.06c-11,1.13-16.51,6.14-16.51,6.14Z"/><path class="cls-2" d="M246.87,153.72a65.76,65.76,0,0,0,23.71,4.86c12.7,0,12.48-2.81,12.48-2.81s-2.81-3.32-15.24-2.05c-11,1.12-16.51,6.13-16.51,6.13Z"/><path class="cls-1" d="M246.87,153.72a65.76,65.76,0,0,0,23.71,4.86c12.7,0,12.48-2.81,12.48-2.81s-2.81-3.32-15.24-2.05c-11,1.12-16.51,6.13-16.51,6.13Z"/><path class="cls-2" d="M253.8,162.39a65.63,65.63,0,0,0,23.7,4.87c12.7,0,12.49-2.81,12.49-2.81s-2.81-3.33-15.24-2.06c-11,1.12-16.51,6.14-16.51,6.14Z"/><path class="cls-1" d="M253.8,162.39a65.63,65.63,0,0,0,23.7,4.87c12.7,0,12.49-2.81,12.49-2.81s-2.81-3.33-15.24-2.06c-11,1.12-16.51,6.14-16.51,6.14Z"/><path class="cls-3" d="M40.08,64.13A1.12,1.12,0,1,0,41.19,63a1.11,1.11,0,0,0-1.11,1.11"/><path class="cls-3" d="M55.52,67.12A1.11,1.11,0,1,0,56.63,66a1.11,1.11,0,0,0-1.11,1.11"/><path class="cls-3" d="M69.48,71.93a1.11,1.11,0,1,0,1.11-1.11,1.11,1.11,0,0,0-1.11,1.11"/><path class="cls-3" d="M80.57,71.93a1.11,1.11,0,1,0,1.11-1.11,1.11,1.11,0,0,0-1.11,1.11"/><path class="cls-3" d="M111,67.12A1.11,1.11,0,1,0,112.11,66,1.11,1.11,0,0,0,111,67.12"/><path class="cls-3" d="M96.62,71.93a1.11,1.11,0,1,0,1.11-1.11,1.11,1.11,0,0,0-1.11,1.11"/></g></g></svg>