<svg version="1.1" id="Layer_1" xmlns="http://www.w3.org/2000/svg" xmlns:xlink="http://www.w3.org/1999/xlink" x="0px" y="0px"
	 viewBox="0 0 97 97" style="enable-background:new 0 0 97 97;" xml:space="preserve">
<style type="text/css">
	.icon-basura{fill:#A0B5C9;}
</style>
<g id="basura">
	<g id="basura">
		<path class="icon-basura" d="M69.8,32.4H54.6v-1.7h15.2V32.4z M66.8,49.8h-9.2l-1.3-15.1h12L66.8,49.8z M57.3,26.5h9.8l0.7,1.7H56.7
			L57.3,26.5z M71,28.3h-0.7l-1.3-3.3c-0.2-0.4-0.6-0.7-1.1-0.8H56.5c-0.5,0-0.9,0.3-1.1,0.8l-1.3,3.3h-0.7c-0.7,0-1.2,0.5-1.2,1.2
			c0,0,0,0,0,0v4.1c0,0.7,0.5,1.2,1.2,1.2h0.4l1.5,16.4c0.1,0.6,0.6,1.1,1.2,1.1H68c0.6,0,1.1-0.5,1.2-1.1l1.5-16.4H71
			c0.7,0,1.2-0.5,1.2-1.2l0,0v-4.1C72.2,28.8,71.7,28.3,71,28.3C71,28.3,71,28.3,71,28.3"/>
		<path class="icon-basura" d="M62.2,40c0.8,0,1.5,0.6,1.5,1.4s-0.6,1.5-1.4,1.5c-0.8,0-1.5-0.6-1.5-1.4c0,0,0,0,0,0
			C60.8,40.7,61.4,40,62.2,40 M62.2,45.3c2.1,0,3.8-1.7,3.8-3.8c0-2.1-1.7-3.8-3.8-3.8s-3.8,1.7-3.8,3.8l0,0
			C58.4,43.6,60.1,45.3,62.2,45.3"/>
		<path class="icon-basura" d="M48.1,70.4h-19V41.7h1.1c0.9,0,1.6,0.7,1.6,1.6l0,0v4.9c0,1.2,1,2.1,2.2,2.1c0.2,0,0.5,0,0.7-0.1
			c2.5-0.9,5.3-0.9,7.9,0c1.1,0.4,2.3-0.2,2.7-1.3c0.1-0.2,0.1-0.5,0.1-0.7v-4.9c0-0.9,0.7-1.6,1.6-1.6c0,0,0,0,0,0h1.1L48.1,70.4z
			 M49.3,39.3H47c-2.2,0-4,1.8-4,4v4.6c-2.9-1-6-1-8.9,0v-4.6c0-2.2-1.8-4-4-4h-2.2c-0.7,0-1.2,0.5-1.2,1.2v31.1
			c0,0.7,0.5,1.2,1.2,1.2c0,0,0,0,0,0h21.4c0.7,0,1.2-0.5,1.2-1.2V40.5C50.5,39.9,49.9,39.3,49.3,39.3"/>
		<path class="icon-basura" d="M33.6,65.4l-0.2-0.1c-0.1,0-0.2-0.1-0.3-0.1c-0.8-0.2-1.5,0.4-1.7,1.1c-0.1,0.5,0.1,0.9,0.4,1.3
			c0.3,0.3,0.6,0.4,1,0.4c0.1,0,0.2,0,0.3,0c0.1,0,0.2,0,0.3-0.1c0.1,0,0.2-0.1,0.2-0.1c0.1,0,0.1-0.1,0.2-0.2
			c0.3-0.3,0.4-0.6,0.4-1c0-0.4-0.2-0.7-0.4-1C33.8,65.5,33.7,65.5,33.6,65.4"/>
		<path class="icon-basura" d="M38.6,65.1c-0.8,0-1.4,0.6-1.5,1.4c0,0.8,0.6,1.4,1.4,1.5c0.8,0,1.4-0.6,1.5-1.4c0,0,0,0,0,0
			C40,65.8,39.4,65.1,38.6,65.1L38.6,65.1"/>
		<path class="icon-basura" d="M45.2,65.4c-0.1-0.1-0.2-0.1-0.2-0.1c-0.1,0-0.2-0.1-0.3-0.1c-0.2,0-0.4,0-0.6,0c-0.1,0-0.2,0-0.3,0.1
			l-0.2,0.1c-0.1,0.1-0.2,0.1-0.2,0.2c-0.3,0.3-0.4,0.6-0.4,1c0,0.1,0,0.2,0,0.3c0,0.1,0,0.2,0.1,0.3c0,0.1,0.1,0.2,0.1,0.2
			c0,0.1,0.1,0.2,0.2,0.2c0.1,0.1,0.1,0.1,0.2,0.2c0.1,0.1,0.2,0.1,0.2,0.1c0.1,0,0.2,0.1,0.3,0.1h0.3c0.1,0,0.2,0,0.3,0
			c0.2,0,0.4-0.1,0.5-0.2c0.2-0.1,0.3-0.2,0.4-0.4c0.1-0.2,0.2-0.3,0.2-0.5c0-0.1,0-0.2,0-0.3c0-0.4-0.2-0.7-0.4-1
			C45.3,65.5,45.2,65.4,45.2,65.4"/>
		<path class="icon-basura" d="M51.5,94.5l3-3c0.5-0.5,0.5-1.2,0-1.7l-3.2-3.3C71,85.1,86.4,68.8,86.6,49l4-4l4,4
			C94.3,73.1,75.5,92.9,51.5,94.5 M48,94.6C23.9,94.3,4.1,75.5,2.5,51.5l3,3c0.2,0.2,0.5,0.3,0.8,0.3c0.3,0,0.6-0.1,0.8-0.3l3.2-3.3
			C11.9,71,28.2,86.3,48,86.6l4,4L48,94.6z M45.5,2.5l-3,3.1C42,6,42,6.7,42.5,7.2l3.3,3.3C26,11.9,10.7,28.2,10.4,48l-4,4l-4-4
			C2.7,23.9,21.5,4.1,45.5,2.5 M84.2,48.5c0,19.7-16,35.8-35.7,35.8s-35.8-16-35.8-35.7c0-19.7,16-35.8,35.7-35.8c0,0,0,0,0,0
			C68.2,12.8,84.2,28.8,84.2,48.5 M49,2.4c24.1,0.3,43.9,19.1,45.5,43.1l-3-3c-0.5-0.5-1.2-0.5-1.7,0c0,0,0,0,0,0l-3.3,3.2
			C85.1,26,68.8,10.6,49,10.4l-4-4L49,2.4z M48.5,0C21.7,0,0,21.7,0,48.5S21.7,97,48.5,97S97,75.3,97,48.5C97,21.7,75.3,0,48.5,0"/>
		<rect x="36.4" y="25.3" transform="matrix(0.7071 -0.7071 0.7071 0.7071 -8.0846 35.317)" class="icon-basura" width="4.3" height="4.3"/>

			<rect x="63.1" y="61.9" transform="matrix(0.7071 -0.7071 0.7071 0.7071 -26.1465 64.9266)" class="icon-basura" width="4.3" height="4.3"/>
	</g>
</g>
</svg>
