<svg xmlns="http://www.w3.org/2000/svg" viewBox="0 0 210.42 185.06"><defs><style>.cls-1{fill:none;stroke:#fff;stroke-linecap:round;stroke-linejoin:round;stroke-width:1.7px;}.cls-2{fill:#fff;}.cls-3{fill:#31587a;}</style></defs><title>icono-poteroAsset 5</title><g id="Layer_2" data-name="Layer 2"><g id="Layer_1-2" data-name="Layer 1"><path class="cls-1" d="M7.39,28.26V20.2L1.33,16.56M142.39,45.9s-2.72,5-8.12,5m16.24,0a9.33,9.33,0,0,1-8.12-5m-8.12,5a9.33,9.33,0,0,1-8.12-5m0,0s-2.72,5-8.12,5a9.33,9.33,0,0,1-8.12-5m-32.48,0s-2.72,5-8.12,5m24.36-5s-2.72,5-8.12,5a9.33,9.33,0,0,1-8.12-5m32.48,0s-2.72,5-8.12,5a9.33,9.33,0,0,1-8.12-5m-24.36,5a9.33,9.33,0,0,1-8.12-5m0,0s-2.72,5-8.12,5a9.31,9.31,0,0,1-8.11-5m-32.48,0s-2.72,5-8.12,5m24.36-5s-2.72,5-8.12,5a9.33,9.33,0,0,1-8.12-5M45,45.9s-2.72,5-8.12,5a9.33,9.33,0,0,1-8.12-5m-9-31.14v15.1m3.83-6.25,4.75-.09v7.16m121.35,2.11V28.16h2.49l2.07,4.46M136,33.73V29h4.14m-20.42,5.29V29.16h4.13v5.17m-11.61-5.17h3.92v5M96.05,28.27h11.41v5.78m-22.15-.47V27.89h6v5.86m-14.76-.36V27.53h4v6m-17-.27V27.42H67.9v6M51.78,32.7v-6h3.66V33M28.27,30.57V24.49l5.25,0v6.68m57.77,2.43V18.36h2.38m51.19,14.43V21.52l4.76-.21V33.36m-9.51.22V21.72l4.75-.2M132.17,34.05V21.31H136V34.05M126.2,20.2h2.37V34.05m-4.75,0V20.2h2.38M116.13,34.05V20.2h7.69m-14,0h2.38V34.05m-4.75-.14V20.2h2.37M93.67,18.36h2.38V33.84M82.93,18.36h2.38V33.58m-4.75,0V18.36h2.37M70.28,17h2.38V33.39H70.28m0,0H67.9V17h2.38m-9.13-.89h2.37v17.2m-2.37,0-2.38-.06V16.09h2.38M42.72,14.76h4.47V32.34l-4.47-.46Zm-23,15.1L37.33.85m1.08,30.61V25.61h4.31v6.27"/><path class="cls-2" d="M32.14,39.11A1.12,1.12,0,1,1,31,38a1.12,1.12,0,0,1,1.12,1.12"/><path class="cls-1" d="M190.53,78.44v88.84M152.58,62.05V184.21M105.1,79.48v87m104.47-43.66a61.35,61.35,0,1,1-61.35-61.34A61.35,61.35,0,0,1,209.57,122.86ZM149.62,21.31V61.08M136,33.75V62.57m6.52-28.81V61.52M126.2,34.33V65.45m-7.7-31.23v34.9m-8.67-35v41.1m-7.08-56.82V81.64M93.67,33.8V94.51M82.93,33.58V142M70.28,33.45V142M61.15,33.27V142M45,32.21V142M77.51,6,91.29,21.43M98.18,8.71h9.22m32.71-1.85L128.57,20.2m-12.32-15-4,15M102.75.85A51,51,0,0,0,123.93,6C132.28,6,140.11.85,140.11.85m0,6,7.13,14.45M140.11.85V21.72M37.33,16.56V.85a127.82,127.82,0,0,0,34.33,5c18.6,0,31.09-4.95,31.09-4.95v26.2M142.39,45.9c11.79-3.76,11.79-13.28,11.79-13.28l-26.6,1.74-71-1.16-55.75-5s9,10.46,11,13.33S10.5,46,7.85,46c-7.74,0-5.62,4.88-3.92,4.88M.85,28.29V25c0-1.12,2-1.16,3.18,0s3.36,3.5,3.36,3.5M19.7,16.91V14.76l23,2.5"/><path class="cls-3" d="M105.1,102.93s2.13-1.32,2.13-10.06v-.05c0-8.73-2.13-10.06-2.13-10.06S103,84.09,103,92.82v.05c0,8.74,2.12,10.06,2.12,10.06"/><path class="cls-1" d="M105.1,102.93s2.13-1.32,2.13-10.06v-.05c0-8.73-2.13-10.06-2.13-10.06S103,84.09,103,92.82v.05C103,101.61,105.1,102.93,105.1,102.93Z"/><path class="cls-3" d="M181.27,94.25l-4.73-4.73h-2.06l-.29-1.28-1.42-.75a2,2,0,0,0-3.34-2,2,2,0,0,0,0,2.85,2,2,0,0,0,2,.49l.75,1.43,1.28.28v2.07l4.73,4.73,1.46,4.66,7.25,1-1-7.25Z"/><path class="cls-1" d="M181.27,94.25l-4.73-4.73h-2.06l-.29-1.28-1.42-.75a2,2,0,0,0-3.34-2,2,2,0,0,0,0,2.85,2,2,0,0,0,2,.49l.75,1.43,1.28.28v2.07l4.73,4.73,1.46,4.66,7.25,1-1-7.25Z"/><path class="cls-1" d="M172.47,85.55c.6-.6,1.38-1.16,1-2m-2,1.42c.16-.68.06-1.71-.64-1.92m-1.33,5.45c-.6.6-1.15,1.38-2,1m1.42-2c-.68.16-1.71.06-1.92-.64m2.7-1.71-9.88-13.73m9.29,14.32L155.4,75.88"/><path class="cls-3" d="M152.57,101.81s2.13-1.32,2.13-10V91.7c0-8.73-2.13-10.06-2.13-10.06S150.45,83,150.45,91.7v.06c0,8.73,2.12,10,2.12,10"/><path class="cls-1" d="M152.57,101.81s2.13-1.32,2.13-10V91.7c0-8.73-2.13-10.06-2.13-10.06S150.45,83,150.45,91.7v.06C150.45,100.49,152.57,101.81,152.57,101.81Z"/><path class="cls-3" d="M190.53,103.4s2.12-1.32,2.12-10.05v-.06c0-8.73-2.12-10.06-2.12-10.06s-2.12,1.33-2.12,10.06v.06c0,8.73,2.12,10.05,2.12,10.05"/><path class="cls-1" d="M190.53,103.4s2.12-1.32,2.12-10.05v-.06c0-8.73-2.12-10.06-2.12-10.06s-2.12,1.33-2.12,10.06v.06C188.41,102.08,190.53,103.4,190.53,103.4Z"/><path class="cls-3" d="M190.53,143s2.12-1.32,2.12-10.05v-.06c0-8.73-2.12-10.06-2.12-10.06s-2.12,1.33-2.12,10.06V133c0,8.73,2.12,10.05,2.12,10.05"/><path class="cls-1" d="M190.53,143s2.12-1.32,2.12-10.05v-.06c0-8.73-2.12-10.06-2.12-10.06s-2.12,1.33-2.12,10.06V133C188.41,141.71,190.53,143,190.53,143Z"/><path class="cls-3" d="M143.06,110.45l-4.73-4.73h-2.06l-.28-1.28-1.43-.74a2,2,0,1,0-1.31,1.31l.74,1.42,1.28.29v2.06l4.73,4.73,1.46,4.66,7.26,1-1-7.25Z"/><path class="cls-1" d="M143.06,110.45l-4.73-4.73h-2.06l-.28-1.28-1.43-.74a2,2,0,1,0-1.31,1.31l.74,1.42,1.28.29v2.06l4.73,4.73,1.46,4.66,7.26,1-1-7.25Z"/><path class="cls-1" d="M134.27,101.75c.6-.6,1.37-1.15,1-2m-2,1.42c.16-.68.06-1.7-.64-1.92m-1.33,5.46c-.6.6-1.15,1.37-2,1m1.42-2c-.68.16-1.7.06-1.92-.64m2.71-1.71-9.89-13.73M130.92,102,117.2,92.08"/><path class="cls-3" d="M108.59,135.11h6.69l1.46-1.46,1.1.71,1.54-.48a2,2,0,1,0,0-1.86l-1.54-.48-1.1.71-1.46-1.46h-6.69l-4.32-2.27L98.43,133l5.84,4.42Z"/><path class="cls-1" d="M108.59,135.11h6.69l1.46-1.46,1.1.71,1.54-.48a2,2,0,1,0,0-1.86l-1.54-.48-1.1.71-1.46-1.46h-6.69l-4.32-2.27L98.43,133l5.84,4.42Z"/><path class="cls-1" d="M121,135.05c0,.85-.16,1.78.71,2.11m.4-2.42c.37.6,1.16,1.25,1.81.91m-2.92-4.8c0-.85-.16-1.79.71-2.11m.4,2.41c.37-.59,1.16-1.24,1.81-.9m-.7,3.12,16.69,2.72m-16.69-3.56,16.69-2.72"/><path class="cls-3" d="M136.18,163.87l-4.73-4.73h-2.06l-.29-1.28-1.42-.75a2,2,0,1,0-3.34.82,2,2,0,0,0,2,.49l.75,1.43,1.28.28v2.07l4.73,4.72,1.46,4.66,7.25,1-1-7.26Z"/><path class="cls-1" d="M136.18,163.87l-4.73-4.73h-2.06l-.29-1.28-1.42-.75a2,2,0,1,0-3.34.82,2,2,0,0,0,2,.49l.75,1.43,1.28.28v2.07l4.73,4.72,1.46,4.66,7.25,1-1-7.26Z"/><path class="cls-1" d="M127.39,155.16c.6-.6,1.37-1.15,1-2m-2,1.43c.16-.69.06-1.71-.64-1.92m-1.33,5.45c-.6.6-1.15,1.38-2,1m1.42-2c-.68.17-1.7.06-1.92-.64m2.71-1.71-9.89-13.72M124,155.38l-13.73-9.88"/><path class="cls-3" d="M156.27,170.15l-4.73-4.73h-2.07l-.28-1.28-1.43-.74a2,2,0,1,0-1.31,1.31l.75,1.42,1.28.29v2.06l4.73,4.73,1.46,4.66,7.25,1-1-7.26Z"/><path class="cls-1" d="M156.27,170.15l-4.73-4.73h-2.07l-.28-1.28-1.43-.74a2,2,0,1,0-1.31,1.31l.75,1.42,1.28.29v2.06l4.73,4.73,1.46,4.66,7.25,1-1-7.26Z"/><path class="cls-1" d="M147.47,161.45c.6-.6,1.38-1.15,1-2m-2,1.42c.16-.68.05-1.7-.64-1.92m-1.33,5.46c-.61.6-1.16,1.37-2,1m1.43-2c-.68.16-1.71.06-1.92-.64m2.7-1.71-9.88-13.73m9.29,14.33-13.73-9.89"/><path class="cls-3" d="M109.21,114.59l4.73-4.73V107.8l1.28-.29.74-1.42a2,2,0,1,0-1.31-1.31l-1.43.74-.28,1.28h-2.06l-4.73,4.73L101.49,113l-1,7.26,7.26-1Z"/><path class="cls-1" d="M109.21,114.59l4.73-4.73V107.8l1.28-.29.74-1.42a2,2,0,1,0-1.31-1.31l-1.43.74-.28,1.28h-2.06l-4.73,4.73L101.49,113l-1,7.26,7.26-1Z"/><path class="cls-1" d="M117.91,105.8c.6.6,1.15,1.37,2,1m-1.42-2c.68.16,1.7.06,1.92-.64m-5.46-1.33c-.6-.6-1.37-1.15-1-2m2,1.42c-.17-.68-.06-1.7.64-1.92m1.71,2.71L132,93.16m-14.32,9.29,9.89-13.72"/><path class="cls-3" d="M152.57,139.81s2.13-1.32,2.13-10.06v-.05c0-8.73-2.13-10.06-2.13-10.06s-2.12,1.33-2.12,10.06v.05c0,8.74,2.12,10.06,2.12,10.06"/><path class="cls-1" d="M152.57,139.81s2.13-1.32,2.13-10.06v-.05c0-8.73-2.13-10.06-2.13-10.06s-2.12,1.33-2.12,10.06v.05C150.45,138.49,152.57,139.81,152.57,139.81Z"/><path class="cls-3" d="M105.1,143.43s2.13-1.33,2.13-10.06v-.06c0-8.73-2.13-10-2.13-10s-2.12,1.32-2.12,10v.06c0,8.73,2.12,10.06,2.12,10.06"/><path class="cls-1" d="M105.1,143.43s2.13-1.33,2.13-10.06v-.06c0-8.73-2.13-10-2.13-10s-2.12,1.32-2.12,10v.06C103,142.1,105.1,143.43,105.1,143.43Z"/><polygon class="cls-2" points="107.06 102.93 103.15 102.93 104.28 104.89 103.15 104.89 105.1 108.28 107.06 104.89 105.92 104.89 107.06 102.93"/><polygon class="cls-2" points="154.53 101.81 150.62 101.81 151.76 103.78 150.62 103.78 152.57 107.16 154.53 103.78 153.39 103.78 154.53 101.81"/><polygon class="cls-2" points="192.48 103.4 188.58 103.4 189.71 105.37 188.58 105.37 190.53 108.75 192.48 105.37 191.35 105.37 192.48 103.4"/><polygon class="cls-2" points="192.48 143.03 188.58 143.03 189.71 145 188.58 145 190.53 148.38 192.48 145 191.35 145 192.48 143.03"/><polygon class="cls-2" points="154.53 139.7 150.62 139.7 151.76 141.66 150.62 141.66 152.57 145.04 154.53 141.66 153.39 141.66 154.53 139.7"/><polygon class="cls-3" points="107.06 143.03 103.15 143.03 104.28 145 103.15 145 105.1 148.38 107.06 145 105.92 145 107.06 143.03"/><polygon class="cls-1" points="107.06 143.03 103.15 143.03 104.28 145 103.15 145 105.1 148.38 107.06 145 105.92 145 107.06 143.03"/><path class="cls-3" d="M181.24,138.63l-4.73-4.73h-2.06l-.29-1.28-1.42-.74a2,2,0,0,0-.5-2,2,2,0,1,0-.82,3.34l.75,1.42,1.28.29V137l4.73,4.73,1.46,4.66,7.25,1-1-7.25Z"/><path class="cls-1" d="M181.24,138.63l-4.73-4.73h-2.06l-.29-1.28-1.42-.74a2,2,0,0,0-.5-2,2,2,0,1,0-.82,3.34l.75,1.42,1.28.29V137l4.73,4.73,1.46,4.66,7.25,1-1-7.25Z"/><path class="cls-1" d="M172.44,129.93c.61-.6,1.38-1.15,1-2m-2,1.42c.16-.68.06-1.7-.64-1.92m-1.33,5.46c-.6.6-1.15,1.37-2,1m1.42-2c-.68.16-1.71.06-1.92-.64m2.71-1.71-9.89-13.73m9.29,14.33-13.73-9.89"/></g></g></svg>