<svg version="1.1" id="datos-oceano-indico" xmlns="http://www.w3.org/2000/svg" xmlns:xlink="http://www.w3.org/1999/xlink"
	 x="0px" y="0px" viewBox="0 0 824.7 416.6" style="enable-background:new 0 0 824.7 416.6;" xml:space="preserve">
<style type="text/css">
	.linea-a{fill:none;stroke:#FFFFFF;}
	.linea-b{fill:#FFFFFF;}
	.color-claro{fill:#C46E6B;}
</style>
<title>islasAsset 21</title>
<g id="Layer_islas-cies">
	<g id="pacifico-norte">
		<g id="datos-1">
			<g id="linea-datos1">
				<polyline id="linea-blanca" class="linea-a" points="824.7,120.4 69.7,120.4 69.7,255.4 				"/>
				<path id="bola-blanca" class="linea-b" d="M69.7,261.4c3.3,0,6-2.7,6-6c0-3.3-2.7-6-6-6s-6,2.7-6,6
					C63.7,258.7,66.4,261.4,69.7,261.4"/>
			</g>
		</g>
	</g>
	<g id="oceano_indico">
		<g id="islas-cies">

				<rect x="11.8" y="233.7" transform="matrix(0.7071 -0.7071 0.7071 0.7071 -163.6292 81.1112)" class="color-claro" width="8.6" height="8.6"/>

				<rect x="1.8" y="223.8" transform="matrix(0.7071 -0.7071 0.7071 0.7071 -159.4865 71.1327)" class="color-claro" width="8.6" height="8.6"/>

				<rect x="11.8" y="276.1" transform="matrix(0.7071 -0.7071 0.7071 0.7071 -193.6011 93.5212)" class="color-claro" width="8.6" height="8.6"/>

				<rect x="37.6" y="264.1" transform="matrix(0.707 -0.7072 0.7072 0.707 -176.611 106.07)" class="color-claro" width="4.2" height="4.2"/>

				<rect x="102.6" y="312.8" transform="matrix(0.7071 -0.7071 0.7071 0.7071 -192.0188 166.2758)" class="color-claro" width="4.2" height="4.2"/>

				<rect x="108.1" y="321.3" transform="matrix(0.7071 -0.7071 0.7071 0.7071 -196.4176 172.6386)" class="color-claro" width="4.2" height="4.2"/>

				<rect x="94.2" y="329" transform="matrix(0.7071 -0.7071 0.7071 0.7071 -205.8855 165.1125)" class="color-claro" width="4.2" height="4.2"/>

				<rect x="128" y="348.2" transform="matrix(0.707 -0.7072 0.7072 0.707 -209.6612 194.6857)" class="color-claro" width="4.2" height="4.2"/>

				<rect x="23.6" y="318.3" transform="matrix(0.7071 -0.7071 0.7071 0.7071 -219.0387 112.0167)" class="color-claro" width="4.2" height="4.2"/>

				<rect x="39.6" y="310.8" transform="matrix(0.7071 -0.7071 0.7071 0.7071 -209.0352 121.1248)" class="color-claro" width="4.2" height="4.2"/>

				<rect x="71.6" y="293.5" transform="matrix(0.7071 -0.7071 0.7071 0.7071 -188.3963 140.8983)" class="color-claro" width="8.7" height="8.6"/>

				<rect x="26.1" y="305.6" transform="matrix(0.7071 -0.7071 0.7071 0.7071 -210.2284 112.2565)" class="color-claro" width="8.7" height="8.6"/>

				<rect x="69.3" y="327.7" transform="matrix(0.7071 -0.7071 0.7071 0.7071 -213.1913 149.301)" class="color-claro" width="8.7" height="8.6"/>

				<rect x="48.8" y="348.1" transform="matrix(0.7071 -0.7071 0.7071 0.7071 -233.6418 140.8247)" class="color-claro" width="8.6" height="8.6"/>

				<rect x="77.7" y="364.6" transform="matrix(0.7071 -0.7071 0.7071 0.7071 -236.8596 166.0472)" class="color-claro" width="8.7" height="8.6"/>

				<rect x="117.5" y="352.2" transform="matrix(0.7071 -0.7071 0.7071 0.7071 -216.4435 190.5834)" class="color-claro" width="8.7" height="8.6"/>

				<rect x="89.5" y="291.5" transform="matrix(0.7071 -0.7071 0.7071 0.7071 -182.5583 155.0129)" class="color-claro" width="12.7" height="12.7"/>

				<rect x="147.1" y="342.8" transform="matrix(0.7071 -0.7071 0.7071 0.7071 -201.9389 210.752)" class="color-claro" width="12.7" height="12.7"/>

				<rect x="148.8" y="401.3" transform="matrix(0.7071 -0.7071 0.7071 0.7071 -242.8417 229.0703)" class="color-claro" width="12.7" height="12.7"/>
		</g>
	</g>
</g>
</svg>
