<svg xmlns="http://www.w3.org/2000/svg" viewBox="0 0 48.47 39.72"><defs><style>.cls-1{fill:#d6001c;}.cls-2{fill:#fff;}</style></defs><title>atras2Recurso 16</title><g id="Capa_2" data-name="Capa 2"><g id="Layer_1" data-name="Layer 1"><path class="cls-1" d="M4.31,0S0,0,0,4.31v31.1s0,4.31,4.31,4.31H44.16s4.31,0,4.31-4.31V4.31S48.47,0,44.16,0Z"/><path class="cls-2" d="M26.94,22.56a3.82,3.82,0,1,1,0-5.4,3.83,3.83,0,0,1,0,5.4"/><path class="cls-2" d="M32.17,28.34a1.84,1.84,0,0,1-1.29-.53,1.82,1.82,0,0,1,0-2.57,7.58,7.58,0,0,0,0-10.76,1.82,1.82,0,1,1,2.57-2.57,11.23,11.23,0,0,1,0,15.9,1.82,1.82,0,0,1-1.28.53"/><path class="cls-2" d="M36.28,33.69A1.84,1.84,0,0,1,35,33.16a1.82,1.82,0,0,1,0-2.57A15.14,15.14,0,0,0,35,9.13a1.82,1.82,0,0,1,2.57-2.57,18.78,18.78,0,0,1,0,26.6,1.78,1.78,0,0,1-1.28.53"/><path class="cls-2" d="M16.3,28.34A1.82,1.82,0,0,1,15,27.81a11.23,11.23,0,0,1,0-15.9,1.82,1.82,0,0,1,2.57,2.57,7.58,7.58,0,0,0,0,10.76,1.82,1.82,0,0,1,0,2.57,1.84,1.84,0,0,1-1.29.53"/><path class="cls-2" d="M12.19,33.69a1.76,1.76,0,0,1-1.28-.53,18.76,18.76,0,0,1,0-26.6,1.81,1.81,0,1,1,2.56,2.57,15.16,15.16,0,0,0,0,21.46,1.83,1.83,0,0,1,0,2.57,1.86,1.86,0,0,1-1.29.53"/></g></g></svg>