<svg width="17" height="14" viewBox="0 0 17 14" fill="none" xmlns="http://www.w3.org/2000/svg">
<path d="M12.4399 7.02332L8.56643 12.8015L4.59913 7.07462C4.16951 6.45603 3.93187 5.74622 3.91065 5.01821C3.88943 4.2902 4.08539 3.57028 4.47839 2.9325C4.87138 2.29471 5.44721 1.7621 6.14665 1.38944C6.84609 1.01678 7.64388 0.817536 8.45795 0.812196C9.27203 0.806856 10.073 0.995615 10.7785 1.35906C11.4839 1.7225 12.0684 2.2475 12.4719 2.88006C12.8753 3.51262 13.083 4.22989 13.0737 4.9581C13.0644 5.68631 12.8385 6.39916 12.419 7.02332H12.4399ZM8.49866 2.16361e-06C7.51847 -0.000819634 6.55581 0.232478 5.71012 0.675795C4.86444 1.11911 4.16641 1.75637 3.68813 2.52174C3.20985 3.2871 2.96868 4.15282 2.98953 5.02946C3.01037 5.90609 3.29248 6.76185 3.80671 7.50833L8.21193 13.8041C8.25294 13.864 8.31042 13.9134 8.37887 13.9477C8.44732 13.982 8.52446 14 8.60292 14V14C8.68157 13.9982 8.75849 13.9789 8.82674 13.9439C8.89499 13.9089 8.95244 13.8593 8.99392 13.7995L13.2271 7.46169C13.7279 6.71356 13.9978 5.85999 14.0094 4.98806C14.021 4.11613 13.7738 3.25705 13.2931 2.49846C12.8124 1.73987 12.1154 1.10894 11.2731 0.670012C10.4308 0.231088 9.47343 -0.000111089 8.49866 2.16361e-06" fill="currentColor"/>
<path d="M8.49967 6.56634C8.13548 6.56726 7.77917 6.47149 7.47585 6.29117C7.17253 6.11084 6.93585 5.85405 6.79576 5.55333C6.65567 5.2526 6.61848 4.92145 6.6889 4.6018C6.75932 4.28216 6.93418 3.98839 7.19134 3.7577C7.4485 3.527 7.77639 3.36975 8.13352 3.30585C8.49064 3.24195 8.86092 3.27428 9.1975 3.39874C9.53407 3.5232 9.82179 3.7342 10.0242 4.00502C10.2267 4.27584 10.3347 4.59431 10.3347 4.9201C10.3347 5.3559 10.1416 5.77392 9.79758 6.08252C9.45359 6.39112 8.98684 6.5651 8.49967 6.56634V6.56634ZM8.49967 2.46241C7.95504 2.46241 7.42264 2.60694 6.96987 2.87772C6.51709 3.14849 6.16429 3.53333 5.9561 3.98354C5.74792 4.43375 5.69371 4.92909 5.80034 5.40686C5.90698 5.88464 6.16966 6.32338 6.55514 6.66756C6.94062 7.01174 7.43157 7.24589 7.96587 7.34038C8.50017 7.43486 9.05379 7.38543 9.55667 7.19835C10.0595 7.01126 10.4891 6.69493 10.7909 6.28938C11.0928 5.88384 11.2533 5.40731 11.2523 4.9201C11.2523 4.59696 11.181 4.27699 11.0426 3.9785C10.9043 3.68002 10.7014 3.40888 10.4457 3.1806C10.1901 2.95232 9.88659 2.77138 9.55266 2.64815C9.21872 2.52491 8.8609 2.46179 8.49967 2.46241Z" fill="currentColor"/>
</svg>
