<svg id="logoBiomarine" xmlns="http://www.w3.org/2000/svg" viewBox="0 0 376 139.29">
  <defs>
    <style>.color_logo_1{fill:#32577b;}.color_logo_2{fill:#ba1524;}</style>
  </defs>
  <title>logobiomarine</title>
  <g id="icon">
    <path class="color_logo_1" d="M62.12,0A62.09,62.09,0,0,0,28.87,114.55v-9.19a54.63,54.63,0,1,1,65.4.82v9.07A62.11,62.11,0,0,0,62.12,0"/>
    <path class="color_logo_1" d="M87,126.2a8.62,8.62,0,0,0-3.17,1.66,13.1,13.1,0,0,1-16.39,0,7.79,7.79,0,0,0-10.15,0,13.09,13.09,0,0,1-16.38,0,8,8,0,0,0-3.72-1.78v8.56a7.91,7.91,0,0,1,3.72,1.77,13.09,13.09,0,0,0,16.38,0,7.82,7.82,0,0,1,10.15,0,13.1,13.1,0,0,0,16.39,0A8.62,8.62,0,0,1,87,134.75Z"/>
    <path class="color_logo_1" d="M87,110.47a8.8,8.8,0,0,0-3.17,1.67,13.1,13.1,0,0,1-16.39,0,7.79,7.79,0,0,0-10.15,0,13.09,13.09,0,0,1-16.38,0,7.92,7.92,0,0,0-3.72-1.78v8.56a7.81,7.81,0,0,1,3.72,1.77,13.09,13.09,0,0,0,16.38,0,7.79,7.79,0,0,1,10.15,0,13.1,13.1,0,0,0,16.39,0A8.8,8.8,0,0,1,87,119Z"/>
    <path class="color_logo_1" d="M87,110.51a8.75,8.75,0,0,0-3.17,1.65,13.06,13.06,0,0,1-16.39,0,7.82,7.82,0,0,0-10.15,0,13,13,0,0,1-16.38,0,8,8,0,0,0-3.72-1.77v8.55a7.92,7.92,0,0,1,3.72,1.78,13.09,13.09,0,0,0,16.38,0,7.79,7.79,0,0,1,10.15,0,13.1,13.1,0,0,0,16.39,0A8.62,8.62,0,0,1,87,119.06Z"/>
    <path class="color_logo_1" d="M96.59,47.29c-1.84-2.06-3.43-3.84-34.47,8.32-31-12.15-32.63-10.38-34.47-8.32a4,4,0,0,0-.58,4.52l.16.27c10.31,16.2,23.34,36,23.56,39.73,0,1.42-5.07,9.72-8,14.43a11.91,11.91,0,0,0,6.32,1.65A12.66,12.66,0,0,0,57.27,105a7.79,7.79,0,0,1,10.15,0,12.72,12.72,0,0,0,8.2,2.88,12.09,12.09,0,0,0,5.87-1.38c-2.94-4.66-8.2-13.24-8.2-14.67C73.51,88.08,86.7,68.28,97,52.08l.16-.27a4,4,0,0,0-.58-4.52"/>
  </g>
  <g id="biomarine">
    <path class="color_logo_1" d="M164.26,84.62a4.19,4.19,0,0,0-4.17-4.17h-6.93v8.38h6.93a4.2,4.2,0,0,0,4.17-4.21m-6.16-16h-4.94V77h4.94a4.19,4.19,0,0,0,0-8.38m10.4,16.52c0,4.54-3.47,7.41-7.82,7.41H149V64.9h9.62c4.39,0,7.89,2.95,7.89,7.48a6.47,6.47,0,0,1-3.35,5.93,6.79,6.79,0,0,1,5.38,6.82"/>
    <rect class="color_logo_1" x="172.85" y="64.9" width="4.23" height="27.65"/>
    <path class="color_logo_1" d="M204.43,78.72c0-5.71-3.75-10.17-9.47-10.17s-9.51,4.46-9.51,10.17,3.83,10.17,9.51,10.17,9.47-4.46,9.47-10.17m-23,0c0-7.85,5.65-14.19,13.5-14.19s13.5,6.34,13.5,14.19S202.77,92.91,195,92.91s-13.5-6.34-13.5-14.19"/>
    <polygon class="color_logo_1" points="241.59 64.9 241.59 92.54 237.38 92.54 237.38 70.94 227.17 86.35 217.07 70.94 217.07 92.54 212.83 92.54 212.83 64.9 217.37 64.9 227.21 79.53 237.09 64.9 241.59 64.9"/>
    <path class="color_logo_1" d="M263.59,83.44,258.2,69.25l-5.42,14.19ZM265,87H251.46l-2.14,5.56h-4.61l11.1-27.64h4.75l11.1,27.64h-4.61Z"/>
    <path class="color_logo_1" d="M285.37,77a4.19,4.19,0,0,0,0-8.37h-6.31V77Zm8.84,15.55h-4.75l-6.38-12.09h-4V92.54h-4.24V64.9h10.66a7.92,7.92,0,0,1,7.92,8,7.39,7.39,0,0,1-6,7.29Z"/>
    <rect class="color_logo_1" x="297.15" y="64.9" width="4.24" height="27.65"/>
    <polygon class="color_logo_1" points="330.59 64.9 330.59 92.54 326.39 92.54 310.8 71.49 310.8 92.54 306.56 92.54 306.56 64.9 310.75 64.9 326.39 85.95 326.39 64.9 330.59 64.9"/>
    <polygon class="color_logo_1" points="339.98 68.61 339.98 76.84 349.94 76.84 349.94 80.6 339.98 80.6 339.98 88.82 351.49 88.82 351.49 92.54 335.75 92.54 335.75 64.9 351.49 64.9 351.49 68.61 339.98 68.61"/>
  </g>
  <g id="center">
    <path class="color_logo_1" d="M148.18,121.7c0-7.85,5.64-14.19,13.5-14.19a12.09,12.09,0,0,1,7.08,2.29v5a9.25,9.25,0,0,0-7.08-3.32c-5.72,0-9.51,4.46-9.51,10.17s3.79,10.18,9.51,10.18a9.16,9.16,0,0,0,7.08-3.32v5.06a12.15,12.15,0,0,1-7.08,2.28c-7.86,0-13.5-6.34-13.5-14.2"/>
    <polygon class="color_logo_1" points="177.3 111.6 177.3 119.82 187.26 119.82 187.26 123.58 177.3 123.58 177.3 131.81 188.8 131.81 188.8 135.53 173.06 135.53 173.06 107.88 188.8 107.88 188.8 111.6 177.3 111.6"/>
    <polygon class="color_logo_1" points="217.07 107.88 217.07 135.53 212.87 135.53 197.28 114.48 197.28 135.53 193.04 135.53 193.04 107.88 197.24 107.88 212.87 128.93 212.87 107.88 217.07 107.88"/>
    <polygon class="color_logo_1" points="239.96 111.6 232.58 111.6 232.58 135.53 228.39 135.53 228.39 111.6 221.01 111.6 221.01 107.88 239.96 107.88 239.96 111.6"/>
    <polygon class="color_logo_1" points="248.1 111.6 248.1 119.82 258.05 119.82 258.05 123.58 248.1 123.58 248.1 131.81 259.6 131.81 259.6 135.53 243.86 135.53 243.86 107.88 259.6 107.88 259.6 111.6 248.1 111.6"/>
    <path class="color_logo_1" d="M274.38,120a4.19,4.19,0,0,0,0-8.37h-6.3V120Zm8.85,15.56h-4.76l-6.37-12.09h-4v12.09h-4.24V107.88h10.65a7.93,7.93,0,0,1,7.93,8,7.41,7.41,0,0,1-6,7.3Z"/>
  </g>
  <g id="pescanova">
    <path class="color_logo_2" d="M310.4,44.55c-5.16,0-8.18-3.84-8.18-8.81s3-8.86,8.18-8.86,8.11,3.84,8.11,8.86-2.95,8.81-8.11,8.81m0-23c-8,0-13.49,6.34-13.49,14.2s5.45,14.19,13.49,14.19,13.49-6.34,13.49-14.19-5.49-14.2-13.49-14.2"/>
    <polygon class="color_logo_2" points="345.83 21.91 337.88 43.11 329.87 21.91 323.64 21.91 334.74 49.56 340.97 49.56 352.06 21.91 345.83 21.91"/>
    <path class="color_logo_2" d="M361.06,39.28a16.67,16.67,0,0,0-3.75.3l4.5-12,4.8,12.92a16.64,16.64,0,0,0-5.55-1.19m3.85-17.37h-6.24l-11.1,27.65h6L355,45.75a11.36,11.36,0,0,1,5.84-1.38A11.22,11.22,0,0,1,370,49.56h6Z"/>
    <path class="color_logo_2" d="M250.32,39.28a16.53,16.53,0,0,0-3.74.3l4.49-12,4.8,12.92a16.64,16.64,0,0,0-5.55-1.19m-2.39-17.37-11.1,27.65h6l1.43-3.81a11.36,11.36,0,0,1,5.84-1.38,11.21,11.21,0,0,1,9.14,5.19h6l-11.1-27.65Z"/>
    <path class="color_logo_2" d="M159.87,33.63h-5.35v-6.9h5.35a3.46,3.46,0,1,1,0,6.9m.52-11.72H149V49.56h5.56V38.17h5.87a8,8,0,0,0,8.19-8,8.16,8.16,0,0,0-8.19-8.23"/>
    <polygon class="color_logo_2" points="171.64 49.56 188.04 49.56 188.04 44.7 177.21 44.7 177.21 38.17 186.5 38.17 186.5 33.3 177.21 33.3 177.21 26.73 188.04 26.73 188.04 21.91 171.64 21.91 171.64 49.56"/>
    <path class="color_logo_2" d="M203.24,32.89C200.43,31.78,198,30.83,198,29c0-1.69,1.56-2.77,3.77-2.77a8,8,0,0,1,6.38,2.88l3.61-3.51a13.71,13.71,0,0,0-10.14-4c-5.31,0-9.32,3-9.32,7.64,0,4.46,4,6.15,7.74,7.63,3.24,1.25,6.3,2.39,6.3,5,0,2.14-1.92,3-4.42,3A8.36,8.36,0,0,1,194.68,41l-3.83,3.8a13.84,13.84,0,0,0,10.91,5.12c5.64,0,10.25-2.61,10.25-8.22,0-5.35-4.79-7.23-8.77-8.82"/>
    <path class="color_logo_2" d="M215,35.74c0,7.85,5.46,14.19,13.49,14.19a12.38,12.38,0,0,0,6.43-1.81V41.93a8.51,8.51,0,0,1-6.43,2.73c-5.21,0-8.22-3.95-8.22-8.92s3-8.89,8.22-8.89a8.59,8.59,0,0,1,6.43,2.69V23.35a12.11,12.11,0,0,0-6.43-1.81c-8,0-13.49,6.34-13.49,14.2"/>
    <polygon class="color_logo_2" points="287.57 41.12 273.42 21.91 267.74 21.91 267.74 49.56 273.3 49.56 273.3 30.31 287.42 49.56 293.1 49.56 293.1 21.91 287.57 21.91 287.57 41.12"/>
  </g>
</svg>
