<svg xmlns="http://www.w3.org/2000/svg" viewBox="0 0 68.34 68"><defs><style>.cls-1{fill:#fff;}.cls-2{fill:none;}</style></defs><title>moluscoAsset 4</title><g id="Layer_2" data-name="Layer 2"><g id="Capa_1" data-name="Capa 1"><path class="cls-1" d="M66.39,18.65l-.09-1.16-1-.49C47.75,8.74,35.25,8.91,34,9S20.18,8.74,2.67,17l-1,.49-.1,1.16c0,.3-2,30.73,31.88,40.55l.55.16.56-.16C68.43,49.38,66.42,19,66.39,18.65ZM34,55.19C7,47.1,5.45,25.4,5.48,20.1a90.24,90.24,0,0,1,10.48-4,81.47,81.47,0,0,0,3.88,21.05l3.78-1.31A79.64,79.64,0,0,1,19.91,15,61.5,61.5,0,0,1,32,13V36.48h4V13a61.5,61.5,0,0,1,12,2,78.93,78.93,0,0,1-3.7,20.87l3.77,1.31A81.21,81.21,0,0,0,52,16.08a89,89,0,0,1,10.47,4C62.47,25.4,60.91,47.1,34,55.19Z"/><rect class="cls-2" width="68.34" height="68"/></g></g></svg>