<svg xmlns="http://www.w3.org/2000/svg" viewBox="0 0 353.79 9.97"><defs><style>.cls-1{fill:#9ab7cc;}</style></defs><title>onda marRecurso 34</title><g id="Capa_2" data-name="Capa 2"><g id="Layer_1" data-name="Layer 1"><path class="cls-1" d="M121.89,10C117.45,10,113,8.64,110,6c-5-4.46-15.23-4.46-20.24,0C83.77,11.31,72,11.3,66,6,61,1.52,50.78,1.52,45.76,6,39.77,11.31,28,11.3,22,6,17,1.52,6.77,1.52,1.76,6L0,4C6-1.33,17.77-1.33,23.76,4,28.77,8.45,39,8.45,44,4c6-5.33,17.77-5.33,23.77,0C72.78,8.45,83,8.45,88,4c6-5.33,17.76-5.33,23.76,0,5,4.45,15.23,4.45,20.24,0,6-5.33,17.77-5.33,23.76,0,5,4.45,15.23,4.45,20.25,0,6-5.33,17.76-5.33,23.76,0,5,4.45,15.23,4.45,20.24,0,6-5.33,17.76-5.33,23.76,0,5,4.45,15.23,4.45,20.24,0,6-5.33,17.77-5.33,23.77,0C292.8,8.45,303,8.45,308,4c6-5.33,17.76-5.33,23.76,0C336.8,8.45,347,8.45,352,4l1.76,2c-6,5.33-17.77,5.33-23.76,0-5-4.46-15.23-4.46-20.24,0-6,5.33-17.77,5.32-23.76,0-5-4.46-15.23-4.46-20.25,0-6,5.33-17.76,5.32-23.76,0-5-4.46-15.23-4.46-20.24,0-6,5.33-17.77,5.33-23.76,0-5-4.46-15.23-4.46-20.24,0-6,5.33-17.77,5.33-23.77,0-5-4.46-15.22-4.46-20.24,0C130.77,8.64,126.33,10,121.89,10Z"/></g></g></svg>