<svg version="1.1" id="datos-pacifico" xmlns="http://www.w3.org/2000/svg" xmlns:xlink="http://www.w3.org/1999/xlink" x="0px"
	 y="0px" viewBox="0 0 824.7 393.9" style="enable-background:new 0 0 824.7 393.9;" xml:space="preserve">
<style type="text/css">
	.color-claro{fill:#C46E6B;}
	.campo-linea-color{fill:#B60121;}
	.linea-a{fill:none;stroke:#FFFFFF;}
	.linea-b{fill:#FFFFFF;}
</style>
<title>peninsulaAsset 25</title>
<g id="Layer_pacifico">
	<g id="pacifico-norte">
		<g id="datos-1">
			<g id="imagen-pacifico-norte">
				<polygon id="peninsula" class="color-claro" points="10.4,252.8 10.4,264.5 15.9,269.9 15.9,284 8.6,291.2 8.6,312 0,320.7 0,331.1
					5.8,337 12.5,337 12.5,369.1 37.3,369.1 51.9,369.1 60,377.2 60,383.9 70,393.9 76.7,393.9 87.1,383.5 93.7,383.5 99,378.2
					139.7,378.2 145.8,372.1 158.9,359 166.3,359 166.3,348.2 185,329.5 177.8,322.3 177.8,306.7 194.4,290.1 194.4,279.2
					202,271.5 212.9,271.5 222.8,261.6 230.6,261.6 243.1,249.1 243.1,229.7 182.5,229.7 174.8,222 155.8,222 146.1,212.3
					134.1,212.3 117.9,212.3 113.2,207.6 103.5,207.6 98.9,212.2 81.5,212.2 75.4,206.1 41.3,206.1 35.7,200.5 28.5,200.5
					16.5,212.5 8.8,212.5 2.2,219.2 2.2,225.3 10.4,233.6 				"/>
				<g id="montanyas">
					<polygon class="campo-linea-color" points="47.3,356.5 39.8,343.9 39.6,343.8 39.4,343.9 31.9,356.5 39.6,356.5 					"/>
					<polygon class="campo-linea-color" points="62.7,356.5 55.2,343.9 55,343.8 54.8,343.9 47.3,356.5 55,356.5 					"/>
					<polygon class="campo-linea-color" points="137.5,331.1 130,318.6 129.8,318.5 129.6,318.6 122.1,331.1 129.8,331.1 					"/>
					<polygon class="campo-linea-color" points="153,331.1 145.4,318.6 145.2,318.5 145.1,318.6 137.5,331.1 145.2,331.1 					"/>
					<polygon class="campo-linea-color" points="158.9,294.6 153.1,284.9 153,284.8 152.8,284.9 147,294.6 153,294.6 					"/>
					<polygon class="campo-linea-color" points="115.3,237.4 107.7,224.8 107.5,224.7 107.4,224.8 99.8,237.4 107.5,237.4 					"/>
					<polygon class="campo-linea-color" points="130.7,237.4 123.2,224.8 123,224.7 122.8,224.8 115.3,237.4 123,237.4 					"/>
					<polygon class="campo-linea-color" points="145.2,250 139.4,240.2 139.3,240.1 139.2,240.2 133.4,250 139.3,250 					"/>
				</g>
			</g>
			<g id="linea-datos1">
				<polyline id="linea-blanca" class="linea-a" points="824.7,120.4 69.7,120.4 69.7,255.4 				"/>
				<path id="bola-blanca" class="linea-b" d="M69.7,261.4c3.3,0,6-2.7,6-6c0-3.3-2.7-6-6-6s-6,2.7-6,6
					C63.7,258.7,66.4,261.4,69.7,261.4"/>
			</g>
		</g>
	</g>
</g>
</svg>
