<svg width="17" height="14" viewBox="0 0 17 14" fill="none" xmlns="http://www.w3.org/2000/svg">
<g clip-path="url(#clip0)">
<path d="M1.8914 7.10324C1.67137 7.1194 1.45417 7.04296 1.28658 6.89039C1.11899 6.73781 1.01441 6.52131 0.995354 6.2875V4.72488L3.43459 6.02265V7.08205L1.8914 7.10324ZM1.8914 8.16264H3.43459V9.22205L0.995354 10.541V9.00487C1.01441 8.77106 1.11899 8.55456 1.28658 8.40199C1.45417 8.24941 1.67137 8.17298 1.8914 8.18913V8.16264ZM7.36724 11.7222C8.18055 11.953 9.01523 12.088 9.85626 12.1248C9.09242 12.5866 8.24289 12.865 7.36724 12.9405V11.7222ZM12.9924 10.3609C12.2557 9.59813 11.3795 8.61289 11.3795 7.63294C11.3795 6.653 12.2557 5.66775 12.9924 4.90498C14.194 5.5007 15.2124 6.44656 15.9295 7.63294C15.217 8.81953 14.2017 9.76573 13.0024 10.3609H12.9924ZM10.6279 3.17816C10.4486 3.17816 10.2744 3.17816 10.0902 3.17816C8.96502 3.19839 7.84841 3.39106 6.77486 3.75023V1.10173C7.94039 1.20171 9.0498 1.67649 9.95582 2.46306C10.1973 2.68206 10.422 2.92118 10.6279 3.17816V3.17816ZM4.4302 5.98557C6.14621 4.89955 8.09445 4.29786 10.0902 4.23756C10.7177 4.23351 11.3427 4.32265 11.947 4.50241C11.1705 5.34463 10.369 6.40404 10.369 7.63294C10.369 8.86185 11.1705 9.92125 11.947 10.7688C11.3376 10.9493 10.7079 11.0402 10.0753 11.0389C8.08372 10.9727 6.14087 10.3675 4.4302 9.28031V5.98557ZM0.577199 7.63294C0.395025 7.80497 0.249323 8.01627 0.149765 8.2528C0.0502065 8.48934 -0.000931133 8.7457 -0.000253342 9.00487V11.4256C-0.000422633 11.5156 0.020971 11.6042 0.061908 11.683C0.102845 11.7618 0.161975 11.8281 0.233714 11.8758C0.312936 11.9281 0.404349 11.9556 0.49755 11.9553C0.575478 11.9548 0.652207 11.9348 0.721562 11.897L3.90253 10.2073C4.67541 10.7017 5.49666 11.1049 6.35172 11.4097V13.4914C6.35114 13.5732 6.36836 13.654 6.40205 13.7276C6.43573 13.8011 6.48496 13.8653 6.54587 13.9152C6.63276 13.987 6.73954 14.0261 6.84953 14.0264H6.91424C8.44023 14.0173 9.92197 13.4799 11.1356 12.4956C11.3412 12.3317 11.5374 12.1548 11.723 11.9659C12.1858 11.8603 12.6389 11.7114 13.0771 11.5209C14.7007 10.7987 16.0538 9.52468 16.9251 7.89779C16.9688 7.81727 16.9918 7.72593 16.9918 7.63294C16.9918 7.53996 16.9688 7.44862 16.9251 7.36809C16.0432 5.75439 14.6852 4.49565 13.0621 3.78731C12.7202 3.64013 12.3693 3.51801 12.0118 3.42182C11.6228 2.75043 11.1335 2.15106 10.5631 1.64732C9.37398 0.597979 7.88157 0.0162586 6.33679 -4.98998e-05C6.20729 -0.0167647 6.0768 0.0212767 5.97339 0.10589C5.91157 0.15523 5.86139 0.21921 5.82682 0.292762C5.79226 0.366314 5.77427 0.447418 5.77427 0.529651V4.11043C5.12487 4.37669 4.49857 4.70281 3.90253 5.08508L0.721562 3.39533C0.645886 3.34884 0.560043 3.32437 0.47266 3.32437C0.385277 3.32437 0.299434 3.34884 0.223758 3.39533C0.150916 3.44619 0.0918909 3.51649 0.0525809 3.59922C0.0132708 3.68194 -0.00494738 3.7742 -0.000253342 3.86677V6.2875C0.00163482 6.54237 0.054044 6.79395 0.153549 7.02579C0.253054 7.25763 0.397416 7.46452 0.577199 7.63294" fill="#D6001C"/>
<path d="M13.6345 7.10303C13.7665 7.10303 13.8932 7.15884 13.9865 7.25817C14.0799 7.35751 14.1323 7.49224 14.1323 7.63273C14.1323 7.73749 14.1031 7.83991 14.0484 7.92701C13.9937 8.01412 13.916 8.08202 13.825 8.12211C13.7341 8.1622 13.634 8.17269 13.5374 8.15225C13.4408 8.13181 13.3521 8.08136 13.2825 8.00728C13.2129 7.9332 13.1655 7.83882 13.1463 7.73607C13.1271 7.63332 13.1369 7.52681 13.1746 7.43002C13.2123 7.33323 13.2761 7.2505 13.358 7.1923C13.4398 7.13409 13.5361 7.10303 13.6345 7.10303Z" fill="#D6001C"/>
</g>
<defs>
<clipPath id="clip0">
<rect width="17" height="14" fill="white"/>
</clipPath>
</defs>
</svg>
