<svg version="1.1" id="icono-plasticos" xmlns="http://www.w3.org/2000/svg" xmlns:xlink="http://www.w3.org/1999/xlink" x="0px"
	 y="0px" viewBox="0 0 96.8 97" style="enable-background:new 0 0 96.8 97;" xml:space="preserve">
<style type="text/css">
	.color-icono{fill:#32597A;}
</style>
<g id="Layer_icono-plastico">
	<g id="pacifico-norte">
		<g id="icono-datos">
			<path class="color-icono" d="M94.4,94.6H68.1c0.6-0.9,1-2,1-3.1V70.9c0-0.7-0.2-1.5-0.7-2.1c0.4-0.5,0.7-1.1,0.7-1.7v-4.7
				c0-0.5-0.1-0.9-0.4-1.3c0.3-0.4,0.4-0.9,0.4-1.3V55c0-0.6-0.2-1.2-0.7-1.7c0.4-0.6,0.7-1.4,0.7-2.2V51c0-1.2-0.1-2.3-0.4-3.5
				c4.4-0.7,8.8-0.3,13,1.2c1.7,0.6,3.5-0.3,4.1-1.9c0.1-0.3,0.2-0.7,0.2-1.1V35.2c0-2.6,2.1-4.8,4.8-4.8h3.7L94.4,94.6z M60.4,91.5
				v-2.3c0-0.7-0.5-1.2-1.2-1.2c-0.7,0-1.2,0.5-1.2,1.2v2.3c0.1,1.7-1.2,3.2-2.9,3.3s-3.2-1.2-3.3-2.9c0-0.1,0-0.2,0-0.4v-2.3
				c0-0.7-0.5-1.2-1.2-1.2c-0.7,0-1.2,0.5-1.2,1.2v2.3c0,1-0.4,1.9-1.2,2.5l2.3-24.3h15c0.7,0,1.2,0.5,1.2,1.2v20.6
				c0,1.7-1.4,3.1-3.1,3.1S60.5,93.2,60.4,91.5 M2.4,89.3c0-0.9,0.2-1.8,0.6-2.6c1.8-3.7,2.7-7.8,2.7-12c0-3.1-0.5-6.1-1.4-9
				c-1.2-3.5-1.8-7.2-1.9-10.9h24l-1.9,5h-1.4c-0.6,0-1.1,0.6-1.1,1.2v7.4c0,0.7,0.5,1.2,1.2,1.2h0h1.4l2.3,25h-20
				C4.4,94.7,2.4,92.3,2.4,89.3 M11.5,2.4h11.1v7.1H11.5V2.4z M11.2,11.9H23l8.3,23H2.9L11.2,11.9z M28.2,52.5H2.4V37.3h29.4v6.4
				H17.1c-0.7,0.1-1.1,0.6-1.1,1.3c0.1,0.6,0.5,1,1.1,1.1h14.7v6.4L28.2,52.5z M43.3,51c0-4.7,2.5-8.9,6.6-11.1
				c0.4-0.2,0.7-0.6,0.7-1.1V34h8.8v4.8c0,0.5,0.2,0.9,0.6,1.1c4.1,2.2,6.7,6.5,6.7,11.1v0.1c0,0.7-0.5,1.3-1.2,1.3h-21
				c-0.7,0-1.2-0.6-1.2-1.3L43.3,51z M47.8,25.5h3.1v6h-1.5c-0.1,0-0.2,0-0.3,0h-1.3L47.8,25.5z M61.8,31.6h-1c-0.1,0-0.2,0-0.3,0
				h-1.9v-6h3.1L61.8,31.6z M53.3,25.5h3.1v6h-3.1L53.3,25.5z M53.1,62.2h13.4c0.1,0,0.2,0.1,0.2,0.2v0v4.7c0,0.1-0.1,0.2-0.2,0.2h0
				H53.1L53.1,62.2z M66.5,54.8c0.1,0,0.2,0.1,0.2,0.1c0,0,0,0,0,0v4.7c0,0.1-0.1,0.2-0.2,0.2l0,0h-16l-1.9-5h16.8
				c0.1,0,0.3,0,0.4,0L66.5,54.8z M29,54.9h15c0.1,0,0.3,0,0.4,0h1.6l1.6,4.4H27.3L29,54.9z M49.4,67.3H24.3v-5h26.4v5H49.4z
				 M45.8,94.5H29.2l-2.3-24.9h21.2L45.8,94.5z M95.6,28h-4.9c-3.9,0-7.1,3.2-7.2,7.2v10.6c0,0.3-0.1,0.5-0.4,0.7
				c-0.2,0.2-0.5,0.2-0.8,0.1c-4.6-1.7-9.6-2.1-14.5-1.3c-1.2-3-3.4-5.5-6.2-7.2v-4H63c0.7,0,1.2-0.5,1.2-1.2l0,0v-8.5
				c0-0.7-0.5-1.2-1.2-1.2c0,0,0,0,0,0H46.6c-0.7,0-1.2,0.5-1.2,1.2v8.4c0,0.7,0.5,1.2,1.2,1.2c0,0,0,0,0,0h1.5v4.1
				c-4.6,2.7-7.4,7.7-7.3,13v0.1c0,0.5,0.1,0.9,0.2,1.3h-6.9V36.1c0,0,0,0,0-0.1c0,0,0-0.1,0-0.1v-0.1c0,0,0,0,0-0.1L25,10.5V1.2
				C25,0.5,24.5,0,23.9,0H10.3C9.7,0,9.1,0.5,9.1,1.2v9.3L0.1,35.7c0,0,0,0,0,0.1v0.1c0,0,0,0.1,0,0.1c0,0,0,0,0,0.1v17.5
				C0,58,0.7,62.4,2,66.5c0.9,2.7,1.3,5.4,1.3,8.2c0.1,3.8-0.8,7.5-2.4,10.9C0.3,86.8,0,88.1,0,89.3C0,93.6,3.1,97,6.9,97h21.5
				c0.1,0,0.3,0,0.4-0.1h17.1c0.1,0.1,0.3,0.1,0.4,0.1c1.7,0,3.3-0.8,4.3-2.1c1.9,2.4,5.4,2.8,7.7,0.9c0.3-0.3,0.6-0.6,0.9-0.9
				c1,1.3,2.6,2.1,4.3,2.1h32.1c0.7,0,1.2-0.5,1.2-1.2c0,0,0,0,0,0V29.2C96.8,28.6,96.3,28,95.6,28C95.6,28,95.6,28,95.6,28"/>
			<path class="color-icono" d="M78,86.8c-0.7,0-1.2,0.6-1.2,1.2c0,0.7,0.6,1.2,1.2,1.2c0.7,0,1.2-0.5,1.2-1.2C79.2,87.3,78.7,86.8,78,86.8
				C78,86.8,78,86.8,78,86.8"/>
			<path class="color-icono" d="M73,86.8c-0.7,0-1.2,0.5-1.2,1.2s0.5,1.2,1.2,1.2s1.2-0.5,1.2-1.2v0C74.2,87.3,73.7,86.8,73,86.8"/>
			<path class="color-icono" d="M83.1,86.8c-0.7,0-1.2,0.5-1.2,1.2s0.5,1.2,1.2,1.2c0.7,0,1.2-0.5,1.2-1.2C84.3,87.3,83.8,86.8,83.1,86.8
				C83.1,86.8,83.1,86.8,83.1,86.8"/>
			<path class="color-icono" d="M88,86.8c-0.1,0-0.2,0-0.2,0.1c-0.1,0-0.1,0.1-0.2,0.1c-0.1,0-0.1,0.1-0.2,0.1c-0.1,0.1-0.1,0.1-0.2,0.2
				c0,0.1-0.1,0.1-0.1,0.2c0,0.1,0,0.1-0.1,0.2c0,0.1-0.1,0.2-0.1,0.2c0,0.1,0,0.2,0,0.2c0,0.1,0,0.1,0.1,0.2c0,0.1,0.1,0.1,0.1,0.2
				l0.2,0.2l0.2,0.2l0.2,0.1c0.1,0,0.1,0.1,0.2,0.1c0.1,0,0.2,0,0.2,0c0.1,0,0.2,0,0.2,0c0.1,0,0.1,0,0.2-0.1l0.2-0.1l0.2-0.2
				c0.2-0.2,0.4-0.5,0.4-0.8c0-0.7-0.5-1.2-1.2-1.2C88.1,86.8,88,86.8,88,86.8"/>
			<path class="color-icono" d="M37.5,76.5c1.9,0,3.5,1.6,3.5,3.5c0,1.9-1.6,3.5-3.5,3.5c-1.9,0-3.5-1.6-3.5-3.5
				C34,78.1,35.5,76.5,37.5,76.5C37.5,76.5,37.5,76.5,37.5,76.5 M37.5,85.9c3.2,0,5.9-2.6,5.9-5.8c0-3.2-2.6-5.9-5.8-5.9
				c-3.2,0-5.9,2.6-5.9,5.8c0,0,0,0,0,0C31.7,83.2,34.3,85.9,37.5,85.9"/>
		</g>
	</g>
</g>
</svg>
