<svg xmlns="http://www.w3.org/2000/svg" viewBox="0 0 104.42 90.68"><defs><style>.cls-1{fill:#fff;}</style></defs><title>nuboso-tormenta-granizo-fuerteAsset 23</title><g id="Layer_2" data-name="Layer 2"><g id="piscina2"><path class="cls-1" d="M30.22,90.68a2.73,2.73,0,0,1-1.94-.81,2.77,2.77,0,0,1-.81-1.94,3.07,3.07,0,0,1,.21-1.05,2.37,2.37,0,0,1,.26-.47,2.72,2.72,0,0,1,.34-.42,2.76,2.76,0,0,1,2.48-.75,2.29,2.29,0,0,1,.51.15,2.77,2.77,0,0,1,.48.26,2.72,2.72,0,0,1,.42.34,3.47,3.47,0,0,1,.34.42,2.64,2.64,0,0,1,.25.47,3.33,3.33,0,0,1,.16.51,2.94,2.94,0,0,1,0,1.08,3,3,0,0,1-.16.51,2.54,2.54,0,0,1-.59.89A2.77,2.77,0,0,1,30.22,90.68ZM51.4,78.88a2,2,0,0,0,.34-.42A1.92,1.92,0,0,0,52,78a2.56,2.56,0,0,0,.16-1.59,2.32,2.32,0,0,0-.16-.51,2.19,2.19,0,0,0-.25-.48A2.25,2.25,0,0,0,51.4,75a2.79,2.79,0,0,0-.42-.35,4.23,4.23,0,0,0-.47-.25,2.38,2.38,0,0,0-.52-.15,2.42,2.42,0,0,0-1.07,0,2.38,2.38,0,0,0-.52.15,4.23,4.23,0,0,0-.47.25,2.79,2.79,0,0,0-.42.35,2.54,2.54,0,0,0-.59.89,3,3,0,0,0-.16.51,3.29,3.29,0,0,0,0,.54,2.76,2.76,0,0,0,.8,1.94,2.72,2.72,0,0,0,.42.34,2.77,2.77,0,0,0,.48.26,2.74,2.74,0,0,0,.51.15,2.48,2.48,0,0,0,.54.06A2.77,2.77,0,0,0,51.4,78.88ZM63.73,90.63a3.13,3.13,0,0,0,.52-.16,3,3,0,0,0,.47-.25,2.78,2.78,0,0,0,1.22-2.29,2.47,2.47,0,0,0,0-.54,2.5,2.5,0,0,0-.16-.51,1.92,1.92,0,0,0-.25-.47,2.58,2.58,0,0,0-.76-.76,3.1,3.1,0,0,0-.47-.26,2.38,2.38,0,0,0-.52-.15,2.42,2.42,0,0,0-1.07,0,2.38,2.38,0,0,0-.52.15,3.1,3.1,0,0,0-.47.26,2.58,2.58,0,0,0-.76.76,2.64,2.64,0,0,0-.25.47,3.33,3.33,0,0,0-.16.51,2.94,2.94,0,0,0,0,1.08,3,3,0,0,0,.16.51,2.73,2.73,0,0,0,.25.48,2.25,2.25,0,0,0,.34.41,2.76,2.76,0,0,0,2,.81A3.07,3.07,0,0,0,63.73,90.63ZM41.14,58.37,35.8,57,30.31,79l5.33,1.33Zm16.48,0L52.29,57,49.54,68l5.33,1.33Zm16.49,0L68.78,57l-5.5,22,5.33,1.33ZM85.18,27.48H76.81a30.22,30.22,0,0,0-60.21.2A19.23,19.23,0,0,0,19.24,66H22v-5.5H19.24A13.74,13.74,0,1,1,33,46.71v2.75h5.5V46.71a19.25,19.25,0,0,0-16.36-19,24.73,24.73,0,0,1,49.33,2.51V33H85.18a13.74,13.74,0,0,1,0,27.48H82.43V66h2.75a19.24,19.24,0,1,0,0-38.47Z"/></g></g></svg>