<svg xmlns="http://www.w3.org/2000/svg" viewBox="0 0 104.42 83.02"><defs><style>.cls-1{fill:#fff;}</style></defs><title>nuboso-tormenta-fuerteAsset 21</title><g id="Layer_2" data-name="Layer 2"><g id="piscina2"><path class="cls-1" d="M104.42,46.71A19.26,19.26,0,0,1,85.18,66H82.43v-5.5h2.75a13.74,13.74,0,0,0,0-27.48H71.44V30.23a24.73,24.73,0,0,0-49.33-2.51,19.25,19.25,0,0,1,16.36,19v2.75H33V46.71A13.74,13.74,0,1,0,19.23,60.45H22V66H19.23A19.23,19.23,0,0,1,16.6,27.68a30.22,30.22,0,0,1,60.21-.2h8.37A19.26,19.26,0,0,1,104.42,46.71Zm-62.62,9-5.33-1.33L29.64,81.68,35,83Zm16.49,0L53,54.37,48.88,70.69,54.21,72Zm16.48,0-5.33-1.33L62.61,81.68,68,83Z"/></g></g></svg>