<svg xmlns="http://www.w3.org/2000/svg" viewBox="0 0 104.42 101.72"><defs><style>.cls-1{fill:#fff;}</style></defs><title>nuboso-tormenta-granizo-fuerte-nocheAsset 48</title><g id="Layer_2" data-name="Layer 2"><g id="piscina2"><path class="cls-1" d="M96.9,42.54a24.74,24.74,0,0,0,7.52-17.76c0-.2,0-.4,0-.6l-.13-3.62-3.31.85a19.55,19.55,0,0,1-4.78.62A19.14,19.14,0,0,1,77,3.42L76.86,0,73.54.85A24.82,24.82,0,0,0,57.85,13.18,30.19,30.19,0,0,0,16.6,38.72,19.23,19.23,0,0,0,19.23,77H22v-5.5H19.23A13.74,13.74,0,1,1,33,57.76V60.5h5.5V57.76a19.26,19.26,0,0,0-16.36-19,24.73,24.73,0,0,1,49.33,2.51V44H85.18a13.74,13.74,0,1,1,0,27.47H82.43V77h2.75A19.21,19.21,0,0,0,96.9,42.54Zm-20.09-4A30.22,30.22,0,0,0,62.76,15.68a19.31,19.31,0,0,1,9.1-8.44A24.58,24.58,0,0,0,96.17,27.53a24.74,24.74,0,0,0,2.57-.14,19.21,19.21,0,0,1-6.95,12.32,19.36,19.36,0,0,0-6.61-1.19Z"/><path class="cls-1" d="M32.76,97.92a2.64,2.64,0,0,0-.25-.47,2.79,2.79,0,0,0-.35-.42,2.25,2.25,0,0,0-.41-.34,3.1,3.1,0,0,0-.47-.26,2.38,2.38,0,0,0-.52-.15,2.42,2.42,0,0,0-1.07,0,2.38,2.38,0,0,0-.52.15,3.1,3.1,0,0,0-.47.26,2.58,2.58,0,0,0-.76.76,2.12,2.12,0,0,0-.25.47,2.79,2.79,0,0,0-.22,1,2.77,2.77,0,0,0,.81,1.94,2.73,2.73,0,0,0,1.94.81,3.29,3.29,0,0,0,.54,0,3,3,0,0,0,.51-.16,2.73,2.73,0,0,0,.48-.25,3.42,3.42,0,0,0,.76-.76,2.73,2.73,0,0,0,.25-.48,3,3,0,0,0,.16-.51,2.94,2.94,0,0,0,0-1.08A3.33,3.33,0,0,0,32.76,97.92Z"/><path class="cls-1" d="M52,86.93a2.77,2.77,0,0,0-.26-.48A2.25,2.25,0,0,0,51.4,86,2.31,2.31,0,0,0,51,85.7a2.37,2.37,0,0,0-.47-.26,3.33,3.33,0,0,0-.51-.16,2.8,2.8,0,0,0-1.08,0,3,3,0,0,0-.51.16,2.77,2.77,0,0,0-.48.26,2.59,2.59,0,0,0-1,1.23,3.33,3.33,0,0,0-.16.51,2.94,2.94,0,0,0,0,1.08,3.33,3.33,0,0,0,.16.51,2.54,2.54,0,0,0,.59.89,2.79,2.79,0,0,0,.42.35,3.62,3.62,0,0,0,.48.25,2.15,2.15,0,0,0,.51.15,2.48,2.48,0,0,0,.54.06,2.77,2.77,0,0,0,1.94-.81,2.25,2.25,0,0,0,.34-.41A2.77,2.77,0,0,0,52,89a3.28,3.28,0,0,0,.15-.51,2.46,2.46,0,0,0,0-1.08A3.28,3.28,0,0,0,52,86.93Z"/><path class="cls-1" d="M65.73,97.92a2.64,2.64,0,0,0-.25-.47,2.58,2.58,0,0,0-.76-.76,3.1,3.1,0,0,0-.47-.26,2.38,2.38,0,0,0-.52-.15,2.42,2.42,0,0,0-1.07,0,2.38,2.38,0,0,0-.52.15,3.1,3.1,0,0,0-.47.26,2.72,2.72,0,0,0-.42.34,3.47,3.47,0,0,0-.34.42,2.64,2.64,0,0,0-.25.47,3.33,3.33,0,0,0-.16.51,2.94,2.94,0,0,0,0,1.08,3,3,0,0,0,.16.51,2.74,2.74,0,0,0,2.54,1.7,3.07,3.07,0,0,0,.53,0,3.13,3.13,0,0,0,.52-.16,3,3,0,0,0,.47-.25A2.81,2.81,0,0,0,66,99a2.79,2.79,0,0,0-.22-1Z"/><rect class="cls-1" x="24.39" y="76.99" width="22.66" height="5.5" transform="translate(-50.3 95.07) rotate(-75.97)"/><rect class="cls-1" x="47.92" y="71.49" width="11.33" height="5.5" transform="translate(-31.45 108.2) rotate(-75.95)"/><rect class="cls-1" x="57.36" y="76.99" width="22.66" height="5.5" transform="translate(-25.32 127.06) rotate(-75.97)"/></g></g></svg>