<svg xmlns="http://www.w3.org/2000/svg" viewBox="0 0 104.42 82.43"><defs><style>.cls-1{fill:#fff;}</style></defs><title>nuboso-vientoAsset 27</title><g id="Layer_2" data-name="Layer 2"><g id="piscina2"><path class="cls-1" d="M104.42,46.71A19.26,19.26,0,0,1,85.18,66H82.43v-5.5h2.75a13.74,13.74,0,0,0,0-27.48H71.44V30.23a24.73,24.73,0,0,0-49.33-2.51,19.25,19.25,0,0,1,16.36,19v2.75H33V46.71A13.74,13.74,0,1,0,19.23,60.45H22V66H19.23A19.23,19.23,0,0,1,16.6,27.68a30.22,30.22,0,0,1,60.21-.2h8.37A19.26,19.26,0,0,1,104.42,46.71Zm-55,30.23H0v5.49H49.46ZM76.94,52.21A8.26,8.26,0,0,0,68.69,44H55v5.5H68.69a2.75,2.75,0,0,1,0,5.5H27.48v5.49h44V60A8.25,8.25,0,0,0,76.94,52.21Zm-5.5,14.22V66h-44v5.49H68.69a2.75,2.75,0,0,1,0,5.5H55v5.49H68.69a8.23,8.23,0,0,0,2.75-16Z"/></g></g></svg>