<svg xmlns="http://www.w3.org/2000/svg" viewBox="0 0 115.41 105"><defs><style>.cls-1{fill:#fff;}</style></defs><title>poco-nuboso-tormenta-fuerteAsset 34</title><g id="Layer_2" data-name="Layer 2"><g id="piscina2"><rect class="cls-1" x="71.44" width="5.5" height="10.99"/><rect class="cls-1" x="104.42" y="38.47" width="10.99" height="5.5"/><rect class="cls-1" x="93.95" y="13.21" width="10.99" height="5.5" transform="translate(17.84 75) rotate(-45)"/><path class="cls-1" d="M96,52.82A24.72,24.72,0,0,0,56.75,23.7a30.21,30.21,0,0,0-40.15,26,19.23,19.23,0,0,0,2.64,38.27H22v-5.5H19.24A13.74,13.74,0,1,1,33,68.69v2.75h5.5V68.69a19.25,19.25,0,0,0-16.36-19,24.73,24.73,0,0,1,49.33,2.51V55H85.18a13.74,13.74,0,1,1,0,27.47H82.43v5.5h2.75A19.22,19.22,0,0,0,96,52.82ZM76.81,49.46A30.28,30.28,0,0,0,62.14,26.23,19.23,19.23,0,0,1,91.08,50.4a18.89,18.89,0,0,0-5.9-.94Z"/><rect class="cls-1" x="21.64" y="87.93" width="28.15" height="5.5" transform="translate(-60.91 103.34) rotate(-75.96)"/><rect class="cls-1" x="45.17" y="82.43" width="16.82" height="5.5" transform="translate(-42.05 116.5) rotate(-75.96)"/><rect class="cls-1" x="54.62" y="87.93" width="28.15" height="5.5" transform="translate(-35.94 135.32) rotate(-75.96)"/></g></g></svg>