<svg xmlns="http://www.w3.org/2000/svg" viewBox="0 0 115.41 104.42"><defs><style>.cls-1{fill:#fff;}</style></defs><title>poco-nuboso-escarchaAsset 37</title><g id="Layer_2" data-name="Layer 2"><g id="piscina2"><path class="cls-1" d="M76.94,11h-5.5V0h5.5Zm27.47,27.48V44h11V38.47ZM105.28,14l-3.89-3.89L93.62,17.9l3.88,3.89Zm-.86,54.67A19.26,19.26,0,0,1,85.18,87.93H82.43v-5.5h2.75a13.74,13.74,0,1,0,0-27.47H71.44V52.21A24.73,24.73,0,0,0,22.11,49.7a19.25,19.25,0,0,1,16.36,19v2.75H33V68.69A13.74,13.74,0,1,0,19.23,82.43H22v5.5H19.23A19.23,19.23,0,0,1,16.6,49.66a30.21,30.21,0,0,1,40.15-26A24.72,24.72,0,0,1,96,52.82,19.23,19.23,0,0,1,104.42,68.69ZM85.18,49.46a18.89,18.89,0,0,1,5.9.94A19.23,19.23,0,0,0,62.14,26.23,30.3,30.3,0,0,1,76.81,49.46ZM36.25,82.38a4.61,4.61,0,0,0,.53-.15l.47-.25a4.71,4.71,0,0,0,.42-.36,2.77,2.77,0,0,0,.8-1.93,2.41,2.41,0,0,0,0-.54,2.63,2.63,0,0,0-.17-.52,1.69,1.69,0,0,0-.25-.46,2.27,2.27,0,0,0-.33-.42,2.61,2.61,0,0,0-.42-.34,2.47,2.47,0,0,0-.47-.26,3.24,3.24,0,0,0-.53-.16,2.65,2.65,0,0,0-1.58.16,1.66,1.66,0,0,0-.47.26,2,2,0,0,0-.42.34,2.51,2.51,0,0,0-.35.42,2,2,0,0,0-.25.46,5.08,5.08,0,0,0-.15.52,3.19,3.19,0,0,0-.06.54,2.68,2.68,0,0,0,.81,1.93,2.94,2.94,0,0,0,.42.36,3,3,0,0,0,.47.25,3.8,3.8,0,0,0,.51.15,2.55,2.55,0,0,0,.54.06A2.39,2.39,0,0,0,36.25,82.38Zm16.5,0a4.13,4.13,0,0,0,.5-.15,4.52,4.52,0,0,0,.49-.25,4.71,4.71,0,0,0,.42-.36,2.72,2.72,0,0,0,.8-1.93,2.42,2.42,0,0,0-.07-.54,2,2,0,0,0-.14-.52,3.28,3.28,0,0,0-.25-.46,3.66,3.66,0,0,0-.34-.42,2.61,2.61,0,0,0-.42-.34,2.11,2.11,0,0,0-.49-.26,2.91,2.91,0,0,0-.5-.16,2.8,2.8,0,0,0-1.08,0,3.33,3.33,0,0,0-.51.16,2,2,0,0,0-.48.26,2.24,2.24,0,0,0-.42.34,2.83,2.83,0,0,0-.34.42,2.49,2.49,0,0,0-.25.46,3.45,3.45,0,0,0-.16.52,2.41,2.41,0,0,0,0,.54,2.72,2.72,0,0,0,.8,1.93,2.94,2.94,0,0,0,.42.36,3.62,3.62,0,0,0,.48.25,4.91,4.91,0,0,0,.51.15,2.42,2.42,0,0,0,.54.06A2.55,2.55,0,0,0,52.75,82.38ZM45.91,92.62a2.75,2.75,0,0,0,0-3.88,3.25,3.25,0,0,0-.9-.61A3.23,3.23,0,0,0,44.5,88a2.8,2.8,0,0,0-1.08,0,2.85,2.85,0,0,0-.5.14,2.91,2.91,0,0,0-.49.27,3.29,3.29,0,0,0-.42.34,2.76,2.76,0,0,0-.8,1.93,2.64,2.64,0,0,0,.21,1.06c.08.17.16.32.25.48a3.53,3.53,0,0,0,.34.41,2.61,2.61,0,0,0,.42.34,1.89,1.89,0,0,0,.49.25,2.24,2.24,0,0,0,.5.16,2.59,2.59,0,0,0,.54,0A2.81,2.81,0,0,0,45.91,92.62ZM69.22,82.38a4.1,4.1,0,0,0,.53-.15,3.37,3.37,0,0,0,.46-.25,2.48,2.48,0,0,0,.42-.36,2.72,2.72,0,0,0,.8-1.93,2.41,2.41,0,0,0-.05-.54,2.07,2.07,0,0,0-.16-.52,1.29,1.29,0,0,0-.25-.46,2,2,0,0,0-.34-.42,3.22,3.22,0,0,0-.88-.6,3,3,0,0,0-.53-.16,2.7,2.7,0,0,0-1.06,0,3,3,0,0,0-.53.16,1.93,1.93,0,0,0-.46.26,2.58,2.58,0,0,0-.76.76,1.46,1.46,0,0,0-.25.46,2.59,2.59,0,0,0-.16.52,2.41,2.41,0,0,0,0,.54,2.72,2.72,0,0,0,.8,1.93,2.75,2.75,0,0,0,2,.82A2.24,2.24,0,0,0,69.22,82.38ZM62.39,92.62A2.73,2.73,0,0,0,62,88.4a2.4,2.4,0,0,0-.47-.27A3,3,0,0,0,61,88a2.75,2.75,0,0,0-1.07,0,3.46,3.46,0,0,0-.53.14,4.66,4.66,0,0,0-.47.27,3.29,3.29,0,0,0-.42.34,2.79,2.79,0,0,0-.79,1.93,3.12,3.12,0,0,0,0,.54,2.43,2.43,0,0,0,.17.52,2,2,0,0,0,.25.48,2.2,2.2,0,0,0,.33.41,2.61,2.61,0,0,0,.42.34,2.4,2.4,0,0,0,.47.25,2.67,2.67,0,0,0,.53.16,2.41,2.41,0,0,0,.54,0A2.76,2.76,0,0,0,62.39,92.62Zm-24.72,11a2.58,2.58,0,0,0,.33-.41,2.52,2.52,0,0,0,.25-.49,2.27,2.27,0,0,0,.17-.5,3.35,3.35,0,0,0,0-.54,3.19,3.19,0,0,0,0-.54,2.54,2.54,0,0,0-.17-.51,2.12,2.12,0,0,0-.25-.47,2.65,2.65,0,0,0-.33-.42c-.13-.12-.28-.24-.42-.35l-.47-.25a2.46,2.46,0,0,0-.53-.15,2.75,2.75,0,0,0-1.07,0,2.15,2.15,0,0,0-.51.15,3,3,0,0,0-.47.25,3.71,3.71,0,0,0-.42.35,2.73,2.73,0,0,0-.81,1.94,3.43,3.43,0,0,0,.06.54,4.13,4.13,0,0,0,.15.5,3.23,3.23,0,0,0,.25.49,2.71,2.71,0,0,0,.35.41,2.77,2.77,0,0,0,1.94.81A2.82,2.82,0,0,0,37.67,103.61Zm16.47,0a2.78,2.78,0,0,0,.36-.41c.09-.16.17-.32.25-.49a2.91,2.91,0,0,0,.16-.5,5.16,5.16,0,0,0,.05-.54,4.71,4.71,0,0,0-.05-.54,3.33,3.33,0,0,0-.16-.51,5.19,5.19,0,0,0-.25-.47,2.86,2.86,0,0,0-.36-.42,3.46,3.46,0,0,0-.4-.35,4.52,4.52,0,0,0-.49-.25,2.21,2.21,0,0,0-.5-.15,2.73,2.73,0,0,0-2.49.75,2.76,2.76,0,0,0-.8,1.94,2.53,2.53,0,0,0,0,.54,1.82,1.82,0,0,0,.16.5,4.52,4.52,0,0,0,.25.49,3.36,3.36,0,0,0,.34.41,2.82,2.82,0,0,0,2,.81A2.77,2.77,0,0,0,54.14,103.61Zm15.08.76a3,3,0,0,0,.53-.16,4,4,0,0,0,.46-.25,2.37,2.37,0,0,0,.42-.35,2.18,2.18,0,0,0,.34-.41,1.75,1.75,0,0,0,.25-.49,1.82,1.82,0,0,0,.16-.5,2.58,2.58,0,0,0,.07-.54,2.42,2.42,0,0,0-.07-.54,2,2,0,0,0-.16-.51,1.53,1.53,0,0,0-.25-.47,2.24,2.24,0,0,0-.34-.42,3.71,3.71,0,0,0-.42-.35,2.87,2.87,0,0,0-.46-.25,2.31,2.31,0,0,0-.53-.15,2.69,2.69,0,0,0-2.47.75,2.24,2.24,0,0,0-.34.42,1.77,1.77,0,0,0-.25.47,2.5,2.5,0,0,0-.16.51,2.41,2.41,0,0,0,0,.54,2.53,2.53,0,0,0,0,.54,2.24,2.24,0,0,0,.16.5,2.06,2.06,0,0,0,.25.49,2.18,2.18,0,0,0,.34.41,2.76,2.76,0,0,0,2,.81A3,3,0,0,0,69.22,104.37Z"/></g></g></svg>