<svg xmlns="http://www.w3.org/2000/svg" viewBox="0 0 115.41 112.66"><defs><style>.cls-1{fill:#fff;}</style></defs><title>poco-nuboso-tormenta-granizo-fuerte2Asset 36</title><g id="Layer_2" data-name="Layer 2"><g id="piscina2"><path class="cls-1" d="M76.94,11h-5.5V0h5.5Zm27.48,27.48V44h11V38.47ZM105.28,14l-3.89-3.89L93.62,17.9l3.88,3.89Zm-.86,54.67A19.26,19.26,0,0,1,85.18,87.93H82.43v-5.5h2.75a13.74,13.74,0,1,0,0-27.47H71.44V52.21A24.73,24.73,0,0,0,22.11,49.7a19.25,19.25,0,0,1,16.36,19v2.75H33V68.69A13.74,13.74,0,1,0,19.23,82.43H22v5.5H19.23A19.23,19.23,0,0,1,16.6,49.66a30.21,30.21,0,0,1,40.15-26A24.72,24.72,0,0,1,96,52.82,19.23,19.23,0,0,1,104.42,68.69ZM85.18,49.46a18.89,18.89,0,0,1,5.9.94A19.23,19.23,0,0,0,62.14,26.23,30.3,30.3,0,0,1,76.81,49.46ZM30.77,112.61a3.33,3.33,0,0,0,.51-.16,2.8,2.8,0,0,0,.89-.59,2.75,2.75,0,0,0,0-3.9,4.78,4.78,0,0,0-.42-.34,3.45,3.45,0,0,0-.47-.24,2.54,2.54,0,0,0-.51-.17,3.26,3.26,0,0,0-1.08,0,2.35,2.35,0,0,0-.51.17,3.58,3.58,0,0,0-.48.24,3.53,3.53,0,0,0-.41.34,2.75,2.75,0,0,0,0,3.9,2.74,2.74,0,0,0,.41.34,3.62,3.62,0,0,0,.48.25,3,3,0,0,0,.51.16,2.94,2.94,0,0,0,1.08,0ZM51.4,100.87a2.74,2.74,0,0,0,.81-2,3.19,3.19,0,0,0-.05-.54,3.33,3.33,0,0,0-.16-.51,2.64,2.64,0,0,0-.25-.47A2.79,2.79,0,0,0,51.4,97a2.84,2.84,0,0,0-3.88,0,2.75,2.75,0,0,0,1.94,4.69A2.73,2.73,0,0,0,51.4,100.87Zm12.34,11.74a3,3,0,0,0,.51-.16,3.62,3.62,0,0,0,.48-.25,2.74,2.74,0,0,0,.41-.34,3.39,3.39,0,0,0,.35-.42,3.13,3.13,0,0,0,.25-.48,3.33,3.33,0,0,0,.16-.51,2.89,2.89,0,0,0,0-1.07,3.13,3.13,0,0,0-.16-.52,3.67,3.67,0,0,0-.25-.48,3.39,3.39,0,0,0-.35-.42,3.53,3.53,0,0,0-.41-.34,3.58,3.58,0,0,0-.48-.24,2.35,2.35,0,0,0-.51-.17,3.26,3.26,0,0,0-1.08,0,2.54,2.54,0,0,0-.51.17,3,3,0,0,0-.47.24,3.66,3.66,0,0,0-.42.34,3.29,3.29,0,0,0-.34.42,3.77,3.77,0,0,0-.26.48,3.1,3.1,0,0,0-.15.52,2.42,2.42,0,0,0,0,1.07,3.28,3.28,0,0,0,.15.51,3.2,3.2,0,0,0,.26.48,3.29,3.29,0,0,0,.34.42,2.76,2.76,0,0,0,1.94.8A2.47,2.47,0,0,0,63.74,112.61ZM41.13,80.35,35.8,79l-5.49,22,5.33,1.33Zm16.49,0L52.29,79,49.54,90l5.33,1.33Zm16.49,0L68.78,79l-5.5,22,5.33,1.33Z"/></g></g></svg>