<svg xmlns="http://www.w3.org/2000/svg" viewBox="0 0 115.41 104.42"><defs><style>.cls-1{fill:#fff;}</style></defs><title>poco-nuboso-vientoAsset 40</title><g id="Layer_2" data-name="Layer 2"><g id="piscina2"><path class="cls-1" d="M76.94,11h-5.5V0h5.5Zm27.47,27.48V44h11V38.47ZM105.28,14l-3.89-3.88L93.62,17.9l3.89,3.89Zm-.86,54.68A19.26,19.26,0,0,1,85.18,87.93H82.43v-5.5h2.75a13.74,13.74,0,1,0,0-27.47H71.44V52.21A24.73,24.73,0,0,0,22.11,49.7a19.25,19.25,0,0,1,16.36,19v2.75H33V68.69A13.74,13.74,0,1,0,19.23,82.43H22v5.5H19.23A19.23,19.23,0,0,1,16.6,49.66a30.2,30.2,0,0,1,40.14-26A24.72,24.72,0,0,1,96,52.82,19.23,19.23,0,0,1,104.42,68.69ZM85.18,49.46a19.18,19.18,0,0,1,5.9.93,19.06,19.06,0,0,0,2.34-9.17,19.22,19.22,0,0,0-31.28-15A30.26,30.26,0,0,1,76.81,49.46Zm-79.68,55h44v-5.5H5.5ZM68.69,66H55v5.49H68.69a2.75,2.75,0,0,1,0,5.5H27.48v5.49h44V82a8.23,8.23,0,0,0-2.75-16Zm2.75,22.46v-.48h-44v5.49H68.69a2.75,2.75,0,0,1,0,5.5H55v5.5H68.69a8.24,8.24,0,0,0,2.75-16Z"/></g></g></svg>