<svg xmlns="http://www.w3.org/2000/svg" viewBox="0 0 68.34 68"><defs><style>.cls-1{fill:#fff;}.cls-2{fill:none;}</style></defs><title>pezAsset 2</title><g id="Layer_2" data-name="Layer 2"><g id="Capa_1" data-name="Capa 1"><path class="cls-1" d="M66.4,33.22A29.18,29.18,0,0,0,49.83,19.69a31,31,0,0,0-5.19-1.16A21.22,21.22,0,0,0,25.72,7.06h-2V21.65a72,72,0,0,0-7.14,3.27L1.32,17.13V29.24a6.74,6.74,0,0,0,2.05,4.87,6.76,6.76,0,0,0-2,4.88v12.1l15.26-7.78a71.83,71.83,0,0,0,7.14,3.26V61.16h2A21.23,21.23,0,0,0,44.64,49.7a30,30,0,0,0,5.19-1.17A29.18,29.18,0,0,0,66.4,35l.21-.44v-.93Zm-51.8,6.6L5.32,44.56V39a2.93,2.93,0,0,1,3.11-2.88H14.6Zm0-7.71H8.43a2.92,2.92,0,0,1-3.11-2.87V23.66L14.6,28.4ZM27.72,11.18a17.24,17.24,0,0,1,12.07,7.06,42.83,42.83,0,0,0-12.07,2Zm0,45.87V48a42.86,42.86,0,0,0,12.07,2A17.25,17.25,0,0,1,27.72,57.05ZM18.6,39.85V28.38c10.18-5.28,19.29-7.16,27.13-5.62a16.8,16.8,0,0,0,0,22.7C37.89,47,28.78,45.13,18.6,39.85Zm31.58,4.31a12.83,12.83,0,0,1,0-20.1A25.88,25.88,0,0,1,62.3,34.12,25.67,25.67,0,0,1,50.18,44.16Z"/><path class="cls-1" d="M53.79,32a1.73,1.73,0,1,0,1.73,1.73A1.73,1.73,0,0,0,53.79,32Z"/><rect class="cls-2" width="68.34" height="68"/></g></g></svg>