<svg xmlns="http://www.w3.org/2000/svg" viewBox="0 0 67.28 52.19"><defs><style>.cls-1{fill:#fff;}</style></defs><title>altavoz Recurso 26</title><g id="Capa_2" data-name="Capa 2"><g id="Layer_1" data-name="Layer 1"><path class="cls-1" d="M47.22,12.07H8A4,4,0,0,1,8,4h7.12V0H8A8,8,0,0,0,8,16.07h9.34l3.06,3.11H11v4h13.4l2.47,2.52a20.34,20.34,0,0,0,2.1,1.84l-.06.06H17.26L9.5,35.35l2.83,2.83,6.58-6.58h6L19.7,36.77l2.83,2.83,8-8h9a13.91,13.91,0,0,0,2.66,0h2.28A8.3,8.3,0,0,1,46.27,48a12.91,12.91,0,0,0-12.7-10.68H28.13v2A12.9,12.9,0,0,0,41,52.19h6.21a20.06,20.06,0,1,0,0-40.12ZM41.91,27.6H39.68a16,16,0,0,1-10-4.71L23,16.07H41.06a5.8,5.8,0,0,1,.85,11.53ZM41,48.19a8.9,8.9,0,0,1-8.65-6.88h1.21a8.9,8.9,0,0,1,8.66,6.88Zm14-2a12.28,12.28,0,0,0-6.56-17.88A9.79,9.79,0,0,0,49,16.17a16.06,16.06,0,0,1,6,30Z"/></g></g></svg>