<svg xmlns="http://www.w3.org/2000/svg" viewBox="0 0 54.83 52.19"><defs><style>.cls-1{fill:#fff;}</style></defs><title>rodaballoRecurso 29</title><g id="Capa_2" data-name="Capa 2"><g id="Layer_1" data-name="Layer 1"><path class="cls-1" d="M31.89,52.19h0a15.78,15.78,0,0,1-13.67-8.35L10.26,29.39,0,39.65V12.54L10.26,22.79,18.2,8.32A15.85,15.85,0,0,1,30.85,0c.36,0,.74,0,1.11,0A15.77,15.77,0,0,1,45.62,8.35l8.74,15.92a3.76,3.76,0,0,1,0,3.65L45.61,43.87A15.85,15.85,0,0,1,33,52.16C32.6,52.18,32.25,52.19,31.89,52.19ZM19.21,37.39l2.48,4.52a11.79,11.79,0,0,0,10.17,6.28,8,8,0,0,0,.85,0,11.77,11.77,0,0,0,9.39-6.22l2.5-4.55a18.59,18.59,0,0,1-25.39,0Zm2.38-3.27a14.57,14.57,0,0,0,20.63,0l8-8-8-8a14.57,14.57,0,0,0-20.63,0l-8,8,8,8ZM4,22.19V30l3.9-3.9ZM31.91,4q-.4,0-.81,0a11.77,11.77,0,0,0-9.39,6.22l-2.5,4.55a18.59,18.59,0,0,1,25.39,0l-2.48-4.52A11.78,11.78,0,0,0,32,4Z"/></g></g></svg>