<svg xmlns="http://www.w3.org/2000/svg" viewBox="0 0 52.44 54.66"><defs><style>.cls-1{fill:#fff;}</style></defs><title>pulpo Recurso 33</title><g id="Capa_2" data-name="Capa 2"><g id="Layer_1" data-name="Layer 1"><path class="cls-1" d="M32.06,46.12V29.62h-4v16.5a8.55,8.55,0,0,0,8.54,8.54v-4A4.54,4.54,0,0,1,32.06,46.12Z"/><path class="cls-1" d="M20.38,46.12a4.55,4.55,0,0,1-4.54,4.54v4a8.55,8.55,0,0,0,8.54-8.54V29.62h-4Z"/><path class="cls-1" d="M49.45,29.62a8.5,8.5,0,0,0,3-6.47,8.38,8.38,0,0,0-8.38-8.38h-2v4h2a4.39,4.39,0,0,1,4.38,4.38,4.49,4.49,0,0,1-4.38,4.47H39.75V13.53a13.53,13.53,0,0,0-27.06,0V27.62H8.38A4.49,4.49,0,0,1,4,23.15a4.38,4.38,0,0,1,4.38-4.38h2v-4h-2A8.42,8.42,0,0,0,3,29.62a8.55,8.55,0,0,0-3,6.51,8.39,8.39,0,0,0,8.38,8.38v-4A4.39,4.39,0,0,1,4,36.13a4.51,4.51,0,0,1,4.38-4.51h8.31V13.53a9.53,9.53,0,0,1,19.06,0V27.62h0v4h8.31a4.51,4.51,0,0,1,4.38,4.51,4.39,4.39,0,0,1-4.38,4.38v4a8.39,8.39,0,0,0,8.38-8.38A8.58,8.58,0,0,0,49.45,29.62Z"/></g></g></svg>